<?xml version="1.0" encoding="UTF-8" standalone="no"?>
<!DOCTYPE svg PUBLIC "-//W3C//DTD SVG 1.1//EN" "http://www.w3.org/Graphics/SVG/1.1/DTD/svg11.dtd">
<svg xmlns="http://www.w3.org/2000/svg" version="1.1" viewBox="0.00 0.00 128.00 128.00">
<g stroke-width="2.00" fill="none" stroke-linecap="butt">
<path stroke="#787878" vector-effect="non-scaling-stroke" d="
  M 78.50 3.20
  L 77.79 4.09
  A 1.07 1.04 -70.1 0 1 76.97 4.49
  Q 54.84 4.48 33.64 4.49
  C 27.52 4.49 24.60 9.31 24.69 14.91
  Q 24.86 25.61 24.69 36.27
  C 24.60 42.56 28.63 46.20 34.76 46.18
  Q 63.84 46.07 93.45 46.17
  C 99.83 46.19 103.37 42.17 103.30 36.10
  Q 103.18 25.16 103.33 14.57
  C 103.42 8.10 99.37 4.12 92.89 4.44
  Q 90.03 4.58 87.02 4.45
  Q 86.57 4.43 86.24 4.11
  Q 85.82 3.71 85.58 3.20"
/>
<path stroke="#396175" vector-effect="non-scaling-stroke" d="
  M 30.00 102.53
  Q 30.67 101.25 31.75 101.25
  Q 77.69 101.27 120.35 101.25
  A 4.02 4.02 0.0 0 0 124.37 97.23
  L 124.37 33.43
  A 3.89 3.89 0.0 0 0 120.48 29.54
  L 107.64 29.52"
/>
<path stroke="#245364" vector-effect="non-scaling-stroke" d="
  M 107.64 29.52
  Q 104.99 28.49 105.76 33.94
  Q 105.84 34.46 106.36 34.46
  L 107.79 34.46"
/>
<path stroke="#396175" vector-effect="non-scaling-stroke" d="
  M 107.79 34.46
  L 118.16 34.49
  A 1.24 1.24 0.0 0 1 119.40 35.73
  L 119.39 95.19
  A 1.10 1.10 0.0 0 1 118.30 96.29
  Q 107.28 96.36 96.01 96.29
  Q 95.39 96.29 95.07 95.98
  Q 94.68 95.61 94.54 95.04"
/>
<path stroke="#786010" vector-effect="non-scaling-stroke" d="
  M 94.54 95.04
  Q 94.96 93.77 96.25 93.77
  Q 106.40 93.77 116.57 93.79
  Q 116.92 93.79 116.92 93.44
  L 116.92 37.52
  Q 116.92 37.05 116.44 37.05
  L 107.98 37.03"
/>
<path stroke="#74530f" vector-effect="non-scaling-stroke" d="
  M 107.98 37.03
  L 106.29 36.95
  Q 105.74 36.93 105.70 37.48
  C 105.21 44.68 100.25 48.67 93.32 48.64
  Q 63.39 48.52 34.97 48.62
  Q 23.55 48.66 22.19 37.35
  Q 22.13 36.87 21.64 36.91
  L 20.06 37.03"
/>
<path stroke="#786010" vector-effect="non-scaling-stroke" d="
  M 20.06 37.03
  L 11.56 37.08
  Q 11.10 37.08 11.10 37.54
  L 11.10 93.45
  A 0.34 0.33 0.0 0 0 11.44 93.78
  Q 48.63 93.77 85.75 93.84
  Q 87.01 93.84 87.12 95.00"
/>
<path stroke="#396175" vector-effect="non-scaling-stroke" d="
  M 87.12 95.00
  Q 87.07 96.31 86.00 96.31
  Q 48.25 96.32 9.74 96.32
  Q 8.88 96.31 8.74 95.47
  Q 8.64 94.87 8.64 94.29
  Q 8.55 64.99 8.62 35.45
  A 0.95 0.94 -0.3 0 1 9.56 34.51
  L 20.15 34.43"
/>
<path stroke="#245364" vector-effect="non-scaling-stroke" d="
  M 20.15 34.43
  Q 23.01 35.59 22.27 29.98
  Q 22.20 29.46 21.67 29.48
  L 20.15 29.52"
/>
<path stroke="#396175" vector-effect="non-scaling-stroke" d="
  M 20.15 29.52
  L 7.60 29.53
  A 3.96 3.96 0.0 0 0 3.64 33.49
  L 3.64 97.19
  A 4.06 4.06 0.0 0 0 7.69 101.25
  Q 14.14 101.28 21.14 101.24
  C 22.03 101.24 22.70 101.86 23.18 102.54"
/>
<path stroke="#5db4d9" vector-effect="non-scaling-stroke" d="
  M 20.15 29.52
  L 20.15 34.43"
/>
<path stroke="#b1c185" vector-effect="non-scaling-stroke" d="
  M 87.12 95.00
  Q 88.20 94.72 89.55 95.08"
/>
<path stroke="#396175" vector-effect="non-scaling-stroke" d="
  M 89.55 95.08
  Q 90.23 96.91 91.69 95.92
  Q 92.13 95.62 92.12 94.98"
/>
<path stroke="#b1c185" vector-effect="non-scaling-stroke" d="
  M 92.12 94.98
  L 94.54 95.04"
/>
<path stroke="#5db4d9" vector-effect="non-scaling-stroke" d="
  M 107.79 34.46
  Q 108.19 31.95 107.64 29.52"
/>
<path stroke="#396175" vector-effect="non-scaling-stroke" d="
  M 28.14 102.58
  Q 27.60 101.79 26.94 101.43
  Q 26.49 101.18 26.04 101.44
  Q 25.44 101.79 25.01 102.52"
/>
<path stroke="#786010" vector-effect="non-scaling-stroke" d="
  M 92.12 94.98
  Q 92.01 94.14 91.34 93.90
  Q 90.05 93.44 89.55 95.08"
/>
<path stroke="#ecb31f" vector-effect="non-scaling-stroke" d="
  M 107.98 37.03
  Q 106.72 50.82 93.50 50.83
  Q 66.55 50.84 39.61 50.81
  Q 30.42 50.80 27.13 49.20
  Q 20.60 46.02 20.06 37.03"
/>
<path stroke="#787878" vector-effect="non-scaling-stroke" d="
  M 83.46 3.18
  Q 83.04 3.97 82.46 4.32
  Q 82.00 4.60 81.56 4.30
  Q 81.02 3.95 80.72 3.24"
/>
<path stroke="#396175" vector-effect="non-scaling-stroke" d="
  M 56.19 107.06
  L 55.00 115.57
  Q 54.92 116.14 55.49 116.14
  L 72.50 116.15
  Q 73.08 116.15 73.00 115.58
  L 71.79 106.99"
/>
<path stroke="#245364" vector-effect="non-scaling-stroke" d="
  M 71.79 106.99
  L 71.49 104.37
  Q 71.42 103.78 70.82 103.78
  L 57.25 103.78
  Q 56.75 103.78 56.59 104.25
  Q 56.18 105.49 56.19 107.06"
/>
<path stroke="#5db4d9" vector-effect="non-scaling-stroke" d="
  M 71.79 106.99
  L 56.19 107.06"
/>
<path stroke="#396175" vector-effect="non-scaling-stroke" d="
  M 83.39 123.52
  A 1.14 1.14 0.0 0 0 84.50 122.10
  L 83.86 119.55
  A 1.14 1.14 0.0 0 0 82.75 118.69
  L 45.25 118.69
  A 1.14 1.14 0.0 0 0 44.14 119.56
  L 43.52 122.11
  A 1.14 1.14 0.0 0 0 44.63 123.52
  L 83.39 123.52"
/>
<path stroke="#787878" vector-effect="non-scaling-stroke" d="
  M 43.09 21.79
  Q 46.34 18.25 44.39 13.70
  C 42.81 10.04 37.46 9.66 33.92 10.03
  Q 32.83 10.14 32.83 11.24
  L 32.83 34.14
  Q 32.83 35.44 34.13 35.45
  Q 36.29 35.45 38.52 35.53
  C 46.20 35.81 49.70 26.81 43.18 22.53
  Q 42.70 22.22 43.09 21.79"
/>
<path stroke="#787878" vector-effect="non-scaling-stroke" d="
  M 68.97 20.75
  L 78.02 20.74
  A 1.12 1.10 20.2 0 0 78.86 20.36
  Q 79.47 19.68 79.14 18.85
  A 0.97 0.96 79.3 0 0 78.24 18.23
  L 69.01 18.22
  Q 68.30 18.22 68.29 17.51
  L 68.28 10.94
  Q 68.28 10.11 67.44 10.05
  L 67.06 10.03
  Q 65.79 9.94 65.80 11.21
  Q 65.84 19.45 65.76 28.04
  C 65.68 37.45 78.26 38.13 79.31 28.86
  A 1.23 1.22 30.6 0 0 79.09 28.02
  Q 78.20 26.73 77.16 27.59
  A 1.01 0.99 71.6 0 0 76.81 28.31
  C 76.56 34.65 68.24 34.23 68.28 28.59
  Q 68.31 25.01 68.27 21.45
  Q 68.27 20.75 68.97 20.75"
/>
<path stroke="#787878" vector-effect="non-scaling-stroke" d="
  M 85.77 26.26
  L 94.00 26.25
  A 1.17 1.17 0.0 0 0 95.16 25.25
  C 95.79 21.04 93.86 17.30 89.38 17.05
  Q 85.67 16.85 83.71 19.69
  C 82.09 22.04 82.78 25.80 82.66 28.58
  C 82.37 35.15 90.48 37.99 94.10 32.88
  A 4.36 3.80 79.7 0 0 94.47 32.26
  Q 96.24 28.68 94.29 28.05
  Q 93.02 27.64 92.80 28.95
  C 92.59 30.26 92.54 31.31 91.34 32.13
  C 89.34 33.52 85.98 32.98 85.39 30.38
  Q 85.03 28.79 85.15 26.85
  Q 85.18 26.26 85.77 26.26"
/>
<path stroke="#787878" vector-effect="non-scaling-stroke" d="
  M 59.30 34.41
  C 59.16 36.15 59.62 38.24 58.00 39.41
  Q 56.30 40.63 54.28 39.49
  Q 53.52 39.07 53.32 38.22
  L 53.04 37.01
  Q 52.71 35.60 51.28 35.88
  Q 50.99 35.93 50.87 36.16
  Q 50.27 37.26 50.69 38.47
  C 52.90 44.80 61.69 43.60 61.71 36.43
  Q 61.74 29.31 61.72 21.95
  Q 61.72 20.76 60.53 20.67
  Q 60.32 20.65 60.12 20.70
  Q 59.23 20.93 59.23 21.86
  L 59.23 28.77
  Q 59.23 31.87 56.13 32.04
  Q 55.10 32.09 54.14 31.48
  A 2.39 2.39 0.0 0 1 53.06 29.50
  L 53.00 21.66
  A 0.93 0.92 2.7 0 0 52.16 20.74
  L 51.82 20.70
  Q 50.46 20.57 50.51 21.93
  C 50.62 25.01 49.81 29.68 51.59 32.17
  Q 54.15 35.76 58.71 33.98
  Q 59.35 33.72 59.30 34.41"
/>
<path stroke="#787878" vector-effect="non-scaling-stroke" d="
  M 35.35 12.79
  L 35.31 21.13
  A 0.33 0.33 0.0 0 0 35.64 21.46
  L 37.90 21.47
  A 4.65 4.29 0.3 0 0 42.57 17.21
  L 42.57 16.79
  A 4.65 4.29 0.3 0 0 37.94 12.47
  L 35.68 12.46
  A 0.33 0.33 0.0 0 0 35.35 12.79"
/>
<path stroke="#787878" vector-effect="non-scaling-stroke" d="
  M 35.33 24.36
  L 35.31 32.62
  A 0.38 0.38 0.0 0 0 35.69 33.00
  L 39.60 33.01
  A 4.37 4.30 0.1 0 0 43.98 28.72
  L 43.98 28.30
  A 4.37 4.30 0.1 0 0 39.62 23.99
  L 35.71 23.98
  A 0.38 0.38 0.0 0 0 35.33 24.36"
/>
<path stroke="#787878" vector-effect="non-scaling-stroke" d="
  M 85.57 23.75
  L 92.33 23.73
  A 0.43 0.43 0.0 0 0 92.76 23.30
  L 92.76 23.16
  A 3.68 3.63 -0.1 0 0 89.08 19.54
  L 88.82 19.54
  A 3.68 3.63 -0.1 0 0 85.14 23.18
  L 85.14 23.32
  A 0.43 0.43 0.0 0 0 85.57 23.75"
/>
<path stroke="#f5d367" vector-effect="non-scaling-stroke" d="
  M 110.68 88.29
  L 21.64 88.30
  A 1.13 1.09 23.8 0 0 20.91 88.57
  Q 19.50 89.75 21.06 90.64
  A 0.91 0.90 59.5 0 0 21.51 90.76
  L 112.69 90.78
  A 1.22 1.21 -90.0 0 0 113.90 89.56
  L 113.87 40.97
  A 0.90 0.89 -85.0 0 0 113.14 40.09
  L 112.80 40.03
  Q 111.39 39.77 111.39 41.20
  L 111.39 87.57
  Q 111.39 88.29 110.68 88.29"
/>
<path stroke="#786010" vector-effect="non-scaling-stroke" d="
  M 35.07 57.61
  A 4.45 4.45 0.0 0 0 30.62 53.16
  L 29.92 53.16
  A 4.45 4.45 0.0 0 0 25.47 57.61
  L 25.47 61.77
  A 4.45 4.45 0.0 0 0 29.92 66.22
  L 30.62 66.22
  A 4.45 4.45 0.0 0 0 35.07 61.77
  L 35.07 57.61"
/>
<path stroke="#786010" vector-effect="non-scaling-stroke" d="
  M 42.45 57.07
  L 42.45 63.13
  Q 42.45 63.72 41.87 63.74
  L 40.04 63.82
  A 1.19 1.19 0.0 0 0 38.90 65.08
  Q 38.91 65.25 38.93 65.40
  Q 39.06 66.26 39.93 66.28
  Q 43.81 66.35 47.31 66.31
  Q 47.86 66.30 48.18 65.86
  Q 48.46 65.48 48.47 65.00
  A 1.09 1.08 11.5 0 0 47.79 63.98
  Q 46.79 63.58 45.63 63.81
  Q 44.95 63.95 44.95 63.26
  L 44.93 54.21
  A 1.09 1.09 0.0 0 0 43.53 53.17
  Q 41.21 53.86 39.40 55.24
  Q 38.82 55.68 39.11 56.34
  Q 39.22 56.60 39.41 56.80
  Q 40.09 57.55 40.99 57.09
  L 41.81 56.68
  Q 42.45 56.35 42.45 57.07"
/>
<path stroke="#786010" vector-effect="non-scaling-stroke" d="
  M 69.25 56.98
  L 69.25 63.24
  Q 69.25 63.73 68.76 63.75
  L 66.82 63.82
  Q 65.73 63.86 65.75 64.96
  L 65.76 65.48
  Q 65.78 66.25 66.56 66.28
  Q 70.08 66.38 73.96 66.28
  Q 74.66 66.26 74.97 65.93
  Q 75.35 65.54 75.29 64.87
  A 1.14 1.14 0.0 0 0 74.44 63.88
  Q 73.48 63.63 72.52 63.85
  A 0.62 0.62 0.0 0 1 71.76 63.25
  L 71.73 54.12
  A 1.07 1.06 -10.6 0 0 70.28 53.13
  Q 68.46 53.85 66.59 54.89
  Q 66.12 55.15 65.97 55.66
  C 65.74 56.48 66.36 57.30 67.23 57.22
  Q 68.01 57.15 68.59 56.67
  Q 69.25 56.12 69.25 56.98"
/>
<path stroke="#786010" vector-effect="non-scaling-stroke" d="
  M 96.06 56.98
  L 96.06 63.23
  Q 96.06 63.76 95.52 63.77
  L 93.66 63.82
  Q 93.00 63.83 92.70 64.41
  Q 92.21 65.34 92.96 66.04
  Q 93.24 66.30 93.62 66.30
  L 101.08 66.32
  A 0.97 0.96 -87.7 0 0 102.04 65.43
  L 102.06 65.08
  Q 102.16 63.75 100.83 63.77
  L 99.17 63.78
  Q 98.55 63.79 98.55 63.17
  L 98.53 54.17
  A 1.14 1.14 0.0 0 0 96.88 53.15
  L 93.28 54.95
  A 1.18 1.17 -51.3 0 0 93.52 57.14
  Q 94.57 57.40 95.39 56.68
  Q 96.06 56.10 96.06 56.98"
/>
<path stroke="#786010" vector-effect="non-scaling-stroke" d="
  M 61.9136 57.6584
  A 4.47 4.47 0.0 0 0 57.4514 53.1806
  L 56.7514 53.1794
  A 4.47 4.47 0.0 0 0 52.2736 57.6416
  L 52.2664 61.7416
  A 4.47 4.47 0.0 0 0 56.7286 66.2194
  L 57.4286 66.2206
  A 4.47 4.47 0.0 0 0 61.9064 61.7584
  L 61.9136 57.6584"
/>
<path stroke="#786010" vector-effect="non-scaling-stroke" d="
  M 88.7164 57.6316
  A 4.46 4.46 0.0 0 0 84.2486 53.1794
  L 83.5286 53.1806
  A 4.46 4.46 0.0 0 0 79.0764 57.6484
  L 79.0836 61.7684
  A 4.46 4.46 0.0 0 0 83.5514 66.2206
  L 84.2714 66.2194
  A 4.46 4.46 0.0 0 0 88.7236 61.7516
  L 88.7164 57.6316"
/>
<path stroke="#786010" vector-effect="non-scaling-stroke" d="
  M 29.01 76.02
  L 29.01 82.31
  Q 29.01 82.88 28.44 82.88
  L 26.58 82.91
  Q 25.51 82.92 25.52 83.99
  Q 25.52 84.18 25.53 84.38
  Q 25.54 85.40 26.56 85.40
  L 33.96 85.41
  Q 35.09 85.41 35.03 84.29
  L 35.00 83.80
  Q 34.95 82.89 34.05 82.88
  L 32.06 82.85
  Q 31.51 82.85 31.51 82.29
  L 31.50 73.19
  A 1.11 1.11 0.0 0 0 29.90 72.20
  L 26.33 73.97
  Q 25.86 74.20 25.74 74.71
  Q 25.54 75.60 26.26 76.09
  Q 26.69 76.39 27.20 76.27
  Q 27.83 76.12 28.34 75.70
  Q 29.01 75.14 29.01 76.02"
/>
<path stroke="#786010" vector-effect="non-scaling-stroke" d="
  M 48.4647 76.6613
  A 4.48 4.48 0.0 0 0 43.9303 72.2363
  L 43.2504 72.2446
  A 4.48 4.48 0.0 0 0 38.8254 76.7790
  L 38.8753 80.8587
  A 4.48 4.48 0.0 0 0 43.4097 85.2837
  L 44.0896 85.2754
  A 4.48 4.48 0.0 0 0 48.5146 80.7410
  L 48.4647 76.6613"
/>
<path stroke="#786010" vector-effect="non-scaling-stroke" d="
  M 55.82 76.21
  L 55.81 82.25
  Q 55.81 82.82 55.25 82.85
  L 53.42 82.92
  Q 52.66 82.95 52.38 83.65
  Q 52.15 84.25 52.48 84.90
  A 0.93 0.93 0.0 0 0 53.31 85.41
  L 60.92 85.40
  A 0.91 0.90 -87.2 0 0 61.82 84.58
  L 61.86 84.17
  Q 61.99 82.87 60.67 82.87
  L 58.84 82.87
  A 0.53 0.52 -90.0 0 1 58.32 82.34
  L 58.30 73.28
  A 1.14 1.14 0.0 0 0 56.71 72.24
  Q 54.84 73.05 53.22 73.97
  Q 52.05 74.63 52.75 75.82
  A 0.92 0.91 -15.5 0 0 53.56 76.27
  Q 54.38 76.26 55.07 75.81
  Q 55.82 75.30 55.82 76.21"
/>
<path stroke="#786010" vector-effect="non-scaling-stroke" d="
  M 75.28 76.69
  A 4.45 4.45 0.0 0 0 70.83 72.24
  L 70.15 72.24
  A 4.45 4.45 0.0 0 0 65.70 76.69
  L 65.70 80.83
  A 4.45 4.45 0.0 0 0 70.15 85.28
  L 70.83 85.28
  A 4.45 4.45 0.0 0 0 75.28 80.83
  L 75.28 76.69"
/>
<path stroke="#786010" vector-effect="non-scaling-stroke" d="
  M 82.66 76.21
  L 82.69 82.29
  A 0.52 0.51 88.2 0 1 82.21 82.81
  L 80.02 82.95
  A 0.93 0.92 -84.9 0 0 79.18 83.66
  Q 79.09 84.03 79.14 84.40
  Q 79.29 85.40 80.31 85.41
  L 87.47 85.42
  A 1.26 1.26 0.0 0 0 88.61 84.70
  Q 89.17 83.52 87.59 82.93
  A 2.22 2.22 0.0 0 0 86.17 82.87
  Q 85.13 83.19 85.14 82.22
  Q 85.21 77.89 85.14 73.26
  A 1.18 1.18 0.0 0 0 83.43 72.23
  L 79.80 74.06
  Q 78.88 74.52 79.37 75.42
  L 79.54 75.73
  A 1.13 1.12 63.6 0 0 80.99 76.22
  L 81.97 75.77
  Q 82.66 75.45 82.66 76.21"
/>
<path stroke="#786010" vector-effect="non-scaling-stroke" d="
  M 102.1192 76.6848
  A 4.47 4.47 0.0 0 0 97.6259 72.2383
  L 96.9459 72.2419
  A 4.47 4.47 0.0 0 0 92.4993 76.7352
  L 92.5208 80.8352
  A 4.47 4.47 0.0 0 0 97.0141 85.2817
  L 97.6941 85.2781
  A 4.47 4.47 0.0 0 0 102.1407 80.7848
  L 102.1192 76.6848"
/>
<path stroke="#f5d367" vector-effect="non-scaling-stroke" d="
  M 17.7691 89.6172
  A 1.82 1.27 1.8 0 0 15.9899 88.2906
  A 1.82 1.27 1.8 0 0 14.1309 89.5028
  A 1.82 1.27 1.8 0 0 15.9101 90.8294
  A 1.82 1.27 1.8 0 0 17.7691 89.6172"
/>
<path stroke="#786010" vector-effect="non-scaling-stroke" d="
  M 32.5963 57.8302
  A 2.17 2.17 0.0 0 0 30.4453 55.6414
  L 30.1653 55.6389
  A 2.17 2.17 0.0 0 0 27.9765 57.7899
  L 27.9437 61.5498
  A 2.17 2.17 0.0 0 0 30.0947 63.7386
  L 30.3747 63.7411
  A 2.17 2.17 0.0 0 0 32.5635 61.5901
  L 32.5963 57.8302"
/>
<path stroke="#786010" vector-effect="non-scaling-stroke" d="
  M 59.42 57.82
  A 2.19 2.19 0.0 0 0 57.23 55.63
  L 56.95 55.63
  A 2.19 2.19 0.0 0 0 54.76 57.82
  L 54.76 61.54
  A 2.19 2.19 0.0 0 0 56.95 63.73
  L 57.23 63.73
  A 2.19 2.19 0.0 0 0 59.42 61.54
  L 59.42 57.82"
/>
<path stroke="#786010" vector-effect="non-scaling-stroke" d="
  M 86.23 57.85
  A 2.20 2.20 0.0 0 0 84.03 55.65
  L 83.77 55.65
  A 2.20 2.20 0.0 0 0 81.57 57.85
  L 81.57 61.53
  A 2.20 2.20 0.0 0 0 83.77 63.73
  L 84.03 63.73
  A 2.20 2.20 0.0 0 0 86.23 61.53
  L 86.23 57.85"
/>
<path stroke="#786010" vector-effect="non-scaling-stroke" d="
  M 46.00 76.91
  A 2.18 2.18 0.0 0 0 43.82 74.73
  L 43.52 74.73
  A 2.18 2.18 0.0 0 0 41.34 76.91
  L 41.34 80.61
  A 2.18 2.18 0.0 0 0 43.52 82.79
  L 43.82 82.79
  A 2.18 2.18 0.0 0 0 46.00 80.61
  L 46.00 76.91"
/>
<path stroke="#786010" vector-effect="non-scaling-stroke" d="
  M 72.80 76.84
  A 2.11 2.11 0.0 0 0 70.69 74.73
  L 70.29 74.73
  A 2.11 2.11 0.0 0 0 68.18 76.84
  L 68.18 80.68
  A 2.11 2.11 0.0 0 0 70.29 82.79
  L 70.69 82.79
  A 2.11 2.11 0.0 0 0 72.80 80.68
  L 72.80 76.84"
/>
<path stroke="#786010" vector-effect="non-scaling-stroke" d="
  M 99.6532 76.9041
  A 2.18 2.18 0.0 0 0 97.4770 74.7203
  L 97.1770 74.7197
  A 2.18 2.18 0.0 0 0 94.9932 76.8959
  L 94.9868 80.5959
  A 2.18 2.18 0.0 0 0 97.1630 82.7797
  L 97.4630 82.7803
  A 2.18 2.18 0.0 0 0 99.6468 80.6041
  L 99.6532 76.9041"
/>
</g>
<path fill="#000000" d="
  M 78.50 3.20
  L 77.79 4.09
  A 1.07 1.04 -70.1 0 1 76.97 4.49
  Q 54.84 4.48 33.64 4.49
  C 27.52 4.49 24.60 9.31 24.69 14.91
  Q 24.86 25.61 24.69 36.27
  C 24.60 42.56 28.63 46.20 34.76 46.18
  Q 63.84 46.07 93.45 46.17
  C 99.83 46.19 103.37 42.17 103.30 36.10
  Q 103.18 25.16 103.33 14.57
  C 103.42 8.10 99.37 4.12 92.89 4.44
  Q 90.03 4.58 87.02 4.45
  Q 86.57 4.43 86.24 4.11
  Q 85.82 3.71 85.58 3.20
  L 86.17 2.41
  Q 86.47 2.01 86.97 2.00
  C 93.63 1.80 100.52 1.06 104.30 7.80
  Q 106.00 10.82 105.81 16.31
  Q 105.62 21.80 105.81 26.76
  A 0.21 0.20 1.5 0 0 106.01 26.96
  Q 112.59 27.09 118.98 26.94
  C 123.41 26.83 126.87 29.21 126.87 33.85
  Q 126.86 63.65 126.87 96.74
  C 126.87 100.71 124.17 103.77 120.07 103.77
  Q 97.16 103.80 74.64 103.77
  Q 73.96 103.77 74.05 104.45
  L 75.59 115.43
  Q 75.69 116.15 76.43 116.15
  L 81.65 116.15
  Q 85.97 116.14 86.62 120.40
  Q 86.80 121.53 86.98 122.98
  Q 87.38 126.05 84.29 126.05
  L 42.48 126.04
  A 1.29 1.29 0.0 0 1 41.19 124.71
  C 41.24 122.75 40.83 120.53 41.81 118.78
  C 43.80 115.22 48.18 116.21 51.65 116.14
  Q 52.31 116.13 52.40 115.48
  L 53.94 104.45
  Q 54.03 103.82 53.39 103.81
  Q 42.51 103.75 31.51 103.79
  Q 30.56 103.79 30.00 102.53
  Q 30.67 101.25 31.75 101.25
  Q 77.69 101.27 120.35 101.25
  A 4.02 4.02 0.0 0 0 124.37 97.23
  L 124.37 33.43
  A 3.89 3.89 0.0 0 0 120.48 29.54
  L 107.64 29.52
  Q 104.99 28.49 105.76 33.94
  Q 105.84 34.46 106.36 34.46
  L 107.79 34.46
  L 118.16 34.49
  A 1.24 1.24 0.0 0 1 119.40 35.73
  L 119.39 95.19
  A 1.10 1.10 0.0 0 1 118.30 96.29
  Q 107.28 96.36 96.01 96.29
  Q 95.39 96.29 95.07 95.98
  Q 94.68 95.61 94.54 95.04
  Q 94.96 93.77 96.25 93.77
  Q 106.40 93.77 116.57 93.79
  Q 116.92 93.79 116.92 93.44
  L 116.92 37.52
  Q 116.92 37.05 116.44 37.05
  L 107.98 37.03
  L 106.29 36.95
  Q 105.74 36.93 105.70 37.48
  C 105.21 44.68 100.25 48.67 93.32 48.64
  Q 63.39 48.52 34.97 48.62
  Q 23.55 48.66 22.19 37.35
  Q 22.13 36.87 21.64 36.91
  L 20.06 37.03
  L 11.56 37.08
  Q 11.10 37.08 11.10 37.54
  L 11.10 93.45
  A 0.34 0.33 0.0 0 0 11.44 93.78
  Q 48.63 93.77 85.75 93.84
  Q 87.01 93.84 87.12 95.00
  Q 87.07 96.31 86.00 96.31
  Q 48.25 96.32 9.74 96.32
  Q 8.88 96.31 8.74 95.47
  Q 8.64 94.87 8.64 94.29
  Q 8.55 64.99 8.62 35.45
  A 0.95 0.94 -0.3 0 1 9.56 34.51
  L 20.15 34.43
  Q 23.01 35.59 22.27 29.98
  Q 22.20 29.46 21.67 29.48
  L 20.15 29.52
  L 7.60 29.53
  A 3.96 3.96 0.0 0 0 3.64 33.49
  L 3.64 97.19
  A 4.06 4.06 0.0 0 0 7.69 101.25
  Q 14.14 101.28 21.14 101.24
  C 22.03 101.24 22.70 101.86 23.18 102.54
  L 22.34 103.37
  Q 21.93 103.78 21.36 103.78
  Q 15.66 103.76 9.01 103.82
  C 4.42 103.87 1.13 101.51 1.13 96.75
  Q 1.14 67.96 1.13 34.00
  C 1.13 29.52 4.24 26.87 8.60 26.95
  Q 15.77 27.08 21.71 26.98
  Q 22.19 26.97 22.21 26.49
  Q 22.38 21.98 22.20 17.28
  C 21.96 11.02 22.98 5.64 28.92 3.00
  Q 31.21 1.97 36.38 1.97
  Q 56.32 1.95 76.25 1.96
  Q 77.86 1.96 78.50 3.20
  Z
  M 56.19 107.06
  L 55.00 115.57
  Q 54.92 116.14 55.49 116.14
  L 72.50 116.15
  Q 73.08 116.15 73.00 115.58
  L 71.79 106.99
  L 71.49 104.37
  Q 71.42 103.78 70.82 103.78
  L 57.25 103.78
  Q 56.75 103.78 56.59 104.25
  Q 56.18 105.49 56.19 107.06
  Z
  M 83.39 123.52
  A 1.14 1.14 0.0 0 0 84.50 122.10
  L 83.86 119.55
  A 1.14 1.14 0.0 0 0 82.75 118.69
  L 45.25 118.69
  A 1.14 1.14 0.0 0 0 44.14 119.56
  L 43.52 122.11
  A 1.14 1.14 0.0 0 0 44.63 123.52
  L 83.39 123.52
  Z"
/>
<path fill="#000000" d="
  M 83.46 3.18
  Q 83.04 3.97 82.46 4.32
  Q 82.00 4.60 81.56 4.30
  Q 81.02 3.95 80.72 3.24
  Q 81.05 2.06 82.00 2.09
  Q 82.96 2.12 83.46 3.18
  Z"
/>
<path fill="#efefef" d="
  M 78.50 3.20
  L 80.72 3.24
  Q 81.02 3.95 81.56 4.30
  Q 82.00 4.60 82.46 4.32
  Q 83.04 3.97 83.46 3.18
  L 85.58 3.20
  Q 85.82 3.71 86.24 4.11
  Q 86.57 4.43 87.02 4.45
  Q 90.03 4.58 92.89 4.44
  C 99.37 4.12 103.42 8.10 103.33 14.57
  Q 103.18 25.16 103.30 36.10
  C 103.37 42.17 99.83 46.19 93.45 46.17
  Q 63.84 46.07 34.76 46.18
  C 28.63 46.20 24.60 42.56 24.69 36.27
  Q 24.86 25.61 24.69 14.91
  C 24.60 9.31 27.52 4.49 33.64 4.49
  Q 54.84 4.48 76.97 4.49
  A 1.07 1.04 -70.1 0 0 77.79 4.09
  L 78.50 3.20
  Z
  M 43.09 21.79
  Q 46.34 18.25 44.39 13.70
  C 42.81 10.04 37.46 9.66 33.92 10.03
  Q 32.83 10.14 32.83 11.24
  L 32.83 34.14
  Q 32.83 35.44 34.13 35.45
  Q 36.29 35.45 38.52 35.53
  C 46.20 35.81 49.70 26.81 43.18 22.53
  Q 42.70 22.22 43.09 21.79
  Z
  M 68.97 20.75
  L 78.02 20.74
  A 1.12 1.10 20.2 0 0 78.86 20.36
  Q 79.47 19.68 79.14 18.85
  A 0.97 0.96 79.3 0 0 78.24 18.23
  L 69.01 18.22
  Q 68.30 18.22 68.29 17.51
  L 68.28 10.94
  Q 68.28 10.11 67.44 10.05
  L 67.06 10.03
  Q 65.79 9.94 65.80 11.21
  Q 65.84 19.45 65.76 28.04
  C 65.68 37.45 78.26 38.13 79.31 28.86
  A 1.23 1.22 30.6 0 0 79.09 28.02
  Q 78.20 26.73 77.16 27.59
  A 1.01 0.99 71.6 0 0 76.81 28.31
  C 76.56 34.65 68.24 34.23 68.28 28.59
  Q 68.31 25.01 68.27 21.45
  Q 68.27 20.75 68.97 20.75
  Z
  M 85.77 26.26
  L 94.00 26.25
  A 1.17 1.17 0.0 0 0 95.16 25.25
  C 95.79 21.04 93.86 17.30 89.38 17.05
  Q 85.67 16.85 83.71 19.69
  C 82.09 22.04 82.78 25.80 82.66 28.58
  C 82.37 35.15 90.48 37.99 94.10 32.88
  A 4.36 3.80 79.7 0 0 94.47 32.26
  Q 96.24 28.68 94.29 28.05
  Q 93.02 27.64 92.80 28.95
  C 92.59 30.26 92.54 31.31 91.34 32.13
  C 89.34 33.52 85.98 32.98 85.39 30.38
  Q 85.03 28.79 85.15 26.85
  Q 85.18 26.26 85.77 26.26
  Z
  M 59.30 34.41
  C 59.16 36.15 59.62 38.24 58.00 39.41
  Q 56.30 40.63 54.28 39.49
  Q 53.52 39.07 53.32 38.22
  L 53.04 37.01
  Q 52.71 35.60 51.28 35.88
  Q 50.99 35.93 50.87 36.16
  Q 50.27 37.26 50.69 38.47
  C 52.90 44.80 61.69 43.60 61.71 36.43
  Q 61.74 29.31 61.72 21.95
  Q 61.72 20.76 60.53 20.67
  Q 60.32 20.65 60.12 20.70
  Q 59.23 20.93 59.23 21.86
  L 59.23 28.77
  Q 59.23 31.87 56.13 32.04
  Q 55.10 32.09 54.14 31.48
  A 2.39 2.39 0.0 0 1 53.06 29.50
  L 53.00 21.66
  A 0.93 0.92 2.7 0 0 52.16 20.74
  L 51.82 20.70
  Q 50.46 20.57 50.51 21.93
  C 50.62 25.01 49.81 29.68 51.59 32.17
  Q 54.15 35.76 58.71 33.98
  Q 59.35 33.72 59.30 34.41
  Z"
/>
<path fill="#000000" d="
  M 43.18 22.53
  C 49.70 26.81 46.20 35.81 38.52 35.53
  Q 36.29 35.45 34.13 35.45
  Q 32.83 35.44 32.83 34.14
  L 32.83 11.24
  Q 32.83 10.14 33.92 10.03
  C 37.46 9.66 42.81 10.04 44.39 13.70
  Q 46.34 18.25 43.09 21.79
  Q 42.70 22.22 43.18 22.53
  Z
  M 35.35 12.79
  L 35.31 21.13
  A 0.33 0.33 0.0 0 0 35.64 21.46
  L 37.90 21.47
  A 4.65 4.29 0.3 0 0 42.57 17.21
  L 42.57 16.79
  A 4.65 4.29 0.3 0 0 37.94 12.47
  L 35.68 12.46
  A 0.33 0.33 0.0 0 0 35.35 12.79
  Z
  M 35.33 24.36
  L 35.31 32.62
  A 0.38 0.38 0.0 0 0 35.69 33.00
  L 39.60 33.01
  A 4.37 4.30 0.1 0 0 43.98 28.72
  L 43.98 28.30
  A 4.37 4.30 0.1 0 0 39.62 23.99
  L 35.71 23.98
  A 0.38 0.38 0.0 0 0 35.33 24.36
  Z"
/>
<path fill="#000000" d="
  M 68.27 21.45
  Q 68.31 25.01 68.28 28.59
  C 68.24 34.23 76.56 34.65 76.81 28.31
  A 1.01 0.99 71.6 0 1 77.16 27.59
  Q 78.20 26.73 79.09 28.02
  A 1.23 1.22 30.6 0 1 79.31 28.86
  C 78.26 38.13 65.68 37.45 65.76 28.04
  Q 65.84 19.45 65.80 11.21
  Q 65.79 9.94 67.06 10.03
  L 67.44 10.05
  Q 68.28 10.11 68.28 10.94
  L 68.29 17.51
  Q 68.30 18.22 69.01 18.22
  L 78.24 18.23
  A 0.97 0.96 79.3 0 1 79.14 18.85
  Q 79.47 19.68 78.86 20.36
  A 1.12 1.10 20.2 0 1 78.02 20.74
  L 68.97 20.75
  Q 68.27 20.75 68.27 21.45
  Z"
/>
<path fill="#efefef" d="
  M 35.35 12.79
  A 0.33 0.33 0.0 0 1 35.68 12.46
  L 37.94 12.47
  A 4.65 4.29 0.3 0 1 42.57 16.79
  L 42.57 17.21
  A 4.65 4.29 0.3 0 1 37.90 21.47
  L 35.64 21.46
  A 0.33 0.33 0.0 0 1 35.31 21.13
  L 35.35 12.79
  Z"
/>
<path fill="#000000" d="
  M 85.15 26.85
  Q 85.03 28.79 85.39 30.38
  C 85.98 32.98 89.34 33.52 91.34 32.13
  C 92.54 31.31 92.59 30.26 92.80 28.95
  Q 93.02 27.64 94.29 28.05
  Q 96.24 28.68 94.47 32.26
  A 4.36 3.80 79.7 0 1 94.10 32.88
  C 90.48 37.99 82.37 35.15 82.66 28.58
  C 82.78 25.80 82.09 22.04 83.71 19.69
  Q 85.67 16.85 89.38 17.05
  C 93.86 17.30 95.79 21.04 95.16 25.25
  A 1.17 1.17 0.0 0 1 94.00 26.25
  L 85.77 26.26
  Q 85.18 26.26 85.15 26.85
  Z
  M 85.57 23.75
  L 92.33 23.73
  A 0.43 0.43 0.0 0 0 92.76 23.30
  L 92.76 23.16
  A 3.68 3.63 -0.1 0 0 89.08 19.54
  L 88.82 19.54
  A 3.68 3.63 -0.1 0 0 85.14 23.18
  L 85.14 23.32
  A 0.43 0.43 0.0 0 0 85.57 23.75
  Z"
/>
<path fill="#efefef" d="
  M 85.57 23.75
  A 0.43 0.43 0.0 0 1 85.14 23.32
  L 85.14 23.18
  A 3.68 3.63 -0.1 0 1 88.82 19.54
  L 89.08 19.54
  A 3.68 3.63 -0.1 0 1 92.76 23.16
  L 92.76 23.30
  A 0.43 0.43 0.0 0 1 92.33 23.73
  L 85.57 23.75
  Z"
/>
<path fill="#000000" d="
  M 58.71 33.98
  Q 54.15 35.76 51.59 32.17
  C 49.81 29.68 50.62 25.01 50.51 21.93
  Q 50.46 20.57 51.82 20.70
  L 52.16 20.74
  A 0.93 0.92 2.7 0 1 53.00 21.66
  L 53.06 29.50
  A 2.39 2.39 0.0 0 0 54.14 31.48
  Q 55.10 32.09 56.13 32.04
  Q 59.23 31.87 59.23 28.77
  L 59.23 21.86
  Q 59.23 20.93 60.12 20.70
  Q 60.32 20.65 60.53 20.67
  Q 61.72 20.76 61.72 21.95
  Q 61.74 29.31 61.71 36.43
  C 61.69 43.60 52.90 44.80 50.69 38.47
  Q 50.27 37.26 50.87 36.16
  Q 50.99 35.93 51.28 35.88
  Q 52.71 35.60 53.04 37.01
  L 53.32 38.22
  Q 53.52 39.07 54.28 39.49
  Q 56.30 40.63 58.00 39.41
  C 59.62 38.24 59.16 36.15 59.30 34.41
  Q 59.35 33.72 58.71 33.98
  Z"
/>
<path fill="#efefef" d="
  M 35.33 24.36
  A 0.38 0.38 0.0 0 1 35.71 23.98
  L 39.62 23.99
  A 4.37 4.30 0.1 0 1 43.98 28.30
  L 43.98 28.72
  A 4.37 4.30 0.1 0 1 39.60 33.01
  L 35.69 33.00
  A 0.38 0.38 0.0 0 1 35.31 32.62
  L 35.33 24.36
  Z"
/>
<path fill="#72c2e9" d="
  M 20.15 29.52
  L 20.15 34.43
  L 9.56 34.51
  A 0.95 0.94 -0.3 0 0 8.62 35.45
  Q 8.55 64.99 8.64 94.29
  Q 8.64 94.87 8.74 95.47
  Q 8.88 96.31 9.74 96.32
  Q 48.25 96.32 86.00 96.31
  Q 87.07 96.31 87.12 95.00
  Q 88.20 94.72 89.55 95.08
  Q 90.23 96.91 91.69 95.92
  Q 92.13 95.62 92.12 94.98
  L 94.54 95.04
  Q 94.68 95.61 95.07 95.98
  Q 95.39 96.29 96.01 96.29
  Q 107.28 96.36 118.30 96.29
  A 1.10 1.10 0.0 0 0 119.39 95.19
  L 119.40 35.73
  A 1.24 1.24 0.0 0 0 118.16 34.49
  L 107.79 34.46
  Q 108.19 31.95 107.64 29.52
  L 120.48 29.54
  A 3.89 3.89 0.0 0 1 124.37 33.43
  L 124.37 97.23
  A 4.02 4.02 0.0 0 1 120.35 101.25
  Q 77.69 101.27 31.75 101.25
  Q 30.67 101.25 30.00 102.53
  L 28.14 102.58
  Q 27.60 101.79 26.94 101.43
  Q 26.49 101.18 26.04 101.44
  Q 25.44 101.79 25.01 102.52
  L 23.18 102.54
  C 22.70 101.86 22.03 101.24 21.14 101.24
  Q 14.14 101.28 7.69 101.25
  A 4.06 4.06 0.0 0 1 3.64 97.19
  L 3.64 33.49
  A 3.96 3.96 0.0 0 1 7.60 29.53
  L 20.15 29.52
  Z"
/>
<path fill="#48a6c8" d="
  M 20.15 29.52
  L 21.67 29.48
  Q 22.20 29.46 22.27 29.98
  Q 23.01 35.59 20.15 34.43
  L 20.15 29.52
  Z"
/>
<path fill="#48a6c8" d="
  M 107.64 29.52
  Q 108.19 31.95 107.79 34.46
  L 106.36 34.46
  Q 105.84 34.46 105.76 33.94
  Q 104.99 28.49 107.64 29.52
  Z"
/>
<path fill="#e8a61d" d="
  M 107.98 37.03
  Q 106.72 50.82 93.50 50.83
  Q 66.55 50.84 39.61 50.81
  Q 30.42 50.80 27.13 49.20
  Q 20.60 46.02 20.06 37.03
  L 21.64 36.91
  Q 22.13 36.87 22.19 37.35
  Q 23.55 48.66 34.97 48.62
  Q 63.39 48.52 93.32 48.64
  C 100.25 48.67 105.21 44.68 105.70 37.48
  Q 105.74 36.93 106.29 36.95
  L 107.98 37.03
  Z"
/>
<path fill="#f0c020" d="
  M 20.06 37.03
  Q 20.60 46.02 27.13 49.20
  Q 30.42 50.80 39.61 50.81
  Q 66.55 50.84 93.50 50.83
  Q 106.72 50.82 107.98 37.03
  L 116.44 37.05
  Q 116.92 37.05 116.92 37.52
  L 116.92 93.44
  Q 116.92 93.79 116.57 93.79
  Q 106.40 93.77 96.25 93.77
  Q 94.96 93.77 94.54 95.04
  L 92.12 94.98
  Q 92.01 94.14 91.34 93.90
  Q 90.05 93.44 89.55 95.08
  Q 88.20 94.72 87.12 95.00
  Q 87.01 93.84 85.75 93.84
  Q 48.63 93.77 11.44 93.78
  A 0.34 0.33 0.0 0 1 11.10 93.45
  L 11.10 37.54
  Q 11.10 37.08 11.56 37.08
  L 20.06 37.03
  Z
  M 110.68 88.29
  L 21.64 88.30
  A 1.13 1.09 23.8 0 0 20.91 88.57
  Q 19.50 89.75 21.06 90.64
  A 0.91 0.90 59.5 0 0 21.51 90.76
  L 112.69 90.78
  A 1.22 1.21 -90.0 0 0 113.90 89.56
  L 113.87 40.97
  A 0.90 0.89 -85.0 0 0 113.14 40.09
  L 112.80 40.03
  Q 111.39 39.77 111.39 41.20
  L 111.39 87.57
  Q 111.39 88.29 110.68 88.29
  Z
  M 35.07 57.61
  A 4.45 4.45 0.0 0 0 30.62 53.16
  L 29.92 53.16
  A 4.45 4.45 0.0 0 0 25.47 57.61
  L 25.47 61.77
  A 4.45 4.45 0.0 0 0 29.92 66.22
  L 30.62 66.22
  A 4.45 4.45 0.0 0 0 35.07 61.77
  L 35.07 57.61
  Z
  M 42.45 57.07
  L 42.45 63.13
  Q 42.45 63.72 41.87 63.74
  L 40.04 63.82
  A 1.19 1.19 0.0 0 0 38.90 65.08
  Q 38.91 65.25 38.93 65.40
  Q 39.06 66.26 39.93 66.28
  Q 43.81 66.35 47.31 66.31
  Q 47.86 66.30 48.18 65.86
  Q 48.46 65.48 48.47 65.00
  A 1.09 1.08 11.5 0 0 47.79 63.98
  Q 46.79 63.58 45.63 63.81
  Q 44.95 63.95 44.95 63.26
  L 44.93 54.21
  A 1.09 1.09 0.0 0 0 43.53 53.17
  Q 41.21 53.86 39.40 55.24
  Q 38.82 55.68 39.11 56.34
  Q 39.22 56.60 39.41 56.80
  Q 40.09 57.55 40.99 57.09
  L 41.81 56.68
  Q 42.45 56.35 42.45 57.07
  Z
  M 69.25 56.98
  L 69.25 63.24
  Q 69.25 63.73 68.76 63.75
  L 66.82 63.82
  Q 65.73 63.86 65.75 64.96
  L 65.76 65.48
  Q 65.78 66.25 66.56 66.28
  Q 70.08 66.38 73.96 66.28
  Q 74.66 66.26 74.97 65.93
  Q 75.35 65.54 75.29 64.87
  A 1.14 1.14 0.0 0 0 74.44 63.88
  Q 73.48 63.63 72.52 63.85
  A 0.62 0.62 0.0 0 1 71.76 63.25
  L 71.73 54.12
  A 1.07 1.06 -10.6 0 0 70.28 53.13
  Q 68.46 53.85 66.59 54.89
  Q 66.12 55.15 65.97 55.66
  C 65.74 56.48 66.36 57.30 67.23 57.22
  Q 68.01 57.15 68.59 56.67
  Q 69.25 56.12 69.25 56.98
  Z
  M 96.06 56.98
  L 96.06 63.23
  Q 96.06 63.76 95.52 63.77
  L 93.66 63.82
  Q 93.00 63.83 92.70 64.41
  Q 92.21 65.34 92.96 66.04
  Q 93.24 66.30 93.62 66.30
  L 101.08 66.32
  A 0.97 0.96 -87.7 0 0 102.04 65.43
  L 102.06 65.08
  Q 102.16 63.75 100.83 63.77
  L 99.17 63.78
  Q 98.55 63.79 98.55 63.17
  L 98.53 54.17
  A 1.14 1.14 0.0 0 0 96.88 53.15
  L 93.28 54.95
  A 1.18 1.17 -51.3 0 0 93.52 57.14
  Q 94.57 57.40 95.39 56.68
  Q 96.06 56.10 96.06 56.98
  Z
  M 61.9136 57.6584
  A 4.47 4.47 0.0 0 0 57.4514 53.1806
  L 56.7514 53.1794
  A 4.47 4.47 0.0 0 0 52.2736 57.6416
  L 52.2664 61.7416
  A 4.47 4.47 0.0 0 0 56.7286 66.2194
  L 57.4286 66.2206
  A 4.47 4.47 0.0 0 0 61.9064 61.7584
  L 61.9136 57.6584
  Z
  M 88.7164 57.6316
  A 4.46 4.46 0.0 0 0 84.2486 53.1794
  L 83.5286 53.1806
  A 4.46 4.46 0.0 0 0 79.0764 57.6484
  L 79.0836 61.7684
  A 4.46 4.46 0.0 0 0 83.5514 66.2206
  L 84.2714 66.2194
  A 4.46 4.46 0.0 0 0 88.7236 61.7516
  L 88.7164 57.6316
  Z
  M 29.01 76.02
  L 29.01 82.31
  Q 29.01 82.88 28.44 82.88
  L 26.58 82.91
  Q 25.51 82.92 25.52 83.99
  Q 25.52 84.18 25.53 84.38
  Q 25.54 85.40 26.56 85.40
  L 33.96 85.41
  Q 35.09 85.41 35.03 84.29
  L 35.00 83.80
  Q 34.95 82.89 34.05 82.88
  L 32.06 82.85
  Q 31.51 82.85 31.51 82.29
  L 31.50 73.19
  A 1.11 1.11 0.0 0 0 29.90 72.20
  L 26.33 73.97
  Q 25.86 74.20 25.74 74.71
  Q 25.54 75.60 26.26 76.09
  Q 26.69 76.39 27.20 76.27
  Q 27.83 76.12 28.34 75.70
  Q 29.01 75.14 29.01 76.02
  Z
  M 48.4647 76.6613
  A 4.48 4.48 0.0 0 0 43.9303 72.2363
  L 43.2504 72.2446
  A 4.48 4.48 0.0 0 0 38.8254 76.7790
  L 38.8753 80.8587
  A 4.48 4.48 0.0 0 0 43.4097 85.2837
  L 44.0896 85.2754
  A 4.48 4.48 0.0 0 0 48.5146 80.7410
  L 48.4647 76.6613
  Z
  M 55.82 76.21
  L 55.81 82.25
  Q 55.81 82.82 55.25 82.85
  L 53.42 82.92
  Q 52.66 82.95 52.38 83.65
  Q 52.15 84.25 52.48 84.90
  A 0.93 0.93 0.0 0 0 53.31 85.41
  L 60.92 85.40
  A 0.91 0.90 -87.2 0 0 61.82 84.58
  L 61.86 84.17
  Q 61.99 82.87 60.67 82.87
  L 58.84 82.87
  A 0.53 0.52 -90.0 0 1 58.32 82.34
  L 58.30 73.28
  A 1.14 1.14 0.0 0 0 56.71 72.24
  Q 54.84 73.05 53.22 73.97
  Q 52.05 74.63 52.75 75.82
  A 0.92 0.91 -15.5 0 0 53.56 76.27
  Q 54.38 76.26 55.07 75.81
  Q 55.82 75.30 55.82 76.21
  Z
  M 75.28 76.69
  A 4.45 4.45 0.0 0 0 70.83 72.24
  L 70.15 72.24
  A 4.45 4.45 0.0 0 0 65.70 76.69
  L 65.70 80.83
  A 4.45 4.45 0.0 0 0 70.15 85.28
  L 70.83 85.28
  A 4.45 4.45 0.0 0 0 75.28 80.83
  L 75.28 76.69
  Z
  M 82.66 76.21
  L 82.69 82.29
  A 0.52 0.51 88.2 0 1 82.21 82.81
  L 80.02 82.95
  A 0.93 0.92 -84.9 0 0 79.18 83.66
  Q 79.09 84.03 79.14 84.40
  Q 79.29 85.40 80.31 85.41
  L 87.47 85.42
  A 1.26 1.26 0.0 0 0 88.61 84.70
  Q 89.17 83.52 87.59 82.93
  A 2.22 2.22 0.0 0 0 86.17 82.87
  Q 85.13 83.19 85.14 82.22
  Q 85.21 77.89 85.14 73.26
  A 1.18 1.18 0.0 0 0 83.43 72.23
  L 79.80 74.06
  Q 78.88 74.52 79.37 75.42
  L 79.54 75.73
  A 1.13 1.12 63.6 0 0 80.99 76.22
  L 81.97 75.77
  Q 82.66 75.45 82.66 76.21
  Z
  M 102.1192 76.6848
  A 4.47 4.47 0.0 0 0 97.6259 72.2383
  L 96.9459 72.2419
  A 4.47 4.47 0.0 0 0 92.4993 76.7352
  L 92.5208 80.8352
  A 4.47 4.47 0.0 0 0 97.0141 85.2817
  L 97.6941 85.2781
  A 4.47 4.47 0.0 0 0 102.1407 80.7848
  L 102.1192 76.6848
  Z
  M 17.7691 89.6172
  A 1.82 1.27 1.8 0 0 15.9899 88.2906
  A 1.82 1.27 1.8 0 0 14.1309 89.5028
  A 1.82 1.27 1.8 0 0 15.9101 90.8294
  A 1.82 1.27 1.8 0 0 17.7691 89.6172
  Z"
/>
<path fill="#f9e5ad" d="
  M 111.39 87.57
  L 111.39 41.20
  Q 111.39 39.77 112.80 40.03
  L 113.14 40.09
  A 0.90 0.89 -85.0 0 1 113.87 40.97
  L 113.90 89.56
  A 1.22 1.21 90.0 0 1 112.69 90.78
  L 21.51 90.76
  A 0.91 0.90 59.5 0 1 21.06 90.64
  Q 19.50 89.75 20.91 88.57
  A 1.13 1.09 23.8 0 1 21.64 88.30
  L 110.68 88.29
  Q 111.39 88.29 111.39 87.57
  Z"
/>
<path fill="#000000" d="
  M 35.07 61.77
  A 4.45 4.45 0.0 0 1 30.62 66.22
  L 29.92 66.22
  A 4.45 4.45 0.0 0 1 25.47 61.77
  L 25.47 57.61
  A 4.45 4.45 0.0 0 1 29.92 53.16
  L 30.62 53.16
  A 4.45 4.45 0.0 0 1 35.07 57.61
  L 35.07 61.77
  Z
  M 32.5963 57.8302
  A 2.17 2.17 0.0 0 0 30.4453 55.6414
  L 30.1653 55.6389
  A 2.17 2.17 0.0 0 0 27.9765 57.7899
  L 27.9437 61.5498
  A 2.17 2.17 0.0 0 0 30.0947 63.7386
  L 30.3747 63.7411
  A 2.17 2.17 0.0 0 0 32.5635 61.5901
  L 32.5963 57.8302
  Z"
/>
<path fill="#000000" d="
  M 41.81 56.68
  L 40.99 57.09
  Q 40.09 57.55 39.41 56.80
  Q 39.22 56.60 39.11 56.34
  Q 38.82 55.68 39.40 55.24
  Q 41.21 53.86 43.53 53.17
  A 1.09 1.09 0.0 0 1 44.93 54.21
  L 44.95 63.26
  Q 44.95 63.95 45.63 63.81
  Q 46.79 63.58 47.79 63.98
  A 1.09 1.08 11.5 0 1 48.47 65.00
  Q 48.46 65.48 48.18 65.86
  Q 47.86 66.30 47.31 66.31
  Q 43.81 66.35 39.93 66.28
  Q 39.06 66.26 38.93 65.40
  Q 38.91 65.25 38.90 65.08
  A 1.19 1.19 0.0 0 1 40.04 63.82
  L 41.87 63.74
  Q 42.45 63.72 42.45 63.13
  L 42.45 57.07
  Q 42.45 56.35 41.81 56.68
  Z"
/>
<path fill="#000000" d="
  M 68.59 56.67
  Q 68.01 57.15 67.23 57.22
  C 66.36 57.30 65.74 56.48 65.97 55.66
  Q 66.12 55.15 66.59 54.89
  Q 68.46 53.85 70.28 53.13
  A 1.07 1.06 -10.6 0 1 71.73 54.12
  L 71.76 63.25
  A 0.62 0.62 0.0 0 0 72.52 63.85
  Q 73.48 63.63 74.44 63.88
  A 1.14 1.14 0.0 0 1 75.29 64.87
  Q 75.35 65.54 74.97 65.93
  Q 74.66 66.26 73.96 66.28
  Q 70.08 66.38 66.56 66.28
  Q 65.78 66.25 65.76 65.48
  L 65.75 64.96
  Q 65.73 63.86 66.82 63.82
  L 68.76 63.75
  Q 69.25 63.73 69.25 63.24
  L 69.25 56.98
  Q 69.25 56.12 68.59 56.67
  Z"
/>
<path fill="#000000" d="
  M 95.39 56.68
  Q 94.57 57.40 93.52 57.14
  A 1.18 1.17 -51.3 0 1 93.28 54.95
  L 96.88 53.15
  A 1.14 1.14 0.0 0 1 98.53 54.17
  L 98.55 63.17
  Q 98.55 63.79 99.17 63.78
  L 100.83 63.77
  Q 102.16 63.75 102.06 65.08
  L 102.04 65.43
  A 0.97 0.96 -87.7 0 1 101.08 66.32
  L 93.62 66.30
  Q 93.24 66.30 92.96 66.04
  Q 92.21 65.34 92.70 64.41
  Q 93.00 63.83 93.66 63.82
  L 95.52 63.77
  Q 96.06 63.76 96.06 63.23
  L 96.06 56.98
  Q 96.06 56.10 95.39 56.68
  Z"
/>
<path fill="#000000" d="
  M 61.9064 61.7584
  A 4.47 4.47 0.0 0 1 57.4286 66.2206
  L 56.7286 66.2194
  A 4.47 4.47 0.0 0 1 52.2664 61.7416
  L 52.2736 57.6416
  A 4.47 4.47 0.0 0 1 56.7514 53.1794
  L 57.4514 53.1806
  A 4.47 4.47 0.0 0 1 61.9136 57.6584
  L 61.9064 61.7584
  Z
  M 59.42 57.82
  A 2.19 2.19 0.0 0 0 57.23 55.63
  L 56.95 55.63
  A 2.19 2.19 0.0 0 0 54.76 57.82
  L 54.76 61.54
  A 2.19 2.19 0.0 0 0 56.95 63.73
  L 57.23 63.73
  A 2.19 2.19 0.0 0 0 59.42 61.54
  L 59.42 57.82
  Z"
/>
<path fill="#000000" d="
  M 88.7236 61.7516
  A 4.46 4.46 0.0 0 1 84.2714 66.2194
  L 83.5514 66.2206
  A 4.46 4.46 0.0 0 1 79.0836 61.7684
  L 79.0764 57.6484
  A 4.46 4.46 0.0 0 1 83.5286 53.1806
  L 84.2486 53.1794
  A 4.46 4.46 0.0 0 1 88.7164 57.6316
  L 88.7236 61.7516
  Z
  M 86.23 57.85
  A 2.20 2.20 0.0 0 0 84.03 55.65
  L 83.77 55.65
  A 2.20 2.20 0.0 0 0 81.57 57.85
  L 81.57 61.53
  A 2.20 2.20 0.0 0 0 83.77 63.73
  L 84.03 63.73
  A 2.20 2.20 0.0 0 0 86.23 61.53
  L 86.23 57.85
  Z"
/>
<rect fill="#f0c020" x="-2.31" y="-4.05" transform="translate(30.27,59.69) rotate(0.5)" width="4.62" height="8.10" rx="2.17"/>
<rect fill="#f0c020" x="54.76" y="55.63" width="4.66" height="8.10" rx="2.19"/>
<rect fill="#f0c020" x="81.57" y="55.65" width="4.66" height="8.08" rx="2.20"/>
<path fill="#000000" d="
  M 28.34 75.70
  Q 27.83 76.12 27.20 76.27
  Q 26.69 76.39 26.26 76.09
  Q 25.54 75.60 25.74 74.71
  Q 25.86 74.20 26.33 73.97
  L 29.90 72.20
  A 1.11 1.11 0.0 0 1 31.50 73.19
  L 31.51 82.29
  Q 31.51 82.85 32.06 82.85
  L 34.05 82.88
  Q 34.95 82.89 35.00 83.80
  L 35.03 84.29
  Q 35.09 85.41 33.96 85.41
  L 26.56 85.40
  Q 25.54 85.40 25.53 84.38
  Q 25.52 84.18 25.52 83.99
  Q 25.51 82.92 26.58 82.91
  L 28.44 82.88
  Q 29.01 82.88 29.01 82.31
  L 29.01 76.02
  Q 29.01 75.14 28.34 75.70
  Z"
/>
<path fill="#000000" d="
  M 48.5146 80.7410
  A 4.48 4.48 0.0 0 1 44.0896 85.2754
  L 43.4097 85.2837
  A 4.48 4.48 0.0 0 1 38.8753 80.8587
  L 38.8254 76.7790
  A 4.48 4.48 0.0 0 1 43.2504 72.2446
  L 43.9303 72.2363
  A 4.48 4.48 0.0 0 1 48.4647 76.6613
  L 48.5146 80.7410
  Z
  M 46.00 76.91
  A 2.18 2.18 0.0 0 0 43.82 74.73
  L 43.52 74.73
  A 2.18 2.18 0.0 0 0 41.34 76.91
  L 41.34 80.61
  A 2.18 2.18 0.0 0 0 43.52 82.79
  L 43.82 82.79
  A 2.18 2.18 0.0 0 0 46.00 80.61
  L 46.00 76.91
  Z"
/>
<path fill="#000000" d="
  M 55.07 75.81
  Q 54.38 76.26 53.56 76.27
  A 0.92 0.91 -15.5 0 1 52.75 75.82
  Q 52.05 74.63 53.22 73.97
  Q 54.84 73.05 56.71 72.24
  A 1.14 1.14 0.0 0 1 58.30 73.28
  L 58.32 82.34
  A 0.53 0.52 90.0 0 0 58.84 82.87
  L 60.67 82.87
  Q 61.99 82.87 61.86 84.17
  L 61.82 84.58
  A 0.91 0.90 -87.2 0 1 60.92 85.40
  L 53.31 85.41
  A 0.93 0.93 0.0 0 1 52.48 84.90
  Q 52.15 84.25 52.38 83.65
  Q 52.66 82.95 53.42 82.92
  L 55.25 82.85
  Q 55.81 82.82 55.81 82.25
  L 55.82 76.21
  Q 55.82 75.30 55.07 75.81
  Z"
/>
<path fill="#000000" d="
  M 75.28 80.83
  A 4.45 4.45 0.0 0 1 70.83 85.28
  L 70.15 85.28
  A 4.45 4.45 0.0 0 1 65.70 80.83
  L 65.70 76.69
  A 4.45 4.45 0.0 0 1 70.15 72.24
  L 70.83 72.24
  A 4.45 4.45 0.0 0 1 75.28 76.69
  L 75.28 80.83
  Z
  M 72.80 76.84
  A 2.11 2.11 0.0 0 0 70.69 74.73
  L 70.29 74.73
  A 2.11 2.11 0.0 0 0 68.18 76.84
  L 68.18 80.68
  A 2.11 2.11 0.0 0 0 70.29 82.79
  L 70.69 82.79
  A 2.11 2.11 0.0 0 0 72.80 80.68
  L 72.80 76.84
  Z"
/>
<path fill="#000000" d="
  M 81.97 75.77
  L 80.99 76.22
  A 1.13 1.12 63.6 0 1 79.54 75.73
  L 79.37 75.42
  Q 78.88 74.52 79.80 74.06
  L 83.43 72.23
  A 1.18 1.18 0.0 0 1 85.14 73.26
  Q 85.21 77.89 85.14 82.22
  Q 85.13 83.19 86.17 82.87
  A 2.22 2.22 0.0 0 1 87.59 82.93
  Q 89.17 83.52 88.61 84.70
  A 1.26 1.26 0.0 0 1 87.47 85.42
  L 80.31 85.41
  Q 79.29 85.40 79.14 84.40
  Q 79.09 84.03 79.18 83.66
  A 0.93 0.92 -84.9 0 1 80.02 82.95
  L 82.21 82.81
  A 0.52 0.51 88.2 0 0 82.69 82.29
  L 82.66 76.21
  Q 82.66 75.45 81.97 75.77
  Z"
/>
<path fill="#000000" d="
  M 102.1407 80.7848
  A 4.47 4.47 0.0 0 1 97.6941 85.2781
  L 97.0141 85.2817
  A 4.47 4.47 0.0 0 1 92.5208 80.8352
  L 92.4993 76.7352
  A 4.47 4.47 0.0 0 1 96.9459 72.2419
  L 97.6259 72.2383
  A 4.47 4.47 0.0 0 1 102.1192 76.6848
  L 102.1407 80.7848
  Z
  M 99.6532 76.9041
  A 2.18 2.18 0.0 0 0 97.4770 74.7203
  L 97.1770 74.7197
  A 2.18 2.18 0.0 0 0 94.9932 76.8959
  L 94.9868 80.5959
  A 2.18 2.18 0.0 0 0 97.1630 82.7797
  L 97.4630 82.7803
  A 2.18 2.18 0.0 0 0 99.6468 80.6041
  L 99.6532 76.9041
  Z"
/>
<rect fill="#f0c020" x="41.34" y="74.73" width="4.66" height="8.06" rx="2.18"/>
<rect fill="#f0c020" x="68.18" y="74.73" width="4.62" height="8.06" rx="2.11"/>
<rect fill="#f0c020" x="-2.33" y="-4.03" transform="translate(97.32,78.75) rotate(0.1)" width="4.66" height="8.06" rx="2.18"/>
<ellipse fill="#f9e5ad" cx="0.00" cy="0.00" transform="translate(15.95,89.56) rotate(1.8)" rx="1.82" ry="1.27"/>
<path fill="#000000" d="
  M 92.12 94.98
  Q 92.13 95.62 91.69 95.92
  Q 90.23 96.91 89.55 95.08
  Q 90.05 93.44 91.34 93.90
  Q 92.01 94.14 92.12 94.98
  Z"
/>
<path fill="#000000" d="
  M 28.14 102.58
  L 27.33 103.38
  Q 26.97 103.74 26.47 103.70
  Q 25.57 103.63 25.01 102.52
  Q 25.44 101.79 26.04 101.44
  Q 26.49 101.18 26.94 101.43
  Q 27.60 101.79 28.14 102.58
  Z"
/>
<path fill="#48a6c8" d="
  M 71.79 106.99
  L 56.19 107.06
  Q 56.18 105.49 56.59 104.25
  Q 56.75 103.78 57.25 103.78
  L 70.82 103.78
  Q 71.42 103.78 71.49 104.37
  L 71.79 106.99
  Z"
/>
<path fill="#72c2e9" d="
  M 71.79 106.99
  L 73.00 115.58
  Q 73.08 116.15 72.50 116.15
  L 55.49 116.14
  Q 54.92 116.14 55.00 115.57
  L 56.19 107.06
  L 71.79 106.99
  Z"
/>
<path fill="#72c2e9" d="
  M 83.39 123.52
  L 44.63 123.52
  A 1.14 1.14 0.0 0 1 43.52 122.11
  L 44.14 119.56
  A 1.14 1.14 0.0 0 1 45.25 118.69
  L 82.75 118.69
  A 1.14 1.14 0.0 0 1 83.86 119.55
  L 84.50 122.10
  A 1.14 1.14 0.0 0 1 83.39 123.52
  Z"
/>
</svg>
