<?xml version="1.0" encoding="UTF-8" standalone="no"?>
<!DOCTYPE svg PUBLIC "-//W3C//DTD SVG 1.1//EN" "http://www.w3.org/Graphics/SVG/1.1/DTD/svg11.dtd">
<svg xmlns="http://www.w3.org/2000/svg" version="1.1" viewBox="0.00 0.00 128.00 128.00">
<g stroke-width="2.00" fill="none" stroke-linecap="butt">
<path stroke="#b795a0" vector-effect="non-scaling-stroke" d="
  M 69.78 34.94
  L 69.81 38.91
  Q 69.81 39.54 70.44 39.53
  L 74.29 39.50
  Q 75.13 39.49 74.59 40.14
  L 59.22 58.65
  Q 58.83 59.12 58.44 58.65
  L 42.84 39.90
  A 0.23 0.23 0.0 0 1 43.01 39.52
  L 47.27 39.51
  Q 47.81 39.51 47.81 38.98
  L 47.82 34.98"
/>
<path stroke="#4eafe9" vector-effect="non-scaling-stroke" d="
  M 92.92 50.26
  L 91.55 65.39"
/>
<path stroke="#63d7e8" vector-effect="non-scaling-stroke" d="
  M 91.55 65.39
  L 53.24 65.27
  A 1.65 1.64 2.7 0 1 51.61 63.48
  L 52.19 57.16
  A 1.53 1.52 2.7 0 0 50.67 55.49
  L 21.90 55.48"
/>
<path stroke="#82988d" vector-effect="non-scaling-stroke" d="
  M 107.03 120.25
  L 99.69 68.43
  A 1.56 1.55 -3.4 0 0 98.17 67.09
  L 91.28 67.02"
/>
<path stroke="#2b9bd7" vector-effect="non-scaling-stroke" d="
  M 91.28 67.02
  Q 91.56 66.24 91.55 65.39"
/>
<path stroke="#98c08c" vector-effect="non-scaling-stroke" d="
  M 91.28 67.02
  L 47.73 67.11
  A 0.72 0.71 -3.6 0 1 47.02 66.49
  L 46.42 61.53
  A 1.68 1.68 0.0 0 0 44.76 60.05
  L 21.53 59.97"
/>
<path stroke="#efd699" vector-effect="non-scaling-stroke" d="
  M 90.38 73.04
  A 0.32 0.32 0.0 0 0 90.16 72.49
  L 78.02 72.49
  A 0.32 0.32 0.0 0 0 77.80 72.58
  L 34.72 114.29
  A 0.32 0.32 0.0 0 0 34.94 114.84
  L 45.95 114.86
  A 0.32 0.32 0.0 0 0 46.17 114.77
  L 90.38 73.04"
/>
<path stroke="#efd699" vector-effect="non-scaling-stroke" d="
  M 52.43 114.40
  A 0.32 0.32 0.0 0 0 52.66 114.95
  L 56.75 114.84
  A 0.32 0.32 0.0 0 0 56.96 114.76
  L 95.69 78.76
  A 0.32 0.32 0.0 0 0 95.79 78.49
  L 95.25 74.60
  A 0.32 0.32 0.0 0 0 94.72 74.41
  L 52.43 114.40"
/>
</g>
<path fill="#e73f46" d="
  M 69.78 34.94
  L 69.81 38.91
  Q 69.81 39.54 70.44 39.53
  L 74.29 39.50
  Q 75.13 39.49 74.59 40.14
  L 59.22 58.65
  Q 58.83 59.12 58.44 58.65
  L 42.84 39.90
  A 0.23 0.23 0.0 0 1 43.01 39.52
  L 47.27 39.51
  Q 47.81 39.51 47.81 38.98
  L 47.82 34.98
  L 47.88 8.35
  Q 47.88 7.74 48.48 7.74
  L 69.20 7.74
  Q 69.71 7.74 69.71 8.25
  L 69.78 34.94
  Z"
/>
<path fill="#86ebf9" d="
  M 92.92 50.26
  L 91.55 65.39
  L 53.24 65.27
  A 1.65 1.64 2.7 0 1 51.61 63.48
  L 52.19 57.16
  A 1.53 1.52 2.7 0 0 50.67 55.49
  L 21.90 55.48
  L 25.14 35.55
  Q 25.22 35.05 25.74 35.04
  L 47.82 34.98
  L 47.81 38.98
  Q 47.81 39.51 47.27 39.51
  L 43.01 39.52
  A 0.23 0.23 0.0 0 0 42.84 39.90
  L 58.44 58.65
  Q 58.83 59.12 59.22 58.65
  L 74.59 40.14
  Q 75.13 39.49 74.29 39.50
  L 70.44 39.53
  Q 69.81 39.54 69.81 38.91
  L 69.78 34.94
  L 95.97 34.96
  Q 96.45 34.96 96.34 35.43
  L 92.92 50.26
  Z"
/>
<path fill="#1573d8" d="
  M 92.92 50.26
  L 112.71 50.28
  A 1.44 1.43 -87.1 0 1 114.13 51.86
  L 107.03 120.25
  L 99.69 68.43
  A 1.56 1.55 -3.4 0 0 98.17 67.09
  L 91.28 67.02
  Q 91.56 66.24 91.55 65.39
  L 92.92 50.26
  Z"
/>
<path fill="#40c2d6" d="
  M 21.90 55.48
  L 50.67 55.49
  A 1.53 1.52 2.7 0 1 52.19 57.16
  L 51.61 63.48
  A 1.65 1.64 2.7 0 0 53.24 65.27
  L 91.55 65.39
  Q 91.56 66.24 91.28 67.02
  L 47.73 67.11
  A 0.72 0.71 -3.6 0 1 47.02 66.49
  L 46.42 61.53
  A 1.68 1.68 0.0 0 0 44.76 60.05
  L 21.53 59.97
  L 21.90 55.48
  Z"
/>
<path fill="#efbd42" d="
  M 21.53 59.97
  L 44.76 60.05
  A 1.68 1.68 0.0 0 1 46.42 61.53
  L 47.02 66.49
  A 0.72 0.71 -3.6 0 0 47.73 67.11
  L 91.28 67.02
  L 98.17 67.09
  A 1.56 1.55 -3.4 0 1 99.69 68.43
  L 107.03 120.25
  L 24.08 120.24
  A 1.73 1.72 -3.8 0 1 22.37 118.75
  Q 19.31 95.83 15.66 72.19
  Q 14.75 66.26 14.36 61.48
  A 1.30 1.30 0.0 0 1 15.64 60.08
  L 21.53 59.97
  Z
  M 90.38 73.04
  A 0.32 0.32 0.0 0 0 90.16 72.49
  L 78.02 72.49
  A 0.32 0.32 0.0 0 0 77.80 72.58
  L 34.72 114.29
  A 0.32 0.32 0.0 0 0 34.94 114.84
  L 45.95 114.86
  A 0.32 0.32 0.0 0 0 46.17 114.77
  L 90.38 73.04
  Z
  M 52.43 114.40
  A 0.32 0.32 0.0 0 0 52.66 114.95
  L 56.75 114.84
  A 0.32 0.32 0.0 0 0 56.96 114.76
  L 95.69 78.76
  A 0.32 0.32 0.0 0 0 95.79 78.49
  L 95.25 74.60
  A 0.32 0.32 0.0 0 0 94.72 74.41
  L 52.43 114.40
  Z"
/>
<path fill="#efefef" d="
  M 90.38 73.04
  L 46.17 114.77
  A 0.32 0.32 0.0 0 1 45.95 114.86
  L 34.94 114.84
  A 0.32 0.32 0.0 0 1 34.72 114.29
  L 77.80 72.58
  A 0.32 0.32 0.0 0 1 78.02 72.49
  L 90.16 72.49
  A 0.32 0.32 0.0 0 1 90.38 73.04
  Z"
/>
<path fill="#efefef" d="
  M 52.43 114.40
  L 94.72 74.41
  A 0.32 0.32 0.0 0 1 95.25 74.60
  L 95.79 78.49
  A 0.32 0.32 0.0 0 1 95.69 78.76
  L 56.96 114.76
  A 0.32 0.32 0.0 0 1 56.75 114.84
  L 52.66 114.95
  A 0.32 0.32 0.0 0 1 52.43 114.40
  Z"
/>
</svg>
