<?xml version="1.0" encoding="UTF-8" standalone="no"?>
<!DOCTYPE svg PUBLIC "-//W3C//DTD SVG 1.1//EN" "http://www.w3.org/Graphics/SVG/1.1/DTD/svg11.dtd">
<svg xmlns="http://www.w3.org/2000/svg" version="1.1" viewBox="0.00 0.00 200.00 150.00">
<g stroke-width="2.00" fill="none" stroke-linecap="butt">
<path stroke="#cdd8e0" vector-effect="non-scaling-stroke" d="
  M 19.13 24.58
  Q 17.01 32.83 16.40 42.09"
/>
<path stroke="#bbc6cc" vector-effect="non-scaling-stroke" d="
  M 16.40 42.09
  L 16.22 43.63"
/>
<path stroke="#cdd8e0" vector-effect="non-scaling-stroke" d="
  M 16.22 43.63
  Q 14.85 58.13 14.64 69.00
  Q 14.46 77.64 14.62 96.51"
/>
<path stroke="#cca78b" vector-effect="non-scaling-stroke" d="
  M 14.62 96.51
  Q 13.68 97.97 14.69 99.30"
/>
<path stroke="#cdd8e0" vector-effect="non-scaling-stroke" d="
  M 14.69 99.30
  L 16.38 130.53
  Q 16.39 130.83 16.25 131.08
  L 16.07 131.43"
/>
<path stroke="#b6b9bc" vector-effect="non-scaling-stroke" d="
  M 16.07 131.43
  Q 15.24 131.57 14.62 131.96
  Q 14.16 132.23 14.05 132.70
  Q 13.90 133.30 14.41 133.65
  A 1.74 1.69 61.2 0 0 15.42 133.96
  Q 32.90 133.66 49.67 133.93
  Q 53.08 133.98 58.31 133.62
  Q 62.62 133.33 66.99 133.37"
/>
<path stroke="#93999c" vector-effect="non-scaling-stroke" d="
  M 66.99 133.37
  Q 66.86 133.63 67.54 133.59"
/>
<path stroke="#b6b9bc" vector-effect="non-scaling-stroke" d="
  M 67.54 133.59
  L 72.45 133.87"
/>
<path stroke="#c7c9ca" vector-effect="non-scaling-stroke" d="
  M 72.45 133.87
  L 187.89 134.00
  Q 188.72 134.00 188.78 133.17
  L 188.80 132.92
  Q 188.91 131.55 187.54 131.54
  L 147.68 131.05"
/>
<path stroke="#cdd8e0" vector-effect="non-scaling-stroke" d="
  M 147.68 131.05
  L 147.88 109.42"
/>
<path stroke="#bbc6cc" vector-effect="non-scaling-stroke" d="
  M 147.88 109.42
  L 165.23 109.35"
/>
<path stroke="#c4cfd6" vector-effect="non-scaling-stroke" d="
  M 165.23 109.35
  L 172.61 109.33
  Q 173.16 109.33 173.15 108.78
  L 173.14 105.09"
/>
<path stroke="#cdd8e0" vector-effect="non-scaling-stroke" d="
  M 173.14 105.09
  L 180.99 104.68
  Q 181.51 104.65 181.50 104.13
  L 181.44 99.49"
/>
<path stroke="#dce6ed" vector-effect="non-scaling-stroke" d="
  M 181.44 99.49
  L 187.94 99.27
  Q 188.79 99.24 188.79 98.39
  L 188.77 94.35
  Q 188.77 93.43 187.85 93.41
  L 182.30 93.29
  A 0.74 0.73 -89.6 0 1 181.58 92.55
  L 181.61 83.23
  A 0.25 0.24 83.5 0 0 181.31 82.99
  Q 180.47 83.19 180.22 84.26
  Q 179.62 86.83 178.99 89.42"
/>
<path stroke="#fee3ab" vector-effect="non-scaling-stroke" d="
  M 178.99 89.42
  L 177.66 89.04"
/>
<path stroke="#dce6ed" vector-effect="non-scaling-stroke" d="
  M 177.66 89.04
  Q 176.93 88.60 176.23 88.68
  Q 175.68 88.74 175.69 89.28
  L 175.71 92.96
  Q 175.71 93.38 175.29 93.38
  L 174.91 93.38
  Q 174.08 93.37 174.10 92.54
  L 174.34 83.27
  Q 174.35 82.78 173.89 82.97
  Q 172.72 83.47 172.45 84.75
  Q 171.84 87.59 171.19 88.76"
/>
<path stroke="#fee3ab" vector-effect="non-scaling-stroke" d="
  M 171.19 88.76
  Q 169.08 90.27 170.47 93.12"
/>
<path stroke="#dce6ed" vector-effect="non-scaling-stroke" d="
  M 170.47 93.12
  Q 170.80 92.50 169.90 93.39"
/>
<path stroke="#cdd8e0" vector-effect="non-scaling-stroke" d="
  M 169.90 93.39
  Q 154.44 93.42 139.25 93.38
  Q 138.97 93.38 138.76 93.27
  Q 138.53 93.15 138.33 93.00"
/>
<path stroke="#fee3ab" vector-effect="non-scaling-stroke" d="
  M 138.33 93.00
  Q 137.84 91.69 136.51 91.64
  Q 133.21 91.50 131.42 89.75
  Q 131.06 89.40 130.84 89.86
  Q 130.10 91.43 130.76 93.33"
/>
<path stroke="#cdd8e0" vector-effect="non-scaling-stroke" d="
  M 130.76 93.33
  L 117.77 93.11"
/>
<path stroke="#dce6ed" vector-effect="non-scaling-stroke" d="
  M 117.77 93.11
  L 117.19 91.05
  Q 116.73 89.40 118.45 89.43
  L 129.31 89.65
  Q 129.59 89.66 129.56 89.38
  Q 129.53 89.21 129.29 89.30
  A 0.41 0.41 0.0 0 1 128.79 89.11
  Q 128.35 88.28 129.11 87.71
  Q 130.90 86.36 132.91 85.37
  Q 133.35 85.15 133.84 85.15
  L 136.96 85.16"
/>
<path stroke="#cdd8e0" vector-effect="non-scaling-stroke" d="
  M 136.96 85.16
  L 141.76 85.32"
/>
<path stroke="#bbc6cc" vector-effect="non-scaling-stroke" d="
  M 141.76 85.32
  Q 142.23 85.57 143.22 85.40"
/>
<path stroke="#b3f5fd" vector-effect="non-scaling-stroke" d="
  M 143.22 85.40
  L 147.45 85.58
  Q 147.98 85.60 147.98 85.07
  Q 148.05 73.12 144.08 61.30
  C 140.89 51.79 133.65 40.24 123.26 38.81
  Q 119.75 38.32 113.53 38.64"
/>
<path stroke="#a6e2ee" vector-effect="non-scaling-stroke" d="
  M 113.53 38.64
  L 111.78 38.50"
/>
<path stroke="#dce6ed" vector-effect="non-scaling-stroke" d="
  M 111.78 38.50
  Q 111.37 32.32 110.01 26.24
  Q 109.64 24.59 107.75 24.01
  C 99.31 21.41 94.12 21.62 83.03 21.59
  Q 46.79 21.49 33.38 21.61
  Q 27.14 21.66 19.13 24.58"
/>
<path stroke="#83c9dc" vector-effect="non-scaling-stroke" d="
  M 111.78 38.50
  Q 102.23 39.92 96.32 47.83
  Q 92.99 52.29 90.82 57.64"
/>
<path stroke="#98acba" vector-effect="non-scaling-stroke" d="
  M 90.82 57.64
  L 74.93 42.07"
/>
<path stroke="#aabece" vector-effect="non-scaling-stroke" d="
  M 74.93 42.07
  L 77.40 25.46
  A 0.72 0.72 0.0 0 0 76.66 24.63
  Q 73.80 24.77 71.58 24.77
  Q 58.23 24.78 41.55 24.79
  C 34.22 24.79 26.78 25.15 19.13 24.58"
/>
<path stroke="#5ad8ec" vector-effect="non-scaling-stroke" d="
  M 113.53 38.64
  Q 114.68 38.57 114.98 38.62
  Q 117.00 38.92 115.09 39.66
  C 104.33 43.78 97.64 58.66 95.58 69.51
  Q 93.12 82.46 94.36 96.51"
/>
<path stroke="#648079" vector-effect="non-scaling-stroke" d="
  M 94.36 96.51
  L 85.82 96.50"
/>
<path stroke="#83c9dc" vector-effect="non-scaling-stroke" d="
  M 85.82 96.50
  Q 85.08 85.91 85.34 82.00
  Q 86.14 69.81 90.29 58.55"
/>
<path stroke="#62a9bb" vector-effect="non-scaling-stroke" d="
  M 90.29 58.55
  Q 90.25 58.05 90.82 57.64"
/>
<path stroke="#899ead" vector-effect="non-scaling-stroke" d="
  M 74.93 42.07
  L 16.40 42.09"
/>
<path stroke="#98acba" vector-effect="non-scaling-stroke" d="
  M 90.29 58.55
  L 74.93 43.61"
/>
<path stroke="#899ead" vector-effect="non-scaling-stroke" d="
  M 74.93 43.61
  L 16.22 43.63"
/>
<path stroke="#719387" vector-effect="non-scaling-stroke" d="
  M 102.04 99.40
  L 98.50 99.04"
/>
<path stroke="#763612" vector-effect="non-scaling-stroke" d="
  M 98.50 99.04
  L 80.54 99.07"
/>
<path stroke="#8a4516" vector-effect="non-scaling-stroke" d="
  M 80.54 99.07
  Q 80.85 98.32 80.01 97.99
  Q 79.52 97.80 79.64 97.29
  L 79.78 96.66"
/>
<path stroke="#9a8378" vector-effect="non-scaling-stroke" d="
  M 85.82 96.50
  L 84.94 96.48"
/>
<path stroke="#dce6ed" vector-effect="non-scaling-stroke" d="
  M 84.94 96.48
  L 85.21 96.05
  Q 85.43 95.69 85.01 95.68
  Q 79.43 95.56 74.08 94.30
  Q 73.57 94.18 73.70 93.67
  Q 73.95 92.64 75.47 92.56
  Q 78.98 92.39 82.40 92.53
  Q 83.46 92.57 83.47 91.51
  L 83.52 71.47
  A 0.94 0.93 0.3 0 0 82.59 70.54
  L 73.56 70.51"
/>
<path stroke="#6ebcca" vector-effect="non-scaling-stroke" d="
  M 143.22 85.40
  Q 142.78 84.66 142.77 84.26
  Q 142.73 73.84 138.93 63.85
  C 136.06 56.32 130.30 47.70 121.92 47.53
  C 110.91 47.30 104.31 62.22 102.36 71.14
  C 100.76 78.47 100.21 86.18 101.02 93.76
  Q 101.14 94.84 101.82 96.51"
/>
<path stroke="#719387" vector-effect="non-scaling-stroke" d="
  M 101.82 96.51
  L 94.36 96.51"
/>
<path stroke="#aabece" vector-effect="non-scaling-stroke" d="
  M 74.93 43.61
  Q 74.40 44.25 74.50 45.06
  Q 74.63 46.19 74.60 46.47
  Q 73.37 58.41 73.56 70.51"
/>
<path stroke="#cdd8e0" vector-effect="non-scaling-stroke" d="
  M 73.56 70.51
  L 63.84 70.50
  Q 62.36 70.50 62.35 71.98
  L 62.32 81.99"
/>
<path stroke="#899ead" vector-effect="non-scaling-stroke" d="
  M 62.32 81.99
  L 45.99 82.20"
/>
<path stroke="#81cede" vector-effect="non-scaling-stroke" d="
  M 45.99 82.20
  Q 44.20 78.24 39.02 77.80"
/>
<path stroke="#ccbc8c" vector-effect="non-scaling-stroke" d="
  M 39.02 77.80
  C 43.70 76.30 43.44 71.76 43.53 67.38"
/>
<path stroke="#867169" vector-effect="non-scaling-stroke" d="
  M 43.53 67.38
  Q 46.51 67.13 42.90 63.35
  Q 39.34 59.62 34.28 62.79
  Q 32.57 63.85 32.32 66.51
  Q 31.80 72.09 34.37 75.79"
/>
<path stroke="#ccbc8c" vector-effect="non-scaling-stroke" d="
  M 34.37 75.79
  L 34.31 77.49"
/>
<path stroke="#81cede" vector-effect="non-scaling-stroke" d="
  M 34.31 77.49
  Q 31.43 77.87 29.03 79.50
  Q 26.81 81.00 27.81 84.19"
/>
<path stroke="#cdd8e0" vector-effect="non-scaling-stroke" d="
  M 27.81 84.19
  L 21.45 84.31
  Q 20.90 84.32 20.86 84.88
  Q 20.84 85.14 20.97 85.43"
/>
<path stroke="#84919d" vector-effect="non-scaling-stroke" d="
  M 20.97 85.43
  Q 20.26 85.58 20.38 86.25
  Q 21.24 91.17 22.14 96.08
  Q 22.17 96.26 22.07 96.42
  Q 21.95 96.62 21.86 96.60"
/>
<path stroke="#9a806c" vector-effect="non-scaling-stroke" d="
  M 21.86 96.60
  L 14.62 96.51"
/>
<path stroke="#899ead" vector-effect="non-scaling-stroke" d="
  M 141.76 85.32
  C 141.81 75.62 139.41 63.04 133.00 55.48
  Q 132.37 54.74 131.79 54.67"
/>
<path stroke="#bbc6cc" vector-effect="non-scaling-stroke" d="
  M 131.79 54.67
  Q 131.54 54.10 131.18 53.77"
/>
<path stroke="#899ead" vector-effect="non-scaling-stroke" d="
  M 131.18 53.77
  Q 130.77 53.06 130.21 52.51
  Q 125.82 48.22 120.28 48.92
  C 110.92 50.12 105.71 61.86 103.70 70.02
  Q 100.55 82.82 102.30 95.94"
/>
<path stroke="#796357" vector-effect="non-scaling-stroke" d="
  M 102.30 95.94
  Q 101.56 96.38 101.82 96.51"
/>
<path stroke="#bd9d8a" vector-effect="non-scaling-stroke" d="
  M 84.94 96.48
  L 79.78 96.66"
/>
<path stroke="#cca78b" vector-effect="non-scaling-stroke" d="
  M 79.78 96.66
  L 45.72 96.73"
/>
<path stroke="#a6e2ee" vector-effect="non-scaling-stroke" d="
  M 45.72 96.73
  Q 45.65 95.60 45.45 95.53"
/>
<path stroke="#fee3ab" vector-effect="non-scaling-stroke" d="
  M 45.45 95.53
  L 51.67 95.11
  A 0.98 0.95 -30.3 0 1 52.24 95.25
  Q 52.95 95.67 53.58 95.28
  Q 54.01 95.03 54.50 95.03
  L 62.80 95.11"
/>
<path stroke="#cdd8e0" vector-effect="non-scaling-stroke" d="
  M 62.80 95.11
  L 71.71 94.97
  A 0.93 0.92 89.7 0 0 72.62 94.04
  L 72.62 93.43
  Q 72.62 92.48 71.68 92.48
  L 63.27 92.51
  A 0.93 0.93 0.0 0 1 62.33 91.59
  L 62.29 84.04"
/>
<path stroke="#bbc6cc" vector-effect="non-scaling-stroke" d="
  M 62.29 84.04
  L 62.32 81.99"
/>
<path stroke="#cdd8e0" vector-effect="non-scaling-stroke" d="
  M 131.18 53.77
  Q 129.37 53.62 129.92 55.45
  A 0.68 0.67 -36.1 0 0 131.12 55.63
  L 131.79 54.67"
/>
<path stroke="#aabece" vector-effect="non-scaling-stroke" d="
  M 136.96 85.16
  Q 136.18 85.06 136.28 84.30"
/>
<path stroke="#899ead" vector-effect="non-scaling-stroke" d="
  M 136.28 84.30
  Q 136.82 84.32 136.82 83.76
  C 136.77 75.55 133.90 65.45 127.20 60.32
  C 124.41 58.19 121.47 57.62 118.15 59.32
  C 110.25 63.36 107.86 73.13 106.65 81.04
  Q 105.74 87.00 106.70 92.79
  C 107.93 100.28 111.54 112.67 120.27 114.33"
/>
<path stroke="#768a98" vector-effect="non-scaling-stroke" d="
  M 120.27 114.33
  Q 123.98 115.06 125.49 113.67"
/>
<path stroke="#899ead" vector-effect="non-scaling-stroke" d="
  M 125.49 113.67
  Q 128.25 112.27 130.17 109.88
  Q 130.56 109.39 131.20 109.39
  L 137.16 109.46
  A 0.36 0.36 0.0 0 1 137.49 109.95
  Q 135.16 115.61 131.51 119.51
  C 124.47 127.02 115.46 124.99 109.99 117.21
  C 106.09 111.68 104.60 106.72 102.62 99.39"
/>
<path stroke="#8b756b" vector-effect="non-scaling-stroke" d="
  M 102.62 99.39
  L 102.30 95.94"
/>
<path stroke="#6b8e85" vector-effect="non-scaling-stroke" d="
  M 98.50 99.04
  L 98.72 114.33"
/>
<path stroke="#5f7b77" vector-effect="non-scaling-stroke" d="
  M 98.72 114.33
  Q 98.62 114.63 98.51 114.93"
/>
<path stroke="#763612" vector-effect="non-scaling-stroke" d="
  M 98.51 114.93
  L 75.60 102.68"
/>
<path stroke="#81cede" vector-effect="non-scaling-stroke" d="
  M 144.25 109.50
  Q 140.34 122.94 129.04 131.15"
/>
<path stroke="#7abfc8" vector-effect="non-scaling-stroke" d="
  M 129.04 131.15
  L 113.06 131.28"
/>
<path stroke="#5ad8ec" vector-effect="non-scaling-stroke" d="
  M 113.06 131.28
  C 111.27 129.58 109.13 128.29 107.59 126.61
  Q 102.84 121.43 98.72 114.33"
/>
<path stroke="#899ead" vector-effect="non-scaling-stroke" d="
  M 115.19 93.57
  Q 115.89 96.38 117.39 98.43
  Q 117.69 98.85 118.19 98.91
  L 120.88 99.24"
/>
<path stroke="#8096a3" vector-effect="non-scaling-stroke" d="
  M 120.88 99.24
  Q 120.55 101.04 122.00 101.04
  Q 139.56 101.04 157.58 101.00
  A 1.41 1.40 80.2 0 1 158.92 101.95
  Q 159.00 102.15 159.05 102.31
  A 0.53 0.53 0.0 0 1 158.56 103.02
  Q 140.39 103.56 122.99 103.04
  Q 122.30 103.01 121.66 103.11
  Q 121.21 103.17 121.26 103.63
  L 121.30 104.00
  Q 121.35 104.44 121.80 104.44
  Q 141.89 104.22 162.60 104.63
  Q 163.46 104.65 163.54 105.50
  L 163.72 107.40
  Q 163.77 107.94 164.27 108.18
  Q 165.12 108.58 165.23 109.35"
/>
<path stroke="#899ead" vector-effect="non-scaling-stroke" d="
  M 147.88 109.42
  L 144.25 109.50"
/>
<path stroke="#6ebcca" vector-effect="non-scaling-stroke" d="
  M 144.25 109.50
  L 139.32 109.50
  Q 138.78 109.50 138.59 110.00
  C 136.30 116.02 131.19 123.47 124.88 125.01
  C 111.35 128.31 103.51 110.09 102.04 99.40"
/>
<path stroke="#796357" vector-effect="non-scaling-stroke" d="
  M 102.04 99.40
  Q 102.04 99.78 102.62 99.39"
/>
<path stroke="#637884" vector-effect="non-scaling-stroke" d="
  M 125.49 113.67
  L 125.30 112.53"
/>
<path stroke="#98acba" vector-effect="non-scaling-stroke" d="
  M 125.30 112.53
  Q 127.35 111.58 128.47 109.93
  Q 128.76 109.50 128.24 109.44
  Q 126.67 109.26 125.24 109.74"
/>
<path stroke="#637884" vector-effect="non-scaling-stroke" d="
  M 125.24 109.74
  Q 119.93 108.33 120.23 111.41"
/>
<path stroke="#854014" vector-effect="non-scaling-stroke" d="
  M 80.54 99.07
  L 75.38 99.32
  A 0.42 0.41 -18.2 0 0 75.05 99.96
  Q 75.64 100.88 75.60 102.68"
/>
<path stroke="#8a4516" vector-effect="non-scaling-stroke" d="
  M 75.60 102.68
  Q 75.17 114.04 75.42 125.75
  Q 75.48 128.51 75.11 131.25
  Q 75.00 132.07 75.47 132.88"
/>
<path stroke="#947156" vector-effect="non-scaling-stroke" d="
  M 75.47 132.88
  Q 75.49 132.54 75.28 133.03"
/>
<path stroke="#836148" vector-effect="non-scaling-stroke" d="
  M 75.28 133.03
  Q 74.60 133.17 74.03 133.05
  A 0.77 0.77 0.0 0 1 73.43 132.41
  L 73.28 131.53"
/>
<path stroke="#9a806c" vector-effect="non-scaling-stroke" d="
  M 73.28 131.53
  L 73.25 99.81
  A 0.70 0.69 0.0 0 0 72.55 99.12
  L 45.76 99.08"
/>
<path stroke="#6ebcca" vector-effect="non-scaling-stroke" d="
  M 45.99 82.20
  L 47.03 83.96"
/>
<path stroke="#81cede" vector-effect="non-scaling-stroke" d="
  M 47.03 83.96
  C 47.53 85.65 49.11 87.09 48.17 88.87"
/>
<path stroke="#b2d9a9" vector-effect="non-scaling-stroke" d="
  M 48.17 88.87
  L 45.74 89.87"
/>
<path stroke="#81cede" vector-effect="non-scaling-stroke" d="
  M 45.74 89.87
  Q 45.04 89.78 44.84 90.10"
/>
<path stroke="#5ad8ec" vector-effect="non-scaling-stroke" d="
  M 44.84 90.10
  Q 41.52 87.43 39.67 84.22"
/>
<path stroke="#b3f5fd" vector-effect="non-scaling-stroke" d="
  M 39.67 84.22
  L 27.81 84.19"
/>
<path stroke="#899ead" vector-effect="non-scaling-stroke" d="
  M 62.29 84.04
  Q 61.85 84.21 61.46 83.84
  A 0.87 0.86 65.2 0 0 60.85 83.61
  L 47.03 83.96"
/>
<path stroke="#8a4516" vector-effect="non-scaling-stroke" d="
  M 22.29 99.18
  Q 21.56 99.10 20.99 99.45
  Q 20.58 99.70 20.62 100.19
  C 20.84 102.90 21.28 105.49 21.11 108.23
  Q 20.55 117.28 21.18 126.28
  C 21.33 128.35 20.89 130.04 20.77 132.03
  Q 20.74 132.54 20.24 132.62
  Q 19.34 132.77 18.46 132.17"
/>
<path stroke="#9a806c" vector-effect="non-scaling-stroke" d="
  M 18.39 130.99
  L 18.31 99.99
  Q 18.31 99.48 17.82 99.37
  Q 16.26 99.00 14.69 99.30"
/>
<path stroke="#b77c34" vector-effect="non-scaling-stroke" d="
  M 43.53 67.38
  Q 41.45 65.39 41.47 70.19
  Q 41.48 70.80 40.90 70.63
  L 40.50 70.51
  A 0.63 0.63 0.0 0 0 39.77 71.41
  Q 41.49 74.56 38.00 76.01
  Q 37.15 76.36 34.37 75.79"
/>
<path stroke="#a6e2ee" vector-effect="non-scaling-stroke" d="
  M 39.67 84.22
  L 42.53 100.24"
/>
<path stroke="#b3f5fd" vector-effect="non-scaling-stroke" d="
  M 42.53 100.24
  Q 41.95 101.44 41.11 101.32"
/>
<path stroke="#b6b9bc" vector-effect="non-scaling-stroke" d="
  M 41.11 101.32
  L 38.33 86.52
  Q 38.19 85.81 37.48 85.73
  L 37.22 85.70
  A 0.43 0.43 0.0 0 0 36.75 86.21
  L 39.49 101.15"
/>
<path stroke="#b3f5fd" vector-effect="non-scaling-stroke" d="
  M 39.49 101.15
  L 30.93 101.35"
/>
<path stroke="#b89888" vector-effect="non-scaling-stroke" d="
  M 30.93 101.35
  L 24.99 101.19"
/>
<path stroke="#b6b9bc" vector-effect="non-scaling-stroke" d="
  M 24.99 101.19
  Q 24.52 100.88 24.42 100.38
  Q 23.03 93.46 21.81 86.50
  Q 21.71 85.94 20.97 85.43"
/>
<path stroke="#6f5245" vector-effect="non-scaling-stroke" d="
  M 24.99 101.19
  Q 24.37 101.22 24.48 102.26
  Q 24.79 105.34 25.64 109.23
  Q 25.71 109.57 25.58 109.86
  Q 25.39 110.31 25.86 110.43
  L 26.45 110.58"
/>
<path stroke="#b6b9bc" vector-effect="non-scaling-stroke" d="
  M 26.45 110.58
  Q 25.93 111.99 27.62 112.38
  Q 28.87 112.66 33.26 112.43"
/>
<path stroke="#6f5245" vector-effect="non-scaling-stroke" d="
  M 33.26 112.43
  Q 35.81 121.64 36.85 131.74
  Q 36.99 133.11 38.13 132.91
  A 1.37 1.37 0.0 0 0 39.25 131.77
  Q 40.57 123.25 41.52 114.76
  Q 41.56 114.37 42.22 113.39
  A 0.53 0.47 -33.2 0 0 42.31 113.05
  Q 42.24 112.44 41.54 112.40"
/>
<path stroke="#b6b9bc" vector-effect="non-scaling-stroke" d="
  M 41.54 112.40
  Q 41.85 111.52 40.99 110.49"
/>
<path stroke="#5d9cab" vector-effect="non-scaling-stroke" d="
  M 40.99 110.49
  Q 41.10 109.56 40.82 108.70"
/>
<path stroke="#6aafba" vector-effect="non-scaling-stroke" d="
  M 40.82 108.70
  L 39.49 101.15"
/>
<path stroke="#6aafba" vector-effect="non-scaling-stroke" d="
  M 41.11 101.32
  L 42.59 109.12"
/>
<path stroke="#5d9cab" vector-effect="non-scaling-stroke" d="
  M 42.59 109.12
  L 42.94 110.88"
/>
<path stroke="#939faa" vector-effect="non-scaling-stroke" d="
  M 42.94 110.88
  Q 43.28 113.11 48.77 112.39"
/>
<path stroke="#84919d" vector-effect="non-scaling-stroke" d="
  M 48.77 112.39
  Q 50.67 113.60 50.96 115.52
  Q 52.09 122.84 52.72 130.28
  Q 52.88 132.12 53.80 132.59
  Q 54.91 133.16 56.80 132.62"
/>
<path stroke="#4a5259" vector-effect="non-scaling-stroke" d="
  M 56.80 132.62
  Q 61.37 133.74 66.99 133.37"
/>
<path stroke="#84919d" vector-effect="non-scaling-stroke" d="
  M 16.07 131.43
  L 17.65 132.42
  Q 18.13 132.72 18.32 132.18
  Q 18.47 131.74 18.39 130.99"
/>
<path stroke="#836148" vector-effect="non-scaling-stroke" d="
  M 18.39 130.99
  L 18.46 132.17"
/>
<path stroke="#745647" vector-effect="non-scaling-stroke" d="
  M 18.46 132.17
  Q 19.93 133.69 22.23 132.51
  Q 22.68 132.28 22.74 131.78
  L 24.93 115.13
  A 1.97 1.93 67.9 0 1 25.30 114.23
  Q 26.08 113.21 24.95 112.59
  Q 24.42 112.29 24.23 111.69
  Q 24.09 111.24 24.40 110.88
  Q 24.74 110.50 24.63 110.00
  L 22.29 99.18"
/>
<path stroke="#836148" vector-effect="non-scaling-stroke" d="
  M 22.29 99.18
  Q 22.47 97.56 21.86 96.60"
/>
<path stroke="#b2d9a9" vector-effect="non-scaling-stroke" d="
  M 39.02 77.80
  L 34.31 77.49"
/>
<path stroke="#ccbc8c" vector-effect="non-scaling-stroke" d="
  M 44.79 93.15
  L 45.94 92.80
  Q 46.64 92.58 46.19 92.00
  L 45.18 90.71
  A 0.23 0.22 -70.3 0 1 45.14 90.62
  Q 45.02 89.87 45.74 89.87"
/>
<path stroke="#74bbcf" vector-effect="non-scaling-stroke" d="
  M 44.84 90.10
  L 44.79 93.15"
/>
<path stroke="#a5c69a" vector-effect="non-scaling-stroke" d="
  M 44.79 93.15
  Q 44.76 95.03 45.45 95.53"
/>
<path stroke="#738a7a" vector-effect="non-scaling-stroke" d="
  M 45.72 96.73
  Q 44.65 96.02 45.76 99.08"
/>
<path stroke="#74bbcf" vector-effect="non-scaling-stroke" d="
  M 45.76 99.08
  Q 45.92 101.44 47.52 103.97"
/>
<path stroke="#5ad8ec" vector-effect="non-scaling-stroke" d="
  M 47.52 103.97
  L 43.45 107.41
  Q 43.31 107.53 43.19 107.38
  L 43.03 107.18
  Q 42.79 106.88 43.11 106.67
  L 44.22 105.96
  Q 44.71 105.65 44.62 105.08
  Q 44.22 102.33 42.53 100.24"
/>
<path stroke="#ccbc8c" vector-effect="non-scaling-stroke" d="
  M 62.80 95.11
  Q 62.33 93.97 61.24 93.83
  Q 53.85 92.88 48.17 88.87"
/>
<path stroke="#98acba" vector-effect="non-scaling-stroke" d="
  M 136.28 84.30
  Q 135.94 83.85 135.90 83.12
  C 135.53 76.27 133.07 66.87 127.58 62.15
  C 121.89 57.27 115.58 60.74 112.39 66.44
  Q 108.36 73.65 107.78 82.77
  C 107.15 92.67 109.16 108.91 119.43 113.06
  Q 120.29 113.40 120.34 112.70"
/>
<path stroke="#637884" vector-effect="non-scaling-stroke" d="
  M 120.34 112.70
  Q 120.78 113.29 120.27 114.33"
/>
<path stroke="#aabece" vector-effect="non-scaling-stroke" d="
  M 117.77 93.11
  L 115.19 93.57"
/>
<path stroke="#98acba" vector-effect="non-scaling-stroke" d="
  M 115.19 93.57
  Q 113.46 89.71 113.84 84.81"
/>
<path stroke="#8598a5" vector-effect="non-scaling-stroke" d="
  M 113.84 84.81
  L 120.71 84.71"
/>
<path stroke="#dce6ed" vector-effect="non-scaling-stroke" d="
  M 120.71 84.71
  L 119.44 87.63
  A 0.61 0.61 0.0 0 0 119.97 88.48
  L 125.22 88.80
  Q 125.92 88.85 126.38 88.32
  Q 128.04 86.45 130.93 84.87"
/>
<path stroke="#8598a5" vector-effect="non-scaling-stroke" d="
  M 130.93 84.87
  Q 129.57 82.33 129.69 80.32"
/>
<path stroke="#98acba" vector-effect="non-scaling-stroke" d="
  M 129.69 80.32
  C 129.30 76.33 126.80 70.61 122.26 70.23
  C 116.70 69.77 113.74 77.45 113.58 81.84"
/>
<path stroke="#8598a5" vector-effect="non-scaling-stroke" d="
  M 113.58 81.84
  L 113.22 84.33"
/>
<path stroke="#98acba" vector-effect="non-scaling-stroke" d="
  M 113.22 84.33
  Q 111.53 95.80 119.48 102.50
  Q 119.85 102.82 119.87 103.31
  L 120.23 111.41"
/>
<path stroke="#8598a5" vector-effect="non-scaling-stroke" d="
  M 120.23 111.41
  L 120.34 112.70"
/>
<path stroke="#8598a5" vector-effect="non-scaling-stroke" d="
  M 125.24 109.74
  L 125.30 112.53"
/>
<path stroke="#6eacb9" vector-effect="non-scaling-stroke" d="
  M 113.06 131.28
  L 104.57 131.20"
/>
<path stroke="#83c9dc" vector-effect="non-scaling-stroke" d="
  M 104.57 131.20
  L 98.51 126.63"
/>
<path stroke="#648079" vector-effect="non-scaling-stroke" d="
  M 98.51 114.93
  L 98.51 126.63"
/>
<path stroke="#9a8378" vector-effect="non-scaling-stroke" d="
  M 98.51 126.63
  L 98.33 130.87"
/>
<path stroke="#856655" vector-effect="non-scaling-stroke" d="
  M 98.33 130.87
  Q 98.56 131.65 98.28 132.17
  Q 98.04 132.63 97.52 132.63
  L 75.47 132.88"
/>
<path stroke="#7e8287" vector-effect="non-scaling-stroke" d="
  M 72.45 133.87
  Q 74.92 133.92 75.28 133.03"
/>
<path stroke="#95a1ab" vector-effect="non-scaling-stroke" d="
  M 147.68 131.05
  Q 147.28 131.49 146.75 131.50
  Q 139.26 131.72 129.04 131.15"
/>
<path stroke="#a8b2b7" vector-effect="non-scaling-stroke" d="
  M 130.93 84.87
  L 120.71 84.71"
/>
<path stroke="#637884" vector-effect="non-scaling-stroke" d="
  M 113.84 84.81
  Q 113.64 85.08 113.22 84.33"
/>
<path stroke="#92a8b7" vector-effect="non-scaling-stroke" d="
  M 173.14 105.09
  Q 171.31 104.48 171.05 103.23
  Q 170.69 101.58 170.47 100.35
  Q 170.28 99.31 169.23 99.31
  L 120.88 99.24"
/>
<path stroke="#84919d" vector-effect="non-scaling-stroke" d="
  M 73.28 131.53
  Q 73.45 132.47 72.75 132.49
  Q 70.59 132.55 68.12 132.87"
/>
<path stroke="#61717d" vector-effect="non-scaling-stroke" d="
  M 68.12 132.87
  Q 65.34 130.14 61.63 130.23"
/>
<path stroke="#81cede" vector-effect="non-scaling-stroke" d="
  M 61.63 130.23
  Q 60.26 126.06 60.25 124.50
  Q 60.24 116.35 60.19 108.81
  Q 60.17 104.95 56.32 104.65
  L 47.52 103.97"
/>
<path stroke="#478f99" vector-effect="non-scaling-stroke" d="
  M 61.63 130.23
  L 58.23 130.24"
/>
<path stroke="#5ad8ec" vector-effect="non-scaling-stroke" d="
  M 58.23 130.24
  L 55.56 112.06
  A 2.61 2.60 87.7 0 0 53.16 109.84
  L 42.59 109.12"
/>
<path stroke="#5f7b77" vector-effect="non-scaling-stroke" d="
  M 31.46 108.86
  L 32.36 110.48"
/>
<path stroke="#b89888" vector-effect="non-scaling-stroke" d="
  M 32.36 110.48
  L 26.45 110.58"
/>
<path stroke="#5ad8ec" vector-effect="non-scaling-stroke" d="
  M 40.82 108.70
  L 31.46 108.86"
/>
<path stroke="#6b8e85" vector-effect="non-scaling-stroke" d="
  M 31.46 108.86
  L 30.29 108.31
  Q 29.86 108.11 29.93 107.65
  L 30.93 101.35"
/>
<path stroke="#3a7c8b" vector-effect="non-scaling-stroke" d="
  M 58.23 130.24
  L 56.90 130.32"
/>
<path stroke="#74bbcf" vector-effect="non-scaling-stroke" d="
  M 56.90 130.32
  L 55.01 119.41
  Q 54.93 118.97 54.54 118.74
  Q 54.26 118.58 54.16 118.24
  Q 53.31 115.12 51.40 111.12"
/>
<path stroke="#83c9dc" vector-effect="non-scaling-stroke" d="
  M 51.40 111.12
  Q 47.65 110.27 42.94 110.88"
/>
<path stroke="#aabece" vector-effect="non-scaling-stroke" d="
  M 51.40 111.12
  Q 51.91 112.07 50.86 112.22
  Q 49.81 112.37 48.77 112.39"
/>
<path stroke="#4a5259" vector-effect="non-scaling-stroke" d="
  M 68.12 132.87
  Q 68.37 132.83 68.40 133.10
  Q 68.43 133.43 68.11 133.49
  L 67.54 133.59"
/>
<path stroke="#61717d" vector-effect="non-scaling-stroke" d="
  M 56.90 130.32
  L 56.80 132.62"
/>
<path stroke="#b89888" vector-effect="non-scaling-stroke" d="
  M 41.54 112.40
  L 33.26 112.43"
/>
<path stroke="#a6e2ee" vector-effect="non-scaling-stroke" d="
  M 40.99 110.49
  L 32.36 110.48"
/>
<path stroke="#637884" vector-effect="non-scaling-stroke" d="
  M 129.69 80.32
  C 128.07 77.12 126.48 73.35 123.11 71.73
  C 120.46 70.46 117.48 73.69 116.31 75.77
  Q 114.69 78.65 113.58 81.84"
/>
<path stroke="#a4afb8" vector-effect="non-scaling-stroke" d="
  M 104.57 131.20
  Q 100.34 131.78 98.33 130.87"
/>
<path stroke="#dbca99" vector-effect="non-scaling-stroke" d="
  M 177.66 89.04
  Q 176.50 91.39 177.86 92.90
  A 0.79 0.79 0.0 0 0 179.22 92.50
  Q 179.49 90.80 178.99 89.42"
/>
<path stroke="#aabece" vector-effect="non-scaling-stroke" d="
  M 181.44 99.49
  L 172.28 98.99
  A 2.42 2.41 -89.4 0 1 170.00 96.65
  L 169.90 93.39"
/>
<path stroke="#dbca99" vector-effect="non-scaling-stroke" d="
  M 170.47 93.12
  Q 173.59 92.71 171.19 88.76"
/>
<path stroke="#ccbc8c" vector-effect="non-scaling-stroke" d="
  M 138.33 93.00
  L 138.02 93.22
  Q 137.79 93.38 137.50 93.38
  L 130.76 93.33"
/>
<path stroke="#92a8b7" vector-effect="non-scaling-stroke" d="
  M 33.00 37.96
  A 0.96 0.96 0.0 0 0 33.96 39.00
  L 56.05 39.00
  A 0.65 0.65 0.0 0 0 56.69 38.25
  Q 56.63 37.86 56.32 37.55
  A 1.15 1.14 -62.8 0 1 56.01 36.57
  L 56.64 32.87
  Q 56.74 32.26 56.12 32.26
  L 34.48 32.26
  Q 33.48 32.26 33.39 33.26
  L 33.00 37.96"
/>
<path stroke="#cdd8e0" vector-effect="non-scaling-stroke" d="
  M 119.7848 52.6894
  A 0.95 0.68 87.9 0 0 120.4295 51.7151
  A 0.95 0.68 87.9 0 0 119.7152 50.7906
  A 0.95 0.68 87.9 0 0 119.0705 51.7649
  A 0.95 0.68 87.9 0 0 119.7848 52.6894"
/>
<path stroke="#cdd8e0" vector-effect="non-scaling-stroke" d="
  M 123.94 52.12
  Q 123.94 51.47 123.59 50.97
  Q 123.32 50.59 122.96 50.90
  Q 122.44 51.35 122.60 52.00
  Q 122.81 52.85 123.63 52.57
  A 0.48 0.47 80.6 0 0 123.94 52.12"
/>
<path stroke="#cdd8e0" vector-effect="non-scaling-stroke" d="
  M 115.1833 56.7988
  A 1.82 0.89 92.1 0 0 116.1394 55.0126
  A 1.82 0.89 92.1 0 0 115.3167 53.1612
  A 1.82 0.89 92.1 0 0 114.3606 54.9474
  A 1.82 0.89 92.1 0 0 115.1833 56.7988"
/>
<path stroke="#cdd8e0" vector-effect="non-scaling-stroke" d="
  M 120.90 54.86
  Q 120.60 55.51 121.01 56.04
  A 0.67 0.67 0.0 0 0 122.21 55.73
  Q 122.28 55.26 122.09 54.85
  A 0.66 0.66 0.0 0 0 120.90 54.86"
/>
<path stroke="#cdd8e0" vector-effect="non-scaling-stroke" d="
  M 117.20 56.09
  Q 116.84 56.90 117.66 57.23
  Q 118.09 57.40 118.45 57.05
  A 0.92 0.91 34.9 0 0 118.18 55.56
  Q 117.56 55.29 117.20 56.09"
/>
<path stroke="#cdd8e0" vector-effect="non-scaling-stroke" d="
  M 125.87 56.38
  A 0.82 0.82 0.0 0 0 125.05 55.56
  A 0.82 0.82 0.0 0 0 124.23 56.38
  A 0.82 0.82 0.0 0 0 125.05 57.20
  A 0.82 0.82 0.0 0 0 125.87 56.38"
/>
<path stroke="#cdd8e0" vector-effect="non-scaling-stroke" d="
  M 129.80 58.38
  A 0.90 0.90 0.0 0 0 128.90 57.48
  A 0.90 0.90 0.0 0 0 128.00 58.38
  A 0.90 0.90 0.0 0 0 128.90 59.28
  A 0.90 0.90 0.0 0 0 129.80 58.38"
/>
<path stroke="#cdd8e0" vector-effect="non-scaling-stroke" d="
  M 111.4511 60.1478
  A 1.31 1.16 125.4 0 0 113.1555 59.7520
  A 1.31 1.16 125.4 0 0 112.9689 58.0122
  A 1.31 1.16 125.4 0 0 111.2645 58.4080
  A 1.31 1.16 125.4 0 0 111.4511 60.1478"
/>
<path stroke="#cdd8e0" vector-effect="non-scaling-stroke" d="
  M 131.69 59.57
  Q 131.15 60.38 132.01 60.95
  A 0.81 0.81 0.0 0 0 133.25 60.44
  Q 133.37 59.88 132.95 59.46
  A 0.81 0.81 0.0 0 0 131.69 59.57"
/>
<path stroke="#cdd8e0" vector-effect="non-scaling-stroke" d="
  M 111.24 62.51
  A 1.19 1.19 0.0 0 0 110.05 61.32
  A 1.19 1.19 0.0 0 0 108.86 62.51
  A 1.19 1.19 0.0 0 0 110.05 63.70
  A 1.19 1.19 0.0 0 0 111.24 62.51"
/>
<path stroke="#cdd8e0" vector-effect="non-scaling-stroke" d="
  M 109.35 66.00
  Q 109.49 64.66 108.15 64.76
  Q 107.27 64.82 107.04 66.07
  A 0.95 0.95 0.0 0 0 107.82 67.17
  Q 109.19 67.41 109.35 66.00"
/>
<path stroke="#a8b2b7" vector-effect="non-scaling-stroke" d="
  M 72.46 86.47
  Q 74.73 81.97 72.20 77.44"
/>
<path stroke="#bbc6cc" vector-effect="non-scaling-stroke" d="
  M 72.20 77.44
  Q 72.04 77.22 72.27 77.03
  Q 72.62 76.74 72.90 76.96"
/>
<path stroke="#93999c" vector-effect="non-scaling-stroke" d="
  M 72.90 76.96
  Q 75.40 81.02 74.45 83.69
  Q 73.64 85.98 73.17 88.13
  Q 72.82 89.69 74.42 89.70
  L 80.84 89.77
  Q 81.97 89.78 81.97 88.66
  L 81.99 72.77
  Q 81.99 72.04 81.26 72.05
  L 64.79 72.12
  Q 64.21 72.12 64.20 72.71
  L 64.17 89.15
  Q 64.17 89.75 64.77 89.75
  L 72.01 89.74
  Q 72.69 89.74 72.43 89.11
  Q 72.11 88.31 72.46 86.47"
/>
<path stroke="#4f5f69" vector-effect="non-scaling-stroke" d="
  M 72.90 76.96
  L 72.82 73.59
  Q 72.80 72.99 72.20 72.92
  Q 71.92 72.89 71.64 72.97
  A 0.62 0.62 0.0 0 0 71.20 73.59
  Q 71.20 73.79 71.11 73.97
  Q 70.88 74.41 70.39 74.40
  Q 69.55 74.37 68.69 74.88
  Q 68.28 75.12 67.93 74.85
  Q 67.18 74.26 68.09 74.00
  Q 68.74 73.81 69.19 73.42
  Q 69.99 72.70 68.95 72.98
  Q 67.99 73.24 67.23 72.99
  Q 66.59 72.78 66.55 73.45
  Q 66.38 76.56 70.51 75.48"
/>
<path stroke="#3c4b54" vector-effect="non-scaling-stroke" d="
  M 70.51 75.48
  Q 70.82 76.36 70.52 76.78
  Q 66.68 81.98 68.72 88.09
  Q 68.97 88.84 69.52 88.27
  Q 69.94 87.82 69.80 87.29
  Q 69.65 86.75 70.21 86.69
  L 72.46 86.47"
/>
<path stroke="#637884" vector-effect="non-scaling-stroke" d="
  M 72.20 77.44
  L 70.51 75.48"
/>
<path stroke="#6f5245" vector-effect="non-scaling-stroke" d="
  M 34.79 132.61
  Q 35.23 132.64 35.19 132.20
  Q 34.39 123.98 33.28 115.70
  A 1.93 1.92 -3.0 0 0 31.43 114.04
  L 27.68 113.92
  A 1.57 1.57 0.0 0 0 26.07 115.30
  L 24.14 131.71
  A 1.11 1.11 0.0 0 0 24.38 132.55
  Q 24.84 133.11 25.45 132.84
  Q 26.00 132.59 26.60 132.66
  Q 30.24 133.11 33.90 133.02
  Q 34.27 133.01 34.52 132.72
  Q 34.63 132.59 34.79 132.61"
/>
<path stroke="#6f5245" vector-effect="non-scaling-stroke" d="
  M 43.60 123.96
  L 43.62 115.68
  Q 43.62 115.28 43.23 115.37
  L 42.92 115.44
  A 0.81 0.80 -4.6 0 0 42.31 116.15
  L 40.98 131.97
  Q 40.94 132.37 41.29 132.58
  Q 42.02 133.03 43.55 132.74"
/>
<path stroke="#84919d" vector-effect="non-scaling-stroke" d="
  M 43.55 132.74
  L 50.94 132.56
  A 0.77 0.76 85.9 0 0 51.68 131.70
  L 49.57 115.39
  A 1.56 1.56 0.0 0 0 48.01 114.03
  L 44.70 114.07
  Q 43.68 114.08 43.67 115.10
  L 43.60 123.96"
/>
<path stroke="#867169" vector-effect="non-scaling-stroke" d="
  M 43.55 132.74
  L 43.60 123.96"
/>
<path stroke="#92a8b7" vector-effect="non-scaling-stroke" d="
  M 164.62 102.00
  Q 165.47 102.64 166.46 102.76
  Q 167.09 102.83 167.04 102.19
  L 167.02 101.82
  Q 166.98 101.32 166.49 101.24
  Q 165.50 101.08 164.66 101.52
  Q 164.26 101.73 164.62 102.00"
/>
</g>
<path fill="#ffffff" d="
  M 0.00 0.00
  L 200.00 0.00
  L 200.00 150.00
  L 0.00 150.00
  L 0.00 0.00
  Z
  M 19.13 24.58
  Q 17.01 32.83 16.40 42.09
  L 16.22 43.63
  Q 14.85 58.13 14.64 69.00
  Q 14.46 77.64 14.62 96.51
  Q 13.68 97.97 14.69 99.30
  L 16.38 130.53
  Q 16.39 130.83 16.25 131.08
  L 16.07 131.43
  Q 15.24 131.57 14.62 131.96
  Q 14.16 132.23 14.05 132.70
  Q 13.90 133.30 14.41 133.65
  A 1.74 1.69 61.2 0 0 15.42 133.96
  Q 32.90 133.66 49.67 133.93
  Q 53.08 133.98 58.31 133.62
  Q 62.62 133.33 66.99 133.37
  Q 66.86 133.63 67.54 133.59
  L 72.45 133.87
  L 187.89 134.00
  Q 188.72 134.00 188.78 133.17
  L 188.80 132.92
  Q 188.91 131.55 187.54 131.54
  L 147.68 131.05
  L 147.88 109.42
  L 165.23 109.35
  L 172.61 109.33
  Q 173.16 109.33 173.15 108.78
  L 173.14 105.09
  L 180.99 104.68
  Q 181.51 104.65 181.50 104.13
  L 181.44 99.49
  L 187.94 99.27
  Q 188.79 99.24 188.79 98.39
  L 188.77 94.35
  Q 188.77 93.43 187.85 93.41
  L 182.30 93.29
  A 0.74 0.73 -89.6 0 1 181.58 92.55
  L 181.61 83.23
  A 0.25 0.24 83.5 0 0 181.31 82.99
  Q 180.47 83.19 180.22 84.26
  Q 179.62 86.83 178.99 89.42
  L 177.66 89.04
  Q 176.93 88.60 176.23 88.68
  Q 175.68 88.74 175.69 89.28
  L 175.71 92.96
  Q 175.71 93.38 175.29 93.38
  L 174.91 93.38
  Q 174.08 93.37 174.10 92.54
  L 174.34 83.27
  Q 174.35 82.78 173.89 82.97
  Q 172.72 83.47 172.45 84.75
  Q 171.84 87.59 171.19 88.76
  Q 169.08 90.27 170.47 93.12
  Q 170.80 92.50 169.90 93.39
  Q 154.44 93.42 139.25 93.38
  Q 138.97 93.38 138.76 93.27
  Q 138.53 93.15 138.33 93.00
  Q 137.84 91.69 136.51 91.64
  Q 133.21 91.50 131.42 89.75
  Q 131.06 89.40 130.84 89.86
  Q 130.10 91.43 130.76 93.33
  L 117.77 93.11
  L 117.19 91.05
  Q 116.73 89.40 118.45 89.43
  L 129.31 89.65
  Q 129.59 89.66 129.56 89.38
  Q 129.53 89.21 129.29 89.30
  A 0.41 0.41 0.0 0 1 128.79 89.11
  Q 128.35 88.28 129.11 87.71
  Q 130.90 86.36 132.91 85.37
  Q 133.35 85.15 133.84 85.15
  L 136.96 85.16
  L 141.76 85.32
  Q 142.23 85.57 143.22 85.40
  L 147.45 85.58
  Q 147.98 85.60 147.98 85.07
  Q 148.05 73.12 144.08 61.30
  C 140.89 51.79 133.65 40.24 123.26 38.81
  Q 119.75 38.32 113.53 38.64
  L 111.78 38.50
  Q 111.37 32.32 110.01 26.24
  Q 109.64 24.59 107.75 24.01
  C 99.31 21.41 94.12 21.62 83.03 21.59
  Q 46.79 21.49 33.38 21.61
  Q 27.14 21.66 19.13 24.58
  Z"
/>
<path fill="#b9ccdb" d="
  M 111.78 38.50
  Q 102.23 39.92 96.32 47.83
  Q 92.99 52.29 90.82 57.64
  L 74.93 42.07
  L 77.40 25.46
  A 0.72 0.72 0.0 0 0 76.66 24.63
  Q 73.80 24.77 71.58 24.77
  Q 58.23 24.78 41.55 24.79
  C 34.22 24.79 26.78 25.15 19.13 24.58
  Q 27.14 21.66 33.38 21.61
  Q 46.79 21.49 83.03 21.59
  C 94.12 21.62 99.31 21.41 107.75 24.01
  Q 109.64 24.59 110.01 26.24
  Q 111.37 32.32 111.78 38.50
  Z"
/>
<path fill="#9bb0c1" d="
  M 19.13 24.58
  C 26.78 25.15 34.22 24.79 41.55 24.79
  Q 58.23 24.78 71.58 24.77
  Q 73.80 24.77 76.66 24.63
  A 0.72 0.72 0.0 0 1 77.40 25.46
  L 74.93 42.07
  L 16.40 42.09
  Q 17.01 32.83 19.13 24.58
  Z
  M 33.00 37.96
  A 0.96 0.96 0.0 0 0 33.96 39.00
  L 56.05 39.00
  A 0.65 0.65 0.0 0 0 56.69 38.25
  Q 56.63 37.86 56.32 37.55
  A 1.15 1.14 -62.8 0 1 56.01 36.57
  L 56.64 32.87
  Q 56.74 32.26 56.12 32.26
  L 34.48 32.26
  Q 33.48 32.26 33.39 33.26
  L 33.00 37.96
  Z"
/>
<path fill="#899fac" d="
  M 33.00 37.96
  L 33.39 33.26
  Q 33.48 32.26 34.48 32.26
  L 56.12 32.26
  Q 56.74 32.26 56.64 32.87
  L 56.01 36.57
  A 1.15 1.14 -62.8 0 0 56.32 37.55
  Q 56.63 37.86 56.69 38.25
  A 0.65 0.65 0.0 0 1 56.05 39.00
  L 33.96 39.00
  A 0.96 0.96 0.0 0 1 33.00 37.96
  Z"
/>
<path fill="#4dc5dd" d="
  M 111.78 38.50
  L 113.53 38.64
  Q 114.68 38.57 114.98 38.62
  Q 117.00 38.92 115.09 39.66
  C 104.33 43.78 97.64 58.66 95.58 69.51
  Q 93.12 82.46 94.36 96.51
  L 85.82 96.50
  Q 85.08 85.91 85.34 82.00
  Q 86.14 69.81 90.29 58.55
  Q 90.25 58.05 90.82 57.64
  Q 92.99 52.29 96.32 47.83
  Q 102.23 39.92 111.78 38.50
  Z"
/>
<path fill="#66ebfa" d="
  M 143.22 85.40
  Q 142.78 84.66 142.77 84.26
  Q 142.73 73.84 138.93 63.85
  C 136.06 56.32 130.30 47.70 121.92 47.53
  C 110.91 47.30 104.31 62.22 102.36 71.14
  C 100.76 78.47 100.21 86.18 101.02 93.76
  Q 101.14 94.84 101.82 96.51
  L 94.36 96.51
  Q 93.12 82.46 95.58 69.51
  C 97.64 58.66 104.33 43.78 115.09 39.66
  Q 117.00 38.92 114.98 38.62
  Q 114.68 38.57 113.53 38.64
  Q 119.75 38.32 123.26 38.81
  C 133.65 40.24 140.89 51.79 144.08 61.30
  Q 148.05 73.12 147.98 85.07
  Q 147.98 85.60 147.45 85.58
  L 143.22 85.40
  Z"
/>
<path fill="#768c99" d="
  M 16.40 42.09
  L 74.93 42.07
  L 90.82 57.64
  Q 90.25 58.05 90.29 58.55
  L 74.93 43.61
  L 16.22 43.63
  L 16.40 42.09
  Z"
/>
<path fill="#9bb0c1" d="
  M 74.93 43.61
  Q 74.40 44.25 74.50 45.06
  Q 74.63 46.19 74.60 46.47
  Q 73.37 58.41 73.56 70.51
  L 63.84 70.50
  Q 62.36 70.50 62.35 71.98
  L 62.32 81.99
  L 45.99 82.20
  Q 44.20 78.24 39.02 77.80
  C 43.70 76.30 43.44 71.76 43.53 67.38
  Q 46.51 67.13 42.90 63.35
  Q 39.34 59.62 34.28 62.79
  Q 32.57 63.85 32.32 66.51
  Q 31.80 72.09 34.37 75.79
  L 34.31 77.49
  Q 31.43 77.87 29.03 79.50
  Q 26.81 81.00 27.81 84.19
  L 21.45 84.31
  Q 20.90 84.32 20.86 84.88
  Q 20.84 85.14 20.97 85.43
  Q 20.26 85.58 20.38 86.25
  Q 21.24 91.17 22.14 96.08
  Q 22.17 96.26 22.07 96.42
  Q 21.95 96.62 21.86 96.60
  L 14.62 96.51
  Q 14.46 77.64 14.64 69.00
  Q 14.85 58.13 16.22 43.63
  L 74.93 43.61
  Z"
/>
<path fill="#b9ccdb" d="
  M 74.93 43.61
  L 90.29 58.55
  Q 86.14 69.81 85.34 82.00
  Q 85.08 85.91 85.82 96.50
  L 84.94 96.48
  L 85.21 96.05
  Q 85.43 95.69 85.01 95.68
  Q 79.43 95.56 74.08 94.30
  Q 73.57 94.18 73.70 93.67
  Q 73.95 92.64 75.47 92.56
  Q 78.98 92.39 82.40 92.53
  Q 83.46 92.57 83.47 91.51
  L 83.52 71.47
  A 0.94 0.93 0.3 0 0 82.59 70.54
  L 73.56 70.51
  Q 73.37 58.41 74.60 46.47
  Q 74.63 46.19 74.50 45.06
  Q 74.40 44.25 74.93 43.61
  Z"
/>
<path fill="#768c99" d="
  M 143.22 85.40
  Q 142.23 85.57 141.76 85.32
  C 141.81 75.62 139.41 63.04 133.00 55.48
  Q 132.37 54.74 131.79 54.67
  Q 131.54 54.10 131.18 53.77
  Q 130.77 53.06 130.21 52.51
  Q 125.82 48.22 120.28 48.92
  C 110.92 50.12 105.71 61.86 103.70 70.02
  Q 100.55 82.82 102.30 95.94
  Q 101.56 96.38 101.82 96.51
  Q 101.14 94.84 101.02 93.76
  C 100.21 86.18 100.76 78.47 102.36 71.14
  C 104.31 62.22 110.91 47.30 121.92 47.53
  C 130.30 47.70 136.06 56.32 138.93 63.85
  Q 142.73 73.84 142.77 84.26
  Q 142.78 84.66 143.22 85.40
  Z"
/>
<path fill="#9bb0c1" d="
  M 131.18 53.77
  Q 129.37 53.62 129.92 55.45
  A 0.68 0.67 -36.1 0 0 131.12 55.63
  L 131.79 54.67
  Q 132.37 54.74 133.00 55.48
  C 139.41 63.04 141.81 75.62 141.76 85.32
  L 136.96 85.16
  Q 136.18 85.06 136.28 84.30
  Q 136.82 84.32 136.82 83.76
  C 136.77 75.55 133.90 65.45 127.20 60.32
  C 124.41 58.19 121.47 57.62 118.15 59.32
  C 110.25 63.36 107.86 73.13 106.65 81.04
  Q 105.74 87.00 106.70 92.79
  C 107.93 100.28 111.54 112.67 120.27 114.33
  Q 123.98 115.06 125.49 113.67
  Q 128.25 112.27 130.17 109.88
  Q 130.56 109.39 131.20 109.39
  L 137.16 109.46
  A 0.36 0.36 0.0 0 1 137.49 109.95
  Q 135.16 115.61 131.51 119.51
  C 124.47 127.02 115.46 124.99 109.99 117.21
  C 106.09 111.68 104.60 106.72 102.62 99.39
  L 102.30 95.94
  Q 100.55 82.82 103.70 70.02
  C 105.71 61.86 110.92 50.12 120.28 48.92
  Q 125.82 48.22 130.21 52.51
  Q 130.77 53.06 131.18 53.77
  Z
  M 119.7848 52.6894
  A 0.95 0.68 87.9 0 0 120.4295 51.7151
  A 0.95 0.68 87.9 0 0 119.7152 50.7906
  A 0.95 0.68 87.9 0 0 119.0705 51.7649
  A 0.95 0.68 87.9 0 0 119.7848 52.6894
  Z
  M 123.94 52.12
  Q 123.94 51.47 123.59 50.97
  Q 123.32 50.59 122.96 50.90
  Q 122.44 51.35 122.60 52.00
  Q 122.81 52.85 123.63 52.57
  A 0.48 0.47 80.6 0 0 123.94 52.12
  Z
  M 115.1833 56.7988
  A 1.82 0.89 92.1 0 0 116.1394 55.0126
  A 1.82 0.89 92.1 0 0 115.3167 53.1612
  A 1.82 0.89 92.1 0 0 114.3606 54.9474
  A 1.82 0.89 92.1 0 0 115.1833 56.7988
  Z
  M 120.90 54.86
  Q 120.60 55.51 121.01 56.04
  A 0.67 0.67 0.0 0 0 122.21 55.73
  Q 122.28 55.26 122.09 54.85
  A 0.66 0.66 0.0 0 0 120.90 54.86
  Z
  M 117.20 56.09
  Q 116.84 56.90 117.66 57.23
  Q 118.09 57.40 118.45 57.05
  A 0.92 0.91 34.9 0 0 118.18 55.56
  Q 117.56 55.29 117.20 56.09
  Z
  M 125.87 56.38
  A 0.82 0.82 0.0 0 0 125.05 55.56
  A 0.82 0.82 0.0 0 0 124.23 56.38
  A 0.82 0.82 0.0 0 0 125.05 57.20
  A 0.82 0.82 0.0 0 0 125.87 56.38
  Z
  M 129.80 58.38
  A 0.90 0.90 0.0 0 0 128.90 57.48
  A 0.90 0.90 0.0 0 0 128.00 58.38
  A 0.90 0.90 0.0 0 0 128.90 59.28
  A 0.90 0.90 0.0 0 0 129.80 58.38
  Z
  M 111.4511 60.1478
  A 1.31 1.16 125.4 0 0 113.1555 59.7520
  A 1.31 1.16 125.4 0 0 112.9689 58.0122
  A 1.31 1.16 125.4 0 0 111.2645 58.4080
  A 1.31 1.16 125.4 0 0 111.4511 60.1478
  Z
  M 131.69 59.57
  Q 131.15 60.38 132.01 60.95
  A 0.81 0.81 0.0 0 0 133.25 60.44
  Q 133.37 59.88 132.95 59.46
  A 0.81 0.81 0.0 0 0 131.69 59.57
  Z
  M 111.24 62.51
  A 1.19 1.19 0.0 0 0 110.05 61.32
  A 1.19 1.19 0.0 0 0 108.86 62.51
  A 1.19 1.19 0.0 0 0 110.05 63.70
  A 1.19 1.19 0.0 0 0 111.24 62.51
  Z
  M 109.35 66.00
  Q 109.49 64.66 108.15 64.76
  Q 107.27 64.82 107.04 66.07
  A 0.95 0.95 0.0 0 0 107.82 67.17
  Q 109.19 67.41 109.35 66.00
  Z"
/>
<ellipse fill="#ffffff" cx="0.00" cy="0.00" transform="translate(119.75,51.74) rotate(87.9)" rx="0.95" ry="0.68"/>
<path fill="#ffffff" d="
  M 123.94 52.12
  A 0.48 0.47 80.6 0 1 123.63 52.57
  Q 122.81 52.85 122.60 52.00
  Q 122.44 51.35 122.96 50.90
  Q 123.32 50.59 123.59 50.97
  Q 123.94 51.47 123.94 52.12
  Z"
/>
<ellipse fill="#ffffff" cx="0.00" cy="0.00" transform="translate(115.25,54.98) rotate(92.1)" rx="1.82" ry="0.89"/>
<path fill="#ffffff" d="
  M 131.18 53.77
  Q 131.54 54.10 131.79 54.67
  L 131.12 55.63
  A 0.68 0.67 -36.1 0 1 129.92 55.45
  Q 129.37 53.62 131.18 53.77
  Z"
/>
<path fill="#ffffff" d="
  M 120.90 54.86
  A 0.66 0.66 0.0 0 1 122.09 54.85
  Q 122.28 55.26 122.21 55.73
  A 0.67 0.67 0.0 0 1 121.01 56.04
  Q 120.60 55.51 120.90 54.86
  Z"
/>
<path fill="#ffffff" d="
  M 117.20 56.09
  Q 117.56 55.29 118.18 55.56
  A 0.92 0.91 34.9 0 1 118.45 57.05
  Q 118.09 57.40 117.66 57.23
  Q 116.84 56.90 117.20 56.09
  Z"
/>
<circle fill="#ffffff" cx="125.05" cy="56.38" r="0.82"/>
<circle fill="#ffffff" cx="128.90" cy="58.38" r="0.90"/>
<ellipse fill="#ffffff" cx="0.00" cy="0.00" transform="translate(112.21,59.08) rotate(125.4)" rx="1.31" ry="1.16"/>
<path fill="#768c99" d="
  M 136.28 84.30
  Q 135.94 83.85 135.90 83.12
  C 135.53 76.27 133.07 66.87 127.58 62.15
  C 121.89 57.27 115.58 60.74 112.39 66.44
  Q 108.36 73.65 107.78 82.77
  C 107.15 92.67 109.16 108.91 119.43 113.06
  Q 120.29 113.40 120.34 112.70
  Q 120.78 113.29 120.27 114.33
  C 111.54 112.67 107.93 100.28 106.70 92.79
  Q 105.74 87.00 106.65 81.04
  C 107.86 73.13 110.25 63.36 118.15 59.32
  C 121.47 57.62 124.41 58.19 127.20 60.32
  C 133.90 65.45 136.77 75.55 136.82 83.76
  Q 136.82 84.32 136.28 84.30
  Z"
/>
<path fill="#ffffff" d="
  M 131.69 59.57
  A 0.81 0.81 0.0 0 1 132.95 59.46
  Q 133.37 59.88 133.25 60.44
  A 0.81 0.81 0.0 0 1 132.01 60.95
  Q 131.15 60.38 131.69 59.57
  Z"
/>
<path fill="#b9ccdb" d="
  M 136.28 84.30
  Q 136.18 85.06 136.96 85.16
  L 133.84 85.15
  Q 133.35 85.15 132.91 85.37
  Q 130.90 86.36 129.11 87.71
  Q 128.35 88.28 128.79 89.11
  A 0.41 0.41 0.0 0 0 129.29 89.30
  Q 129.53 89.21 129.56 89.38
  Q 129.59 89.66 129.31 89.65
  L 118.45 89.43
  Q 116.73 89.40 117.19 91.05
  L 117.77 93.11
  L 115.19 93.57
  Q 113.46 89.71 113.84 84.81
  L 120.71 84.71
  L 119.44 87.63
  A 0.61 0.61 0.0 0 0 119.97 88.48
  L 125.22 88.80
  Q 125.92 88.85 126.38 88.32
  Q 128.04 86.45 130.93 84.87
  Q 129.57 82.33 129.69 80.32
  C 129.30 76.33 126.80 70.61 122.26 70.23
  C 116.70 69.77 113.74 77.45 113.58 81.84
  L 113.22 84.33
  Q 111.53 95.80 119.48 102.50
  Q 119.85 102.82 119.87 103.31
  L 120.23 111.41
  L 120.34 112.70
  Q 120.29 113.40 119.43 113.06
  C 109.16 108.91 107.15 92.67 107.78 82.77
  Q 108.36 73.65 112.39 66.44
  C 115.58 60.74 121.89 57.27 127.58 62.15
  C 133.07 66.87 135.53 76.27 135.90 83.12
  Q 135.94 83.85 136.28 84.30
  Z"
/>
<circle fill="#ffffff" cx="110.05" cy="62.51" r="1.19"/>
<path fill="#703110" d="
  M 43.53 67.38
  Q 41.45 65.39 41.47 70.19
  Q 41.48 70.80 40.90 70.63
  L 40.50 70.51
  A 0.63 0.63 0.0 0 0 39.77 71.41
  Q 41.49 74.56 38.00 76.01
  Q 37.15 76.36 34.37 75.79
  Q 31.80 72.09 32.32 66.51
  Q 32.57 63.85 34.28 62.79
  Q 39.34 59.62 42.90 63.35
  Q 46.51 67.13 43.53 67.38
  Z"
/>
<path fill="#ffffff" d="
  M 109.35 66.00
  Q 109.19 67.41 107.82 67.17
  A 0.95 0.95 0.0 0 1 107.04 66.07
  Q 107.27 64.82 108.15 64.76
  Q 109.49 64.66 109.35 66.00
  Z"
/>
<path fill="#fdc757" d="
  M 43.53 67.38
  C 43.44 71.76 43.70 76.30 39.02 77.80
  L 34.31 77.49
  L 34.37 75.79
  Q 37.15 76.36 38.00 76.01
  Q 41.49 74.56 39.77 71.41
  A 0.63 0.63 0.0 0 1 40.50 70.51
  L 40.90 70.63
  Q 41.48 70.80 41.47 70.19
  Q 41.45 65.39 43.53 67.38
  Z"
/>
<path fill="#768c99" d="
  M 129.69 80.32
  C 128.07 77.12 126.48 73.35 123.11 71.73
  C 120.46 70.46 117.48 73.69 116.31 75.77
  Q 114.69 78.65 113.58 81.84
  C 113.74 77.45 116.70 69.77 122.26 70.23
  C 126.80 70.61 129.30 76.33 129.69 80.32
  Z"
/>
<path fill="#ffffff" d="
  M 73.56 70.51
  L 82.59 70.54
  A 0.94 0.93 0.3 0 1 83.52 71.47
  L 83.47 91.51
  Q 83.46 92.57 82.40 92.53
  Q 78.98 92.39 75.47 92.56
  Q 73.95 92.64 73.70 93.67
  Q 73.57 94.18 74.08 94.30
  Q 79.43 95.56 85.01 95.68
  Q 85.43 95.69 85.21 96.05
  L 84.94 96.48
  L 79.78 96.66
  L 45.72 96.73
  Q 45.65 95.60 45.45 95.53
  L 51.67 95.11
  A 0.98 0.95 -30.3 0 1 52.24 95.25
  Q 52.95 95.67 53.58 95.28
  Q 54.01 95.03 54.50 95.03
  L 62.80 95.11
  L 71.71 94.97
  A 0.93 0.92 89.7 0 0 72.62 94.04
  L 72.62 93.43
  Q 72.62 92.48 71.68 92.48
  L 63.27 92.51
  A 0.93 0.93 0.0 0 1 62.33 91.59
  L 62.29 84.04
  L 62.32 81.99
  L 62.35 71.98
  Q 62.36 70.50 63.84 70.50
  L 73.56 70.51
  Z
  M 72.46 86.47
  Q 74.73 81.97 72.20 77.44
  Q 72.04 77.22 72.27 77.03
  Q 72.62 76.74 72.90 76.96
  Q 75.40 81.02 74.45 83.69
  Q 73.64 85.98 73.17 88.13
  Q 72.82 89.69 74.42 89.70
  L 80.84 89.77
  Q 81.97 89.78 81.97 88.66
  L 81.99 72.77
  Q 81.99 72.04 81.26 72.05
  L 64.79 72.12
  Q 64.21 72.12 64.20 72.71
  L 64.17 89.15
  Q 64.17 89.75 64.77 89.75
  L 72.01 89.74
  Q 72.69 89.74 72.43 89.11
  Q 72.11 88.31 72.46 86.47
  Z"
/>
<path fill="#50646f" d="
  M 129.69 80.32
  Q 129.57 82.33 130.93 84.87
  L 120.71 84.71
  L 113.84 84.81
  Q 113.64 85.08 113.22 84.33
  L 113.58 81.84
  Q 114.69 78.65 116.31 75.77
  C 117.48 73.69 120.46 70.46 123.11 71.73
  C 126.48 73.35 128.07 77.12 129.69 80.32
  Z"
/>
<path fill="#273238" d="
  M 72.90 76.96
  L 72.82 73.59
  Q 72.80 72.99 72.20 72.92
  Q 71.92 72.89 71.64 72.97
  A 0.62 0.62 0.0 0 0 71.20 73.59
  Q 71.20 73.79 71.11 73.97
  Q 70.88 74.41 70.39 74.40
  Q 69.55 74.37 68.69 74.88
  Q 68.28 75.12 67.93 74.85
  Q 67.18 74.26 68.09 74.00
  Q 68.74 73.81 69.19 73.42
  Q 69.99 72.70 68.95 72.98
  Q 67.99 73.24 67.23 72.99
  Q 66.59 72.78 66.55 73.45
  Q 66.38 76.56 70.51 75.48
  Q 70.82 76.36 70.52 76.78
  Q 66.68 81.98 68.72 88.09
  Q 68.97 88.84 69.52 88.27
  Q 69.94 87.82 69.80 87.29
  Q 69.65 86.75 70.21 86.69
  L 72.46 86.47
  Q 72.11 88.31 72.43 89.11
  Q 72.69 89.74 72.01 89.74
  L 64.77 89.75
  Q 64.17 89.75 64.17 89.15
  L 64.20 72.71
  Q 64.21 72.12 64.79 72.12
  L 81.26 72.05
  Q 81.99 72.04 81.99 72.77
  L 81.97 88.66
  Q 81.97 89.78 80.84 89.77
  L 74.42 89.70
  Q 72.82 89.69 73.17 88.13
  Q 73.64 85.98 74.45 83.69
  Q 75.40 81.02 72.90 76.96
  Z"
/>
<path fill="#768c99" d="
  M 72.90 76.96
  Q 72.62 76.74 72.27 77.03
  Q 72.04 77.22 72.20 77.44
  L 70.51 75.48
  Q 66.38 76.56 66.55 73.45
  Q 66.59 72.78 67.23 72.99
  Q 67.99 73.24 68.95 72.98
  Q 69.99 72.70 69.19 73.42
  Q 68.74 73.81 68.09 74.00
  Q 67.18 74.26 67.93 74.85
  Q 68.28 75.12 68.69 74.88
  Q 69.55 74.37 70.39 74.40
  Q 70.88 74.41 71.11 73.97
  Q 71.20 73.79 71.20 73.59
  A 0.62 0.62 0.0 0 1 71.64 72.97
  Q 71.92 72.89 72.20 72.92
  Q 72.80 72.99 72.82 73.59
  L 72.90 76.96
  Z"
/>
<path fill="#50646f" d="
  M 70.51 75.48
  L 72.20 77.44
  Q 74.73 81.97 72.46 86.47
  L 70.21 86.69
  Q 69.65 86.75 69.80 87.29
  Q 69.94 87.82 69.52 88.27
  Q 68.97 88.84 68.72 88.09
  Q 66.68 81.98 70.52 76.78
  Q 70.82 76.36 70.51 75.48
  Z"
/>
<path fill="#66ebfa" d="
  M 34.31 77.49
  L 39.02 77.80
  Q 44.20 78.24 45.99 82.20
  L 47.03 83.96
  C 47.53 85.65 49.11 87.09 48.17 88.87
  L 45.74 89.87
  Q 45.04 89.78 44.84 90.10
  Q 41.52 87.43 39.67 84.22
  L 27.81 84.19
  Q 26.81 81.00 29.03 79.50
  Q 31.43 77.87 34.31 77.49
  Z"
/>
<path fill="#768c99" d="
  M 62.32 81.99
  L 62.29 84.04
  Q 61.85 84.21 61.46 83.84
  A 0.87 0.86 65.2 0 0 60.85 83.61
  L 47.03 83.96
  L 45.99 82.20
  L 62.32 81.99
  Z"
/>
<path fill="#b9ccdb" d="
  M 177.66 89.04
  Q 176.50 91.39 177.86 92.90
  A 0.79 0.79 0.0 0 0 179.22 92.50
  Q 179.49 90.80 178.99 89.42
  Q 179.62 86.83 180.22 84.26
  Q 180.47 83.19 181.31 82.99
  A 0.25 0.24 83.5 0 1 181.61 83.23
  L 181.58 92.55
  A 0.74 0.73 -89.6 0 0 182.30 93.29
  L 187.85 93.41
  Q 188.77 93.43 188.77 94.35
  L 188.79 98.39
  Q 188.79 99.24 187.94 99.27
  L 181.44 99.49
  L 172.28 98.99
  A 2.42 2.41 -89.4 0 1 170.00 96.65
  L 169.90 93.39
  Q 170.80 92.50 170.47 93.12
  Q 173.59 92.71 171.19 88.76
  Q 171.84 87.59 172.45 84.75
  Q 172.72 83.47 173.89 82.97
  Q 174.35 82.78 174.34 83.27
  L 174.10 92.54
  Q 174.08 93.37 174.91 93.38
  L 175.29 93.38
  Q 175.71 93.38 175.71 92.96
  L 175.69 89.28
  Q 175.68 88.74 176.23 88.68
  Q 176.93 88.60 177.66 89.04
  Z"
/>
<path fill="#9bb0c1" d="
  M 62.29 84.04
  L 62.33 91.59
  A 0.93 0.93 0.0 0 0 63.27 92.51
  L 71.68 92.48
  Q 72.62 92.48 72.62 93.43
  L 72.62 94.04
  A 0.93 0.92 89.7 0 1 71.71 94.97
  L 62.80 95.11
  Q 62.33 93.97 61.24 93.83
  Q 53.85 92.88 48.17 88.87
  C 49.11 87.09 47.53 85.65 47.03 83.96
  L 60.85 83.61
  A 0.87 0.86 65.2 0 1 61.46 83.84
  Q 61.85 84.21 62.29 84.04
  Z"
/>
<path fill="#ffffff" d="
  M 39.67 84.22
  L 42.53 100.24
  Q 41.95 101.44 41.11 101.32
  L 38.33 86.52
  Q 38.19 85.81 37.48 85.73
  L 37.22 85.70
  A 0.43 0.43 0.0 0 0 36.75 86.21
  L 39.49 101.15
  L 30.93 101.35
  L 24.99 101.19
  Q 24.52 100.88 24.42 100.38
  Q 23.03 93.46 21.81 86.50
  Q 21.71 85.94 20.97 85.43
  Q 20.84 85.14 20.86 84.88
  Q 20.90 84.32 21.45 84.31
  L 27.81 84.19
  L 39.67 84.22
  Z"
/>
<path fill="#4dc5dd" d="
  M 39.67 84.22
  Q 41.52 87.43 44.84 90.10
  L 44.79 93.15
  Q 44.76 95.03 45.45 95.53
  Q 45.65 95.60 45.72 96.73
  Q 44.65 96.02 45.76 99.08
  Q 45.92 101.44 47.52 103.97
  L 43.45 107.41
  Q 43.31 107.53 43.19 107.38
  L 43.03 107.18
  Q 42.79 106.88 43.11 106.67
  L 44.22 105.96
  Q 44.71 105.65 44.62 105.08
  Q 44.22 102.33 42.53 100.24
  L 39.67 84.22
  Z"
/>
<path fill="#768c99" d="
  M 113.22 84.33
  Q 113.64 85.08 113.84 84.81
  Q 113.46 89.71 115.19 93.57
  Q 115.89 96.38 117.39 98.43
  Q 117.69 98.85 118.19 98.91
  L 120.88 99.24
  Q 120.55 101.04 122.00 101.04
  Q 139.56 101.04 157.58 101.00
  A 1.41 1.40 80.2 0 1 158.92 101.95
  Q 159.00 102.15 159.05 102.31
  A 0.53 0.53 0.0 0 1 158.56 103.02
  Q 140.39 103.56 122.99 103.04
  Q 122.30 103.01 121.66 103.11
  Q 121.21 103.17 121.26 103.63
  L 121.30 104.00
  Q 121.35 104.44 121.80 104.44
  Q 141.89 104.22 162.60 104.63
  Q 163.46 104.65 163.54 105.50
  L 163.72 107.40
  Q 163.77 107.94 164.27 108.18
  Q 165.12 108.58 165.23 109.35
  L 147.88 109.42
  L 144.25 109.50
  L 139.32 109.50
  Q 138.78 109.50 138.59 110.00
  C 136.30 116.02 131.19 123.47 124.88 125.01
  C 111.35 128.31 103.51 110.09 102.04 99.40
  Q 102.04 99.78 102.62 99.39
  C 104.60 106.72 106.09 111.68 109.99 117.21
  C 115.46 124.99 124.47 127.02 131.51 119.51
  Q 135.16 115.61 137.49 109.95
  A 0.36 0.36 0.0 0 0 137.16 109.46
  L 131.20 109.39
  Q 130.56 109.39 130.17 109.88
  Q 128.25 112.27 125.49 113.67
  L 125.30 112.53
  Q 127.35 111.58 128.47 109.93
  Q 128.76 109.50 128.24 109.44
  Q 126.67 109.26 125.24 109.74
  Q 119.93 108.33 120.23 111.41
  L 119.87 103.31
  Q 119.85 102.82 119.48 102.50
  Q 111.53 95.80 113.22 84.33
  Z"
/>
<path fill="#ffffff" d="
  M 130.93 84.87
  Q 128.04 86.45 126.38 88.32
  Q 125.92 88.85 125.22 88.80
  L 119.97 88.48
  A 0.61 0.61 0.0 0 1 119.44 87.63
  L 120.71 84.71
  L 130.93 84.87
  Z"
/>
<path fill="#6d7279" d="
  M 20.97 85.43
  Q 21.71 85.94 21.81 86.50
  Q 23.03 93.46 24.42 100.38
  Q 24.52 100.88 24.99 101.19
  Q 24.37 101.22 24.48 102.26
  Q 24.79 105.34 25.64 109.23
  Q 25.71 109.57 25.58 109.86
  Q 25.39 110.31 25.86 110.43
  L 26.45 110.58
  Q 25.93 111.99 27.62 112.38
  Q 28.87 112.66 33.26 112.43
  Q 35.81 121.64 36.85 131.74
  Q 36.99 133.11 38.13 132.91
  A 1.37 1.37 0.0 0 0 39.25 131.77
  Q 40.57 123.25 41.52 114.76
  Q 41.56 114.37 42.22 113.39
  A 0.53 0.47 -33.2 0 0 42.31 113.05
  Q 42.24 112.44 41.54 112.40
  Q 41.85 111.52 40.99 110.49
  Q 41.10 109.56 40.82 108.70
  L 39.49 101.15
  L 36.75 86.21
  A 0.43 0.43 0.0 0 1 37.22 85.70
  L 37.48 85.73
  Q 38.19 85.81 38.33 86.52
  L 41.11 101.32
  L 42.59 109.12
  L 42.94 110.88
  Q 43.28 113.11 48.77 112.39
  Q 50.67 113.60 50.96 115.52
  Q 52.09 122.84 52.72 130.28
  Q 52.88 132.12 53.80 132.59
  Q 54.91 133.16 56.80 132.62
  Q 61.37 133.74 66.99 133.37
  Q 62.62 133.33 58.31 133.62
  Q 53.08 133.98 49.67 133.93
  Q 32.90 133.66 15.42 133.96
  A 1.74 1.69 61.2 0 1 14.41 133.65
  Q 13.90 133.30 14.05 132.70
  Q 14.16 132.23 14.62 131.96
  Q 15.24 131.57 16.07 131.43
  L 17.65 132.42
  Q 18.13 132.72 18.32 132.18
  Q 18.47 131.74 18.39 130.99
  L 18.46 132.17
  Q 19.93 133.69 22.23 132.51
  Q 22.68 132.28 22.74 131.78
  L 24.93 115.13
  A 1.97 1.93 67.9 0 1 25.30 114.23
  Q 26.08 113.21 24.95 112.59
  Q 24.42 112.29 24.23 111.69
  Q 24.09 111.24 24.40 110.88
  Q 24.74 110.50 24.63 110.00
  L 22.29 99.18
  Q 22.47 97.56 21.86 96.60
  Q 21.95 96.62 22.07 96.42
  Q 22.17 96.26 22.14 96.08
  Q 21.24 91.17 20.38 86.25
  Q 20.26 85.58 20.97 85.43
  Z
  M 34.79 132.61
  Q 35.23 132.64 35.19 132.20
  Q 34.39 123.98 33.28 115.70
  A 1.93 1.92 -3.0 0 0 31.43 114.04
  L 27.68 113.92
  A 1.57 1.57 0.0 0 0 26.07 115.30
  L 24.14 131.71
  A 1.11 1.11 0.0 0 0 24.38 132.55
  Q 24.84 133.11 25.45 132.84
  Q 26.00 132.59 26.60 132.66
  Q 30.24 133.11 33.90 133.02
  Q 34.27 133.01 34.52 132.72
  Q 34.63 132.59 34.79 132.61
  Z
  M 43.60 123.96
  L 43.62 115.68
  Q 43.62 115.28 43.23 115.37
  L 42.92 115.44
  A 0.81 0.80 -4.6 0 0 42.31 116.15
  L 40.98 131.97
  Q 40.94 132.37 41.29 132.58
  Q 42.02 133.03 43.55 132.74
  L 50.94 132.56
  A 0.77 0.76 85.9 0 0 51.68 131.70
  L 49.57 115.39
  A 1.56 1.56 0.0 0 0 48.01 114.03
  L 44.70 114.07
  Q 43.68 114.08 43.67 115.10
  L 43.60 123.96
  Z"
/>
<path fill="#fdc757" d="
  M 48.17 88.87
  Q 53.85 92.88 61.24 93.83
  Q 62.33 93.97 62.80 95.11
  L 54.50 95.03
  Q 54.01 95.03 53.58 95.28
  Q 52.95 95.67 52.24 95.25
  A 0.98 0.95 -30.3 0 0 51.67 95.11
  L 45.45 95.53
  Q 44.76 95.03 44.79 93.15
  L 45.94 92.80
  Q 46.64 92.58 46.19 92.00
  L 45.18 90.71
  A 0.23 0.22 -70.3 0 1 45.14 90.62
  Q 45.02 89.87 45.74 89.87
  L 48.17 88.87
  Z"
/>
<path fill="#fdc757" d="
  M 171.19 88.76
  Q 173.59 92.71 170.47 93.12
  Q 169.08 90.27 171.19 88.76
  Z"
/>
<path fill="#fdc757" d="
  M 177.66 89.04
  L 178.99 89.42
  Q 179.49 90.80 179.22 92.50
  A 0.79 0.79 0.0 0 1 177.86 92.90
  Q 176.50 91.39 177.66 89.04
  Z"
/>
<path fill="#fdc757" d="
  M 138.33 93.00
  L 138.02 93.22
  Q 137.79 93.38 137.50 93.38
  L 130.76 93.33
  Q 130.10 91.43 130.84 89.86
  Q 131.06 89.40 131.42 89.75
  Q 133.21 91.50 136.51 91.64
  Q 137.84 91.69 138.33 93.00
  Z"
/>
<path fill="#9bb0c1" d="
  M 45.74 89.87
  Q 45.02 89.87 45.14 90.62
  A 0.23 0.22 -70.3 0 0 45.18 90.71
  L 46.19 92.00
  Q 46.64 92.58 45.94 92.80
  L 44.79 93.15
  L 44.84 90.10
  Q 45.04 89.78 45.74 89.87
  Z"
/>
<path fill="#9bb0c1" d="
  M 117.77 93.11
  L 130.76 93.33
  L 137.50 93.38
  Q 137.79 93.38 138.02 93.22
  L 138.33 93.00
  Q 138.53 93.15 138.76 93.27
  Q 138.97 93.38 139.25 93.38
  Q 154.44 93.42 169.90 93.39
  L 170.00 96.65
  A 2.42 2.41 -89.4 0 0 172.28 98.99
  L 181.44 99.49
  L 181.50 104.13
  Q 181.51 104.65 180.99 104.68
  L 173.14 105.09
  Q 171.31 104.48 171.05 103.23
  Q 170.69 101.58 170.47 100.35
  Q 170.28 99.31 169.23 99.31
  L 120.88 99.24
  L 118.19 98.91
  Q 117.69 98.85 117.39 98.43
  Q 115.89 96.38 115.19 93.57
  L 117.77 93.11
  Z"
/>
<path fill="#7b3a14" d="
  M 102.30 95.94
  L 102.62 99.39
  Q 102.04 99.78 102.04 99.40
  L 98.50 99.04
  L 80.54 99.07
  Q 80.85 98.32 80.01 97.99
  Q 79.52 97.80 79.64 97.29
  L 79.78 96.66
  L 84.94 96.48
  L 85.82 96.50
  L 94.36 96.51
  L 101.82 96.51
  Q 101.56 96.38 102.30 95.94
  Z"
/>
<path fill="#994f17" d="
  M 14.62 96.51
  L 21.86 96.60
  Q 22.47 97.56 22.29 99.18
  Q 21.56 99.10 20.99 99.45
  Q 20.58 99.70 20.62 100.19
  C 20.84 102.90 21.28 105.49 21.11 108.23
  Q 20.55 117.28 21.18 126.28
  C 21.33 128.35 20.89 130.04 20.77 132.03
  Q 20.74 132.54 20.24 132.62
  Q 19.34 132.77 18.46 132.17
  L 18.39 130.99
  L 18.31 99.99
  Q 18.31 99.48 17.82 99.37
  Q 16.26 99.00 14.69 99.30
  Q 13.68 97.97 14.62 96.51
  Z"
/>
<path fill="#994f17" d="
  M 45.72 96.73
  L 79.78 96.66
  L 79.64 97.29
  Q 79.52 97.80 80.01 97.99
  Q 80.85 98.32 80.54 99.07
  L 75.38 99.32
  A 0.42 0.41 -18.2 0 0 75.05 99.96
  Q 75.64 100.88 75.60 102.68
  Q 75.17 114.04 75.42 125.75
  Q 75.48 128.51 75.11 131.25
  Q 75.00 132.07 75.47 132.88
  Q 75.49 132.54 75.28 133.03
  Q 74.60 133.17 74.03 133.05
  A 0.77 0.77 0.0 0 1 73.43 132.41
  L 73.28 131.53
  L 73.25 99.81
  A 0.70 0.69 0.0 0 0 72.55 99.12
  L 45.76 99.08
  Q 44.65 96.02 45.72 96.73
  Z"
/>
<path fill="#703110" d="
  M 98.50 99.04
  L 98.72 114.33
  Q 98.62 114.63 98.51 114.93
  L 75.60 102.68
  Q 75.64 100.88 75.05 99.96
  A 0.42 0.41 -18.2 0 1 75.38 99.32
  L 80.54 99.07
  L 98.50 99.04
  Z"
/>
<path fill="#9bb0c1" d="
  M 45.76 99.08
  L 72.55 99.12
  A 0.70 0.69 -0.0 0 1 73.25 99.81
  L 73.28 131.53
  Q 73.45 132.47 72.75 132.49
  Q 70.59 132.55 68.12 132.87
  Q 65.34 130.14 61.63 130.23
  Q 60.26 126.06 60.25 124.50
  Q 60.24 116.35 60.19 108.81
  Q 60.17 104.95 56.32 104.65
  L 47.52 103.97
  Q 45.92 101.44 45.76 99.08
  Z"
/>
<path fill="#66ebfa" d="
  M 98.50 99.04
  L 102.04 99.40
  C 103.51 110.09 111.35 128.31 124.88 125.01
  C 131.19 123.47 136.30 116.02 138.59 110.00
  Q 138.78 109.50 139.32 109.50
  L 144.25 109.50
  Q 140.34 122.94 129.04 131.15
  L 113.06 131.28
  C 111.27 129.58 109.13 128.29 107.59 126.61
  Q 102.84 121.43 98.72 114.33
  L 98.50 99.04
  Z"
/>
<path fill="#899fac" d="
  M 173.14 105.09
  L 173.15 108.78
  Q 173.16 109.33 172.61 109.33
  L 165.23 109.35
  Q 165.12 108.58 164.27 108.18
  Q 163.77 107.94 163.72 107.40
  L 163.54 105.50
  Q 163.46 104.65 162.60 104.63
  Q 141.89 104.22 121.80 104.44
  Q 121.35 104.44 121.30 104.00
  L 121.26 103.63
  Q 121.21 103.17 121.66 103.11
  Q 122.30 103.01 122.99 103.04
  Q 140.39 103.56 158.56 103.02
  A 0.53 0.53 0.0 0 0 159.05 102.31
  Q 159.00 102.15 158.92 101.95
  A 1.41 1.40 80.2 0 0 157.58 101.00
  Q 139.56 101.04 122.00 101.04
  Q 120.55 101.04 120.88 99.24
  L 169.23 99.31
  Q 170.28 99.31 170.47 100.35
  Q 170.69 101.58 171.05 103.23
  Q 171.31 104.48 173.14 105.09
  Z
  M 164.62 102.00
  Q 165.47 102.64 166.46 102.76
  Q 167.09 102.83 167.04 102.19
  L 167.02 101.82
  Q 166.98 101.32 166.49 101.24
  Q 165.50 101.08 164.66 101.52
  Q 164.26 101.73 164.62 102.00
  Z"
/>
<path fill="#9bb0c1" d="
  M 14.69 99.30
  Q 16.26 99.00 17.82 99.37
  Q 18.31 99.48 18.31 99.99
  L 18.39 130.99
  Q 18.47 131.74 18.32 132.18
  Q 18.13 132.72 17.65 132.42
  L 16.07 131.43
  L 16.25 131.08
  Q 16.39 130.83 16.38 130.53
  L 14.69 99.30
  Z"
/>
<path fill="#7b3a14" d="
  M 22.29 99.18
  L 24.63 110.00
  Q 24.74 110.50 24.40 110.88
  Q 24.09 111.24 24.23 111.69
  Q 24.42 112.29 24.95 112.59
  Q 26.08 113.21 25.30 114.23
  A 1.97 1.93 67.9 0 0 24.93 115.13
  L 22.74 131.78
  Q 22.68 132.28 22.23 132.51
  Q 19.93 133.69 18.46 132.17
  Q 19.34 132.77 20.24 132.62
  Q 20.74 132.54 20.77 132.03
  C 20.89 130.04 21.33 128.35 21.18 126.28
  Q 20.55 117.28 21.11 108.23
  C 21.28 105.49 20.84 102.90 20.62 100.19
  Q 20.58 99.70 20.99 99.45
  Q 21.56 99.10 22.29 99.18
  Z"
/>
<path fill="#66ebfa" d="
  M 42.53 100.24
  Q 44.22 102.33 44.62 105.08
  Q 44.71 105.65 44.22 105.96
  L 43.11 106.67
  Q 42.79 106.88 43.03 107.18
  L 43.19 107.38
  Q 43.31 107.53 43.45 107.41
  L 47.52 103.97
  L 56.32 104.65
  Q 60.17 104.95 60.19 108.81
  Q 60.24 116.35 60.25 124.50
  Q 60.26 126.06 61.63 130.23
  L 58.23 130.24
  L 55.56 112.06
  A 2.61 2.60 87.7 0 0 53.16 109.84
  L 42.59 109.12
  L 41.11 101.32
  Q 41.95 101.44 42.53 100.24
  Z"
/>
<path fill="#66ebfa" d="
  M 39.49 101.15
  L 40.82 108.70
  L 31.46 108.86
  L 30.29 108.31
  Q 29.86 108.11 29.93 107.65
  L 30.93 101.35
  L 39.49 101.15
  Z"
/>
<path fill="#703110" d="
  M 24.99 101.19
  L 30.93 101.35
  L 29.93 107.65
  Q 29.86 108.11 30.29 108.31
  L 31.46 108.86
  L 32.36 110.48
  L 26.45 110.58
  L 25.86 110.43
  Q 25.39 110.31 25.58 109.86
  Q 25.71 109.57 25.64 109.23
  Q 24.79 105.34 24.48 102.26
  Q 24.37 101.22 24.99 101.19
  Z"
/>
<path fill="#9bb0c1" d="
  M 164.62 102.00
  Q 164.26 101.73 164.66 101.52
  Q 165.50 101.08 166.49 101.24
  Q 166.98 101.32 167.02 101.82
  L 167.04 102.19
  Q 167.09 102.83 166.46 102.76
  Q 165.47 102.64 164.62 102.00
  Z"
/>
<path fill="#7b3a14" d="
  M 75.60 102.68
  L 98.51 114.93
  L 98.51 126.63
  L 98.33 130.87
  Q 98.56 131.65 98.28 132.17
  Q 98.04 132.63 97.52 132.63
  L 75.47 132.88
  Q 75.00 132.07 75.11 131.25
  Q 75.48 128.51 75.42 125.75
  Q 75.17 114.04 75.60 102.68
  Z"
/>
<path fill="#4dc5dd" d="
  M 40.82 108.70
  Q 41.10 109.56 40.99 110.49
  L 32.36 110.48
  L 31.46 108.86
  L 40.82 108.70
  Z"
/>
<path fill="#4dc5dd" d="
  M 58.23 130.24
  L 56.90 130.32
  L 55.01 119.41
  Q 54.93 118.97 54.54 118.74
  Q 54.26 118.58 54.16 118.24
  Q 53.31 115.12 51.40 111.12
  Q 47.65 110.27 42.94 110.88
  L 42.59 109.12
  L 53.16 109.84
  A 2.61 2.60 87.7 0 1 55.56 112.06
  L 58.23 130.24
  Z"
/>
<path fill="#50646f" d="
  M 125.24 109.74
  L 125.30 112.53
  L 125.49 113.67
  Q 123.98 115.06 120.27 114.33
  Q 120.78 113.29 120.34 112.70
  L 120.23 111.41
  Q 119.93 108.33 125.24 109.74
  Z"
/>
<path fill="#b9ccdb" d="
  M 125.30 112.53
  L 125.24 109.74
  Q 126.67 109.26 128.24 109.44
  Q 128.76 109.50 128.47 109.93
  Q 127.35 111.58 125.30 112.53
  Z"
/>
<path fill="#9bb0c1" d="
  M 144.25 109.50
  L 147.88 109.42
  L 147.68 131.05
  Q 147.28 131.49 146.75 131.50
  Q 139.26 131.72 129.04 131.15
  Q 140.34 122.94 144.25 109.50
  Z"
/>
<path fill="#ffffff" d="
  M 26.45 110.58
  L 32.36 110.48
  L 40.99 110.49
  Q 41.85 111.52 41.54 112.40
  L 33.26 112.43
  Q 28.87 112.66 27.62 112.38
  Q 25.93 111.99 26.45 110.58
  Z"
/>
<path fill="#b9ccdb" d="
  M 42.94 110.88
  Q 47.65 110.27 51.40 111.12
  Q 51.91 112.07 50.86 112.22
  Q 49.81 112.37 48.77 112.39
  Q 43.28 113.11 42.94 110.88
  Z"
/>
<path fill="#9bb0c1" d="
  M 51.40 111.12
  Q 53.31 115.12 54.16 118.24
  Q 54.26 118.58 54.54 118.74
  Q 54.93 118.97 55.01 119.41
  L 56.90 130.32
  L 56.80 132.62
  Q 54.91 133.16 53.80 132.59
  Q 52.88 132.12 52.72 130.28
  Q 52.09 122.84 50.96 115.52
  Q 50.67 113.60 48.77 112.39
  Q 49.81 112.37 50.86 112.22
  Q 51.91 112.07 51.40 111.12
  Z"
/>
<path fill="#703110" d="
  M 33.26 112.43
  L 41.54 112.40
  Q 42.24 112.44 42.31 113.05
  A 0.53 0.47 -33.2 0 1 42.22 113.39
  Q 41.56 114.37 41.52 114.76
  Q 40.57 123.25 39.25 131.77
  A 1.37 1.37 0.0 0 1 38.13 132.91
  Q 36.99 133.11 36.85 131.74
  Q 35.81 121.64 33.26 112.43
  Z"
/>
<path fill="#703110" d="
  M 34.52 132.72
  Q 34.27 133.01 33.90 133.02
  Q 30.24 133.11 26.60 132.66
  Q 26.00 132.59 25.45 132.84
  Q 24.84 133.11 24.38 132.55
  A 1.11 1.11 0.0 0 1 24.14 131.71
  L 26.07 115.30
  A 1.57 1.57 0.0 0 1 27.68 113.92
  L 31.43 114.04
  A 1.93 1.92 -3.0 0 1 33.28 115.70
  Q 34.39 123.98 35.19 132.20
  Q 35.23 132.64 34.79 132.61
  Q 34.63 132.59 34.52 132.72
  Z"
/>
<path fill="#9bb0c1" d="
  M 43.55 132.74
  L 43.60 123.96
  L 43.67 115.10
  Q 43.68 114.08 44.70 114.07
  L 48.01 114.03
  A 1.56 1.56 0.0 0 1 49.57 115.39
  L 51.68 131.70
  A 0.77 0.76 85.9 0 1 50.94 132.56
  L 43.55 132.74
  Z"
/>
<path fill="#4dc5dd" d="
  M 98.72 114.33
  Q 102.84 121.43 107.59 126.61
  C 109.13 128.29 111.27 129.58 113.06 131.28
  L 104.57 131.20
  L 98.51 126.63
  L 98.51 114.93
  Q 98.62 114.63 98.72 114.33
  Z"
/>
<path fill="#703110" d="
  M 43.60 123.96
  L 43.55 132.74
  Q 42.02 133.03 41.29 132.58
  Q 40.94 132.37 40.98 131.97
  L 42.31 116.15
  A 0.81 0.80 -4.6 0 1 42.92 115.44
  L 43.23 115.37
  Q 43.62 115.28 43.62 115.68
  L 43.60 123.96
  Z"
/>
<path fill="#b9ccdb" d="
  M 98.51 126.63
  L 104.57 131.20
  Q 100.34 131.78 98.33 130.87
  L 98.51 126.63
  Z"
/>
<path fill="#273238" d="
  M 56.90 130.32
  L 58.23 130.24
  L 61.63 130.23
  Q 65.34 130.14 68.12 132.87
  Q 68.37 132.83 68.40 133.10
  Q 68.43 133.43 68.11 133.49
  L 67.54 133.59
  Q 66.86 133.63 66.99 133.37
  Q 61.37 133.74 56.80 132.62
  L 56.90 130.32
  Z"
/>
<path fill="#8e9295" d="
  M 98.33 130.87
  Q 100.34 131.78 104.57 131.20
  L 113.06 131.28
  L 129.04 131.15
  Q 139.26 131.72 146.75 131.50
  Q 147.28 131.49 147.68 131.05
  L 187.54 131.54
  Q 188.91 131.55 188.80 132.92
  L 188.78 133.17
  Q 188.72 134.00 187.89 134.00
  L 72.45 133.87
  Q 74.92 133.92 75.28 133.03
  Q 75.49 132.54 75.47 132.88
  L 97.52 132.63
  Q 98.04 132.63 98.28 132.17
  Q 98.56 131.65 98.33 130.87
  Z"
/>
<path fill="#6d7279" d="
  M 73.28 131.53
  L 73.43 132.41
  A 0.77 0.77 0.0 0 0 74.03 133.05
  Q 74.60 133.17 75.28 133.03
  Q 74.92 133.92 72.45 133.87
  L 67.54 133.59
  L 68.11 133.49
  Q 68.43 133.43 68.40 133.10
  Q 68.37 132.83 68.12 132.87
  Q 70.59 132.55 72.75 132.49
  Q 73.45 132.47 73.28 131.53
  Z"
/>
</svg>
