<?xml version="1.0" encoding="UTF-8" standalone="no"?>
<!DOCTYPE svg PUBLIC "-//W3C//DTD SVG 1.1//EN" "http://www.w3.org/Graphics/SVG/1.1/DTD/svg11.dtd">
<svg xmlns="http://www.w3.org/2000/svg" version="1.1" viewBox="0.00 0.00 200.00 150.00">
<g stroke-width="2.00" fill="none" stroke-linecap="butt">
<path stroke="#c6ebff" vector-effect="non-scaling-stroke" d="
  M 0.00 105.95
  L 19.12 105.92"
/>
<path stroke="#96bacc" vector-effect="non-scaling-stroke" d="
  M 19.12 105.92
  Q 18.57 110.57 21.25 110.55
  Q 25.80 110.51 30.47 110.51"
/>
<path stroke="#83afc7" vector-effect="non-scaling-stroke" d="
  M 30.47 110.51
  L 28.64 125.69"
/>
<path stroke="#829cac" vector-effect="non-scaling-stroke" d="
  M 28.64 125.69
  Q 27.71 127.95 25.85 129.65"
/>
<path stroke="#a4a3aa" vector-effect="non-scaling-stroke" d="
  M 25.85 129.65
  Q 25.91 130.39 25.47 130.80
  Q 25.13 131.11 24.66 131.12
  Q 12.45 131.38 0.49 131.21
  Q 0.21 131.20 0.21 131.48
  L 0.21 131.77
  A 0.23 0.23 0.0 0 0 0.44 132.00
  L 33.07 132.00"
/>
<path stroke="#829cac" vector-effect="non-scaling-stroke" d="
  M 33.07 132.00
  L 86.32 131.95"
/>
<path stroke="#a4a3aa" vector-effect="non-scaling-stroke" d="
  M 86.32 131.95
  L 193.04 132.04
  Q 193.20 132.04 193.20 131.89
  L 193.22 131.56
  Q 193.24 131.28 192.96 131.28
  L 174.71 131.14"
/>
<path stroke="#e4f6ff" vector-effect="non-scaling-stroke" d="
  M 174.71 131.14
  L 169.51 131.03
  Q 169.01 131.02 169.35 130.65
  L 172.92 126.75"
/>
<path stroke="#b2e1fa" vector-effect="non-scaling-stroke" d="
  M 172.92 126.75
  C 182.63 127.22 186.73 103.04 187.23 96.25"
/>
<path stroke="#d4f1ff" vector-effect="non-scaling-stroke" d="
  M 187.23 96.25
  Q 190.93 96.60 191.68 92.23"
/>
<path stroke="#ecf8ff" vector-effect="non-scaling-stroke" d="
  M 191.68 92.23
  Q 202.70 74.15 198.19 53.50
  C 195.13 39.52 184.75 27.34 171.05 23.66
  C 163.88 21.73 154.78 22.11 147.37 23.63
  C 133.75 26.44 119.90 30.80 105.55 32.76
  C 93.34 34.43 82.11 32.99 71.01 28.36
  C 47.21 18.45 19.32 24.64 6.60 47.59
  C 0.23 59.07 0.24 72.57 6.20 84.50
  Q 9.51 91.14 12.30 93.20
  Q 14.07 94.50 16.33 95.97"
/>
<path stroke="#c6ebff" vector-effect="non-scaling-stroke" d="
  M 16.33 95.97
  Q 8.61 98.95 1.23 99.89"
/>
<path stroke="#9fd6f6" vector-effect="non-scaling-stroke" d="
  M 1.23 99.89
  Q 0.71 99.52 0.00 99.93"
/>
<path stroke="#c1e9ff" vector-effect="non-scaling-stroke" d="
  M 191.68 92.23
  Q 190.88 87.48 191.22 80.75
  Q 191.42 76.62 187.67 77.21"
/>
<path stroke="#9fd9fa" vector-effect="non-scaling-stroke" d="
  M 187.67 77.21
  Q 187.20 67.01 184.72 57.74
  C 183.29 52.38 180.86 45.72 176.24 42.41
  Q 174.64 41.27 171.89 41.26
  Q 149.76 41.15 134.09 41.34
  C 129.27 41.40 124.49 41.17 119.67 41.32
  C 114.78 41.47 109.78 40.93 104.98 41.45
  C 96.72 42.35 92.80 60.28 92.04 66.74
  Q 91.98 67.29 91.44 67.22
  L 88.13 66.84"
/>
<path stroke="#b3e3fe" vector-effect="non-scaling-stroke" d="
  M 88.13 66.84
  Q 87.69 65.69 88.04 63.98
  A 1.27 1.27 0.0 0 0 87.00 62.46
  Q 79.49 61.30 72.04 62.42
  Q 71.53 62.50 71.10 62.79
  Q 70.00 63.56 70.70 63.75"
/>
<path stroke="#8ccff5" vector-effect="non-scaling-stroke" d="
  M 70.70 63.75
  L 70.63 74.50"
/>
<path stroke="#b3e3fe" vector-effect="non-scaling-stroke" d="
  M 70.63 74.50
  Q 70.30 75.29 70.68 75.79
  Q 70.95 76.16 71.40 76.19
  Q 79.30 76.87 87.00 76.34
  Q 87.55 76.30 87.80 75.80
  Q 88.36 74.68 88.12 73.34
  Q 88.00 72.71 88.62 72.89
  Q 89.08 73.03 89.31 73.48
  Q 89.35 73.55 89.36 73.63
  Q 89.36 73.82 89.25 73.91
  Q 88.87 74.19 89.10 74.59
  L 90.31 76.73"
/>
<path stroke="#9fd9fa" vector-effect="non-scaling-stroke" d="
  M 90.31 76.73
  L 90.46 80.33"
/>
<path stroke="#c1e9ff" vector-effect="non-scaling-stroke" d="
  M 90.46 80.33
  Q 82.57 80.11 74.75 80.06
  Q 73.27 80.05 70.49 81.94
  Q 69.82 82.39 69.14 82.59
  Q 68.43 82.80 67.66 83.00
  Q 66.24 83.38 66.83 85.08"
/>
<path stroke="#ebc2ba" vector-effect="non-scaling-stroke" d="
  M 66.83 85.08
  Q 65.08 85.41 64.12 86.70"
/>
<path stroke="#b3e3fe" vector-effect="non-scaling-stroke" d="
  M 64.12 86.70
  Q 64.07 87.22 62.95 87.22"
/>
<path stroke="#ebc2ba" vector-effect="non-scaling-stroke" d="
  M 62.95 87.22
  Q 62.14 86.22 61.25 86.25
  Q 60.46 86.27 60.07 87.37"
/>
<path stroke="#b3e3fe" vector-effect="non-scaling-stroke" d="
  M 60.07 87.37
  L 51.19 89.08"
/>
<path stroke="#ecf8ff" vector-effect="non-scaling-stroke" d="
  M 51.19 89.08
  L 49.37 83.40"
/>
<path stroke="#e5a9af" vector-effect="non-scaling-stroke" d="
  M 49.37 83.40
  Q 50.57 80.34 50.54 77.81"
/>
<path stroke="#919caa" vector-effect="non-scaling-stroke" d="
  M 50.54 77.81
  L 48.30 77.39"
/>
<path stroke="#ecf8ff" vector-effect="non-scaling-stroke" d="
  M 48.30 77.39
  Q 48.77 77.39 49.14 77.18
  Q 49.63 76.91 49.62 76.34
  L 49.57 73.99
  Q 49.52 71.20 50.43 73.83
  Q 50.75 74.74 51.05 75.65
  C 52.91 81.24 61.07 73.25 63.02 71.68
  C 63.92 70.95 63.79 69.86 63.42 68.86"
/>
<path stroke="#ebc2ba" vector-effect="non-scaling-stroke" d="
  M 63.42 68.86
  L 67.08 68.28
  Q 67.74 68.17 67.69 67.51
  L 67.53 65.63
  Q 67.47 64.98 67.94 64.52
  L 68.89 63.58
  Q 69.55 62.93 68.64 63.13
  Q 67.81 63.32 67.31 64.04
  Q 66.97 64.52 66.39 64.53
  L 65.16 64.56
  A 0.89 0.89 0.0 0 0 64.38 65.05
  L 63.33 67.15"
/>
<path stroke="#ecf8ff" vector-effect="non-scaling-stroke" d="
  M 63.33 67.15
  L 55.08 71.57
  A 0.64 0.63 -29.6 0 1 54.24 71.34
  C 51.98 67.57 50.13 63.65 45.73 61.87
  Q 45.46 61.76 45.18 61.85
  Q 44.87 61.95 44.63 62.21"
/>
<path stroke="#b3e3fe" vector-effect="non-scaling-stroke" d="
  M 44.63 62.21
  Q 44.41 62.20 43.95 61.84"
/>
<path stroke="#ebc2ba" vector-effect="non-scaling-stroke" d="
  M 43.95 61.84
  Q 43.68 61.23 44.08 60.74"
/>
<path stroke="#ecf8ff" vector-effect="non-scaling-stroke" d="
  M 44.08 60.74
  Q 46.36 59.33 46.17 56.53"
/>
<path stroke="#ebc2ba" vector-effect="non-scaling-stroke" d="
  M 46.17 56.53
  Q 47.17 54.60 46.63 52.09"
/>
<path stroke="#6e7a81" vector-effect="non-scaling-stroke" d="
  M 46.63 52.09
  Q 48.23 51.43 48.18 50.42
  Q 48.15 49.70 47.45 49.90
  Q 47.31 49.94 47.17 49.93
  Q 46.45 49.89 46.64 49.20
  Q 46.91 48.18 46.19 47.61
  Q 45.77 47.28 45.39 47.65
  C 42.92 50.07 40.39 46.17 38.41 50.64
  Q 37.43 52.85 38.26 54.57"
/>
<path stroke="#ebc2ba" vector-effect="non-scaling-stroke" d="
  M 38.26 54.57
  Q 37.52 55.68 38.38 56.93
  Q 38.66 57.34 38.58 57.83
  L 37.87 62.04"
/>
<path stroke="#b3e3fe" vector-effect="non-scaling-stroke" d="
  M 37.87 62.04
  L 37.17 62.78"
/>
<path stroke="#ecf8ff" vector-effect="non-scaling-stroke" d="
  M 37.17 62.78
  Q 36.95 61.49 36.21 61.69
  Q 32.46 62.74 30.93 65.32
  C 28.97 68.63 25.30 75.92 26.68 79.43
  Q 26.91 80.02 27.51 80.19
  L 38.24 83.27"
/>
<path stroke="#b3e3fe" vector-effect="non-scaling-stroke" d="
  M 38.24 83.27
  L 37.92 86.30"
/>
<path stroke="#ecf8ff" vector-effect="non-scaling-stroke" d="
  M 37.92 86.30
  L 33.37 83.97
  A 0.82 0.82 0.0 0 0 32.20 84.47
  L 29.57 93.57"
/>
<path stroke="#b3e3fe" vector-effect="non-scaling-stroke" d="
  M 29.57 93.57
  Q 26.63 92.21 25.25 92.75
  Q 20.48 94.60 16.33 95.97"
/>
<path stroke="#87d2fa" vector-effect="non-scaling-stroke" d="
  M 187.67 77.21
  L 135.09 77.24"
/>
<path stroke="#78ccfa" vector-effect="non-scaling-stroke" d="
  M 135.09 77.24
  Q 134.50 74.36 131.30 75.16
  A 0.75 0.74 80.0 0 1 130.38 74.51
  Q 129.59 66.54 128.06 59.48
  Q 127.96 59.00 128.01 58.50
  Q 128.08 57.87 127.51 57.48
  A 1.20 1.19 11.1 0 1 127.01 56.74
  C 126.21 53.17 122.80 43.92 119.04 42.53
  Q 118.02 42.15 118.86 42.85
  C 123.32 46.50 124.97 51.39 126.54 56.78
  Q 126.61 57.02 126.49 57.24
  L 126.32 57.55
  A 0.60 0.60 0.0 0 0 126.64 58.39
  Q 126.78 58.44 126.89 58.54
  Q 127.16 58.77 127.23 59.13
  Q 128.39 64.79 129.35 70.49
  Q 129.67 72.45 129.58 74.27
  A 0.83 0.83 0.0 0 1 128.77 75.06
  L 125.32 75.13
  A 1.60 1.60 0.0 0 0 123.75 76.72
  Q 123.66 86.68 123.59 95.33
  Q 123.56 98.30 126.51 97.70
  Q 127.50 97.51 129.46 97.85"
/>
<path stroke="#87d2fa" vector-effect="non-scaling-stroke" d="
  M 129.46 97.85
  L 128.40 103.77
  Q 128.31 104.27 127.80 104.24
  Q 123.46 104.02 119.41 104.13
  Q 119.19 104.14 119.19 104.37
  L 119.19 104.38
  Q 119.19 104.60 119.41 104.61
  Q 123.77 104.73 127.73 104.50
  Q 128.27 104.47 128.18 105.00
  C 126.73 113.25 123.68 123.40 116.53 126.73"
/>
<path stroke="#b2e1fa" vector-effect="non-scaling-stroke" d="
  M 116.53 126.73
  L 104.14 126.67"
/>
<path stroke="#52b8f1" vector-effect="non-scaling-stroke" d="
  M 104.14 126.67
  Q 104.92 126.27 105.91 126.32
  Q 106.50 126.35 106.00 126.03
  Q 105.39 125.62 104.23 125.56"
/>
<path stroke="#96d8fa" vector-effect="non-scaling-stroke" d="
  M 104.23 125.56
  Q 107.25 125.63 108.69 124.43
  C 113.44 120.49 115.93 112.18 117.07 106.19
  Q 121.44 83.11 116.97 61.56
  Q 115.88 56.29 113.54 50.71
  C 111.65 46.21 107.13 39.80 101.85 44.28
  C 96.52 48.81 94.13 59.51 93.23 66.62
  Q 93.20 66.86 93.07 67.06
  Q 92.94 67.27 92.82 67.50
  Q 92.62 67.86 92.63 68.26
  Q 92.66 70.95 92.14 75.63
  Q 91.68 79.84 91.92 87.52"
/>
<path stroke="#b1abb5" vector-effect="non-scaling-stroke" d="
  M 91.92 87.52
  Q 91.23 88.09 90.29 88.44"
/>
<path stroke="#87d2fa" vector-effect="non-scaling-stroke" d="
  M 90.29 88.44
  L 90.46 80.33"
/>
<path stroke="#78ccfa" vector-effect="non-scaling-stroke" d="
  M 90.31 76.73
  Q 90.93 75.45 90.92 74.04"
/>
<path stroke="#9fd9fa" vector-effect="non-scaling-stroke" d="
  M 90.92 74.04
  L 91.39 69.64
  Q 91.44 69.11 90.97 68.88
  Q 90.15 68.47 88.86 68.43"
/>
<path stroke="#78ccfa" vector-effect="non-scaling-stroke" d="
  M 88.86 68.43
  Q 86.81 67.61 88.13 66.84"
/>
<path stroke="#9bdcff" vector-effect="non-scaling-stroke" d="
  M 135.09 77.24
  L 135.05 96.16"
/>
<path stroke="#aae2ff" vector-effect="non-scaling-stroke" d="
  M 135.05 96.16
  Q 134.68 97.39 133.23 98.10"
/>
<path stroke="#9bdcff" vector-effect="non-scaling-stroke" d="
  M 133.23 98.10
  Q 131.50 97.36 129.46 97.85"
/>
<path stroke="#5da5cb" vector-effect="non-scaling-stroke" d="
  M 133.5274 78.6728
  A 0.37 0.37 0.0 0 0 133.1567 78.3034
  L 125.5968 78.3166
  A 0.37 0.37 0.0 0 0 125.2274 78.6872
  L 125.2326 81.6672
  A 0.37 0.37 0.0 0 0 125.6033 82.0366
  L 133.1632 82.0234
  A 0.37 0.37 0.0 0 0 133.5326 81.6528
  L 133.5274 78.6728"
/>
<path stroke="#5dafdd" vector-effect="non-scaling-stroke" d="
  M 126.57 85.49
  Q 127.76 84.60 126.41 84.09
  A 0.29 0.28 25.9 0 0 126.08 84.20
  Q 125.71 84.74 126.02 85.36
  A 0.37 0.36 -31.2 0 0 126.57 85.49"
/>
<path stroke="#5da5cb" vector-effect="non-scaling-stroke" d="
  M 126.92 87.74
  A 0.33 0.33 0.0 0 0 126.97 87.25
  L 126.79 87.04
  Q 126.29 86.48 125.90 87.12
  Q 125.72 87.42 125.88 87.66
  Q 126.27 88.24 126.92 87.74"
/>
<path stroke="#5dafdd" vector-effect="non-scaling-stroke" d="
  M 132.11 91.62
  Q 132.17 92.07 132.45 92.41
  Q 132.83 92.88 133.05 92.32
  Q 133.23 91.85 133.07 91.41
  Q 132.99 91.20 132.78 91.10
  Q 132.46 90.96 132.20 91.27
  A 0.48 0.45 -32.1 0 0 132.11 91.62"
/>
<path stroke="#5da5cb" vector-effect="non-scaling-stroke" d="
  M 125.93 91.48
  Q 125.78 91.87 126.11 92.23
  Q 126.57 92.73 126.92 92.16
  Q 127.31 91.51 126.65 91.20
  A 0.53 0.53 0.0 0 0 125.93 91.48"
/>
<path stroke="#5da5cb" vector-effect="non-scaling-stroke" d="
  M 126.90 94.76
  A 0.36 0.36 0.0 0 0 126.98 94.28
  L 126.75 93.94
  Q 126.28 93.24 125.94 94.01
  Q 125.78 94.37 125.98 94.71
  Q 126.09 94.90 126.31 94.92
  Q 126.64 94.95 126.90 94.76"
/>
<path stroke="#84cdf6" vector-effect="non-scaling-stroke" d="
  M 104.23 125.56
  Q 99.79 123.31 97.52 117.96
  Q 95.18 112.45 93.98 106.53"
/>
<path stroke="#aae2ff" vector-effect="non-scaling-stroke" d="
  M 93.98 106.53
  Q 94.16 105.57 95.46 105.85
  Q 95.85 105.93 96.39 106.70"
/>
<path stroke="#7bbbdd" vector-effect="non-scaling-stroke" d="
  M 96.39 106.70
  C 97.33 110.52 99.68 116.75 103.56 118.37
  C 109.14 120.71 112.79 108.69 113.57 105.24
  Q 117.93 85.79 114.23 65.95
  C 113.31 61.04 111.79 54.71 108.16 51.03
  C 102.72 45.51 98.26 55.20 97.08 59.07
  Q 92.98 72.48 93.76 86.77"
/>
<path stroke="#e3c1ba" vector-effect="non-scaling-stroke" d="
  M 93.76 86.77
  L 91.92 87.52"
/>
<path stroke="#804c3c" vector-effect="non-scaling-stroke" d="
  M 46.63 52.09
  Q 45.08 52.41 41.23 52.15
  Q 39.25 52.01 39.54 54.10
  Q 39.61 54.61 39.10 54.70
  Q 38.66 54.78 38.26 54.57"
/>
<path stroke="#5dafdd" vector-effect="non-scaling-stroke" d="
  M 96.39 106.70
  Q 96.27 105.77 98.31 106.04"
/>
<path stroke="#6bb5dd" vector-effect="non-scaling-stroke" d="
  M 98.31 106.04
  C 99.05 108.59 101.79 116.42 105.30 115.44
  C 108.43 114.56 110.66 109.08 111.38 105.98"
/>
<path stroke="#5dafdd" vector-effect="non-scaling-stroke" d="
  M 111.38 105.98
  L 111.89 104.13"
/>
<path stroke="#96c4dd" vector-effect="non-scaling-stroke" d="
  M 111.89 104.13
  Q 116.81 81.33 110.29 59.25"
/>
<path stroke="#6bb5dd" vector-effect="non-scaling-stroke" d="
  M 110.29 59.25
  Q 109.43 57.36 107.65 54.85
  C 106.60 53.38 104.61 52.58 103.05 53.88
  C 100.13 56.31 98.67 60.83 97.85 64.51
  Q 95.40 75.46 95.65 86.74"
/>
<path stroke="#958e98" vector-effect="non-scaling-stroke" d="
  M 95.65 86.74
  Q 94.84 87.42 93.76 86.77"
/>
<path stroke="#fecaba" vector-effect="non-scaling-stroke" d="
  M 46.17 56.53
  L 40.64 56.48
  Q 40.12 56.47 39.77 56.84
  Q 39.24 57.39 39.36 58.09
  Q 39.48 58.79 40.33 59.34
  Q 41.90 60.34 44.08 60.74"
/>
<path stroke="#c5b5ba" vector-effect="non-scaling-stroke" d="
  M 43.95 61.84
  Q 42.79 63.00 42.70 64.97
  A 0.51 0.51 0.0 0 1 41.86 65.34
  L 37.87 62.04"
/>
<path stroke="#d4f1ff" vector-effect="non-scaling-stroke" d="
  M 110.29 59.25
  Q 104.13 79.34 108.09 99.97"
/>
<path stroke="#74c8f6" vector-effect="non-scaling-stroke" d="
  M 108.09 99.97
  Q 106.72 99.58 104.90 99.91"
/>
<path stroke="#87d2fa" vector-effect="non-scaling-stroke" d="
  M 104.90 99.91
  L 102.97 99.33
  Q 102.52 99.20 102.46 98.73
  L 102.18 96.52"
/>
<path stroke="#9bdcff" vector-effect="non-scaling-stroke" d="
  M 102.18 96.52
  Q 102.86 93.30 101.35 93.68"
/>
<path stroke="#d4f1ff" vector-effect="non-scaling-stroke" d="
  M 101.35 93.68
  C 102.40 90.28 100.68 85.96 96.49 87.20"
/>
<path stroke="#d3bbba" vector-effect="non-scaling-stroke" d="
  M 96.49 87.20
  Q 96.22 86.87 95.65 86.74"
/>
<path stroke="#c6ebff" vector-effect="non-scaling-stroke" d="
  M 111.89 104.13
  Q 110.81 104.17 110.76 102.60"
/>
<path stroke="#9fd6f6" vector-effect="non-scaling-stroke" d="
  M 110.76 102.60
  Q 111.69 101.37 111.18 100.31
  Q 110.55 99.03 108.09 99.97"
/>
<path stroke="#c6ebff" vector-effect="non-scaling-stroke" d="
  M 37.17 62.78
  L 37.77 77.04
  Q 37.81 77.95 38.61 78.39
  L 42.38 80.44"
/>
<path stroke="#fecaba" vector-effect="non-scaling-stroke" d="
  M 42.38 80.44
  Q 41.30 80.42 41.61 83.05"
/>
<path stroke="#c6ebff" vector-effect="non-scaling-stroke" d="
  M 41.61 83.05
  Q 41.28 83.78 40.52 83.64
  Q 39.37 83.43 38.24 83.27"
/>
<path stroke="#fecaba" vector-effect="non-scaling-stroke" d="
  M 63.33 67.15
  L 63.42 68.86"
/>
<path stroke="#a4a3aa" vector-effect="non-scaling-stroke" d="
  M 48.30 77.39
  L 45.99 77.78"
/>
<path stroke="#c6ebff" vector-effect="non-scaling-stroke" d="
  M 45.99 77.78
  L 44.63 62.21"
/>
<path stroke="#b3e3fe" vector-effect="non-scaling-stroke" d="
  M 88.86 68.43
  Q 87.23 68.99 88.19 71.42
  Q 88.39 71.91 88.88 72.08
  Q 90.08 72.49 90.05 73.73
  Q 90.04 74.19 90.49 74.27
  Q 90.81 74.33 90.92 74.04"
/>
<path stroke="#66c2f5" vector-effect="non-scaling-stroke" d="
  M 70.63 74.50
  L 85.42 74.44
  A 0.83 0.82 -0.3 0 0 86.25 73.61
  L 86.21 64.22
  Q 86.21 63.73 85.72 63.73
  L 70.70 63.75"
/>
<path stroke="#6a8faa" vector-effect="non-scaling-stroke" d="
  M 45.99 77.78
  Q 45.71 78.41 44.82 78.41"
/>
<path stroke="#bf9caf" vector-effect="non-scaling-stroke" d="
  M 44.82 78.41
  Q 43.36 78.97 42.72 80.68"
/>
<path stroke="#c5b5ba" vector-effect="non-scaling-stroke" d="
  M 42.72 80.68
  Q 42.55 80.56 42.38 80.44"
/>
<path stroke="#52b8f1" vector-effect="non-scaling-stroke" d="
  M 83.6500 68.9689
  A 5.11 4.18 0.1 0 0 78.5473 64.7800
  A 5.11 4.18 0.1 0 0 73.4300 68.9511
  A 5.11 4.18 0.1 0 0 78.5327 73.1400
  A 5.11 4.18 0.1 0 0 83.6500 68.9689"
/>
<path stroke="#49a5d8" vector-effect="non-scaling-stroke" d="
  M 77.82 67.93
  Q 77.75 68.50 77.98 68.97
  A 0.41 0.41 0.0 0 0 78.57 69.13
  Q 79.07 68.81 78.99 68.18
  Q 78.94 67.83 78.62 67.69
  Q 78.48 67.63 78.34 67.59
  A 0.41 0.40 11.4 0 0 77.82 67.93"
/>
<path stroke="#87d2fa" vector-effect="non-scaling-stroke" d="
  M 187.23 96.25
  L 181.41 96.01"
/>
<path stroke="#b9e8ff" vector-effect="non-scaling-stroke" d="
  M 181.41 96.01
  L 166.74 96.02
  Q 166.24 96.02 166.18 96.51
  Q 165.27 104.45 163.16 111.59
  C 161.16 118.32 158.59 125.50 153.54 129.73
  Q 152.11 130.92 149.22 130.28"
/>
<path stroke="#d4f1ff" vector-effect="non-scaling-stroke" d="
  M 149.22 130.28
  L 149.26 126.70"
/>
<path stroke="#87d2fa" vector-effect="non-scaling-stroke" d="
  M 149.26 126.70
  C 155.26 123.99 158.11 116.49 159.81 109.82
  Q 161.47 103.29 162.30 96.82
  Q 162.40 96.03 161.61 96.03
  Q 155.57 96.06 149.22 96.08
  Q 148.95 96.08 148.79 96.30
  Q 148.61 96.54 148.54 97.00"
/>
<path stroke="#b9e8ff" vector-effect="non-scaling-stroke" d="
  M 148.54 97.00
  Q 148.60 96.79 148.51 96.58
  Q 148.30 96.11 147.79 96.11
  L 135.05 96.16"
/>
<path stroke="#9d545b" vector-effect="non-scaling-stroke" d="
  M 50.54 77.81
  Q 47.17 79.27 44.82 78.41"
/>
<path stroke="#f8b0b0" vector-effect="non-scaling-stroke" d="
  M 49.37 83.40
  L 48.35 86.57
  Q 48.19 87.06 47.68 87.16
  L 45.98 87.48"
/>
<path stroke="#bf9caf" vector-effect="non-scaling-stroke" d="
  M 45.98 87.48
  L 41.86 87.86
  Q 41.30 87.91 41.45 87.37
  L 42.38 83.89"
/>
<path stroke="#f77b6b" vector-effect="non-scaling-stroke" d="
  M 42.38 83.89
  Q 45.04 83.87 46.14 81.86
  A 0.81 0.80 -82.7 0 0 45.24 80.69
  Q 43.86 81.04 42.72 80.68"
/>
<path stroke="#d3bbba" vector-effect="non-scaling-stroke" d="
  M 90.29 88.44
  L 89.97 89.39
  Q 89.81 89.87 89.29 89.85
  Q 88.61 89.81 87.91 89.51"
/>
<path stroke="#cda2b0" vector-effect="non-scaling-stroke" d="
  M 87.91 89.51
  L 87.34 88.84"
/>
<path stroke="#c1e9ff" vector-effect="non-scaling-stroke" d="
  M 87.34 88.84
  Q 87.54 87.04 86.83 85.26
  Q 86.64 84.78 86.13 84.83
  L 78.69 85.53"
/>
<path stroke="#cda2b0" vector-effect="non-scaling-stroke" d="
  M 78.69 85.53
  L 78.22 85.44"
/>
<path stroke="#d3bbba" vector-effect="non-scaling-stroke" d="
  M 78.22 85.44
  C 73.81 83.76 70.90 84.44 66.83 85.08"
/>
<path stroke="#c5b5ba" vector-effect="non-scaling-stroke" d="
  M 42.38 83.89
  Q 42.24 83.50 41.61 83.05"
/>
<path stroke="#c6ebff" vector-effect="non-scaling-stroke" d="
  M 45.98 87.48
  Q 45.81 88.25 45.91 89.07"
/>
<path stroke="#499ac6" vector-effect="non-scaling-stroke" d="
  M 45.91 89.07
  L 37.77 89.43"
/>
<path stroke="#c6ebff" vector-effect="non-scaling-stroke" d="
  M 37.77 89.43
  L 37.92 86.30"
/>
<path stroke="#83afc7" vector-effect="non-scaling-stroke" d="
  M 37.77 89.43
  L 37.63 91.51"
/>
<path stroke="#c6ebff" vector-effect="non-scaling-stroke" d="
  M 37.63 91.51
  Q 37.56 91.92 37.34 92.29
  Q 37.15 92.62 36.73 92.78
  Q 32.88 94.23 29.57 93.57"
/>
<path stroke="#c6ebff" vector-effect="non-scaling-stroke" d="
  M 51.19 89.08
  L 47.32 90.05
  Q 46.78 90.18 46.50 89.71
  L 46.26 89.28"
/>
<path stroke="#83afc7" vector-effect="non-scaling-stroke" d="
  M 46.26 89.28
  L 45.91 89.07"
/>
<path stroke="#f77b6b" vector-effect="non-scaling-stroke" d="
  M 78.22 85.44
  Q 77.54 85.52 77.42 85.86"
/>
<path stroke="#d3bbba" vector-effect="non-scaling-stroke" d="
  M 77.42 85.86
  Q 75.50 85.08 71.62 85.38
  Q 67.71 85.68 66.36 86.49"
/>
<path stroke="#c5b5ba" vector-effect="non-scaling-stroke" d="
  M 66.36 86.49
  Q 66.17 87.99 64.41 87.34
  Q 64.06 87.21 64.12 86.70"
/>
<path stroke="#e5a9af" vector-effect="non-scaling-stroke" d="
  M 87.34 88.84
  C 85.21 86.77 81.54 86.19 78.69 85.53"
/>
<path stroke="#cda2b0" vector-effect="non-scaling-stroke" d="
  M 77.42 85.86
  Q 79.28 89.27 79.85 92.94
  Q 79.94 93.46 79.42 93.49
  L 76.08 93.69"
/>
<path stroke="#d3bbba" vector-effect="non-scaling-stroke" d="
  M 76.08 93.69
  Q 74.41 93.20 72.67 92.78
  C 70.85 92.35 69.93 91.62 68.42 90.64"
/>
<path stroke="#9bdcff" vector-effect="non-scaling-stroke" d="
  M 68.42 90.64
  Q 68.69 88.28 66.36 86.49"
/>
<path stroke="#f77b6b" vector-effect="non-scaling-stroke" d="
  M 87.91 89.51
  Q 87.48 90.10 86.52 89.95
  A 0.73 0.73 0.0 0 0 85.73 90.95
  Q 87.04 94.13 88.99 94.75"
/>
<path stroke="#bf9caf" vector-effect="non-scaling-stroke" d="
  M 88.99 94.75
  Q 89.93 96.02 89.30 97.25
  Q 88.86 98.11 87.00 99.76"
/>
<path stroke="#9887a6" vector-effect="non-scaling-stroke" d="
  M 87.00 99.76
  Q 81.87 101.31 76.40 100.18"
/>
<path stroke="#cda2b0" vector-effect="non-scaling-stroke" d="
  M 76.40 100.18
  L 75.49 98.45"
/>
<path stroke="#f77b6b" vector-effect="non-scaling-stroke" d="
  M 75.49 98.45
  L 76.08 93.69"
/>
<path stroke="#c5b5ba" vector-effect="non-scaling-stroke" d="
  M 62.95 87.22
  C 63.31 89.21 66.84 89.97 68.42 90.64"
/>
<path stroke="#d3bbba" vector-effect="non-scaling-stroke" d="
  M 75.49 98.45
  L 70.01 95.96"
/>
<path stroke="#b1abb5" vector-effect="non-scaling-stroke" d="
  M 70.01 95.96
  L 67.65 94.57"
/>
<path stroke="#c5b5ba" vector-effect="non-scaling-stroke" d="
  M 67.65 94.57
  L 60.07 87.37"
/>
<path stroke="#fecaba" vector-effect="non-scaling-stroke" d="
  M 96.49 87.20
  Q 97.51 90.02 96.35 93.44"
/>
<path stroke="#c5b5ba" vector-effect="non-scaling-stroke" d="
  M 96.35 93.44
  Q 93.16 93.53 89.75 93.58
  Q 89.13 93.59 88.99 94.75"
/>
<path stroke="#c6ebff" vector-effect="non-scaling-stroke" d="
  M 101.35 93.68
  L 96.35 93.44"
/>
<path stroke="#78ccfa" vector-effect="non-scaling-stroke" d="
  M 67.65 94.57
  Q 65.82 95.95 61.75 96.61
  Q 46.83 99.04 40.75 99.76
  Q 34.87 100.47 27.22 100.28"
/>
<path stroke="#66c2f5" vector-effect="non-scaling-stroke" d="
  M 27.22 100.28
  L 6.06 100.68
  A 1.99 1.83 56.4 0 1 5.12 100.45
  Q 3.92 99.82 2.25 100.11
  Q 1.69 100.21 1.23 99.89"
/>
<path stroke="#499ac6" vector-effect="non-scaling-stroke" d="
  M 37.63 91.51
  Q 37.62 91.76 37.71 91.94
  A 0.68 0.66 -21.6 0 0 38.48 92.26
  Q 41.95 91.25 45.50 90.56
  Q 46.62 90.34 46.26 89.28"
/>
<path stroke="#78ccfa" vector-effect="non-scaling-stroke" d="
  M 102.18 96.52
  Q 97.18 98.21 91.57 96.91
  A 1.11 1.11 0.0 0 0 90.22 97.83
  Q 90.01 99.24 88.80 100.40"
/>
<path stroke="#66c2f5" vector-effect="non-scaling-stroke" d="
  M 88.80 100.40
  Q 87.33 100.33 87.00 99.76"
/>
<path stroke="#87d2fa" vector-effect="non-scaling-stroke" d="
  M 70.01 95.96
  Q 69.17 98.28 70.71 100.49"
/>
<path stroke="#52b8f1" vector-effect="non-scaling-stroke" d="
  M 70.71 100.49
  L 27.22 100.28"
/>
<path stroke="#96d8fa" vector-effect="non-scaling-stroke" d="
  M 181.41 96.01
  Q 180.90 102.58 179.71 108.49
  Q 177.77 118.15 172.92 126.75"
/>
<path stroke="#889aaa" vector-effect="non-scaling-stroke" d="
  M 174.71 131.14
  L 149.29 131.22"
/>
<path stroke="#e4f6ff" vector-effect="non-scaling-stroke" d="
  M 149.29 131.22
  Q 149.51 130.66 149.22 130.28"
/>
<path stroke="#74c8f6" vector-effect="non-scaling-stroke" d="
  M 76.40 100.18
  L 70.71 100.49"
/>
<path stroke="#96d8fa" vector-effect="non-scaling-stroke" d="
  M 148.54 97.00
  Q 147.81 112.69 140.43 126.26
  Q 140.38 126.36 140.43 126.46
  Q 140.49 126.58 140.51 126.71"
/>
<path stroke="#e4f6ff" vector-effect="non-scaling-stroke" d="
  M 140.51 126.71
  Q 139.96 126.81 139.58 127.31
  Q 138.25 129.09 136.70 131.22"
/>
<path stroke="#889aaa" vector-effect="non-scaling-stroke" d="
  M 136.70 131.22
  L 116.78 131.27"
/>
<path stroke="#e4f6ff" vector-effect="non-scaling-stroke" d="
  M 116.78 131.27
  Q 117.19 130.31 116.83 130.40"
/>
<path stroke="#b9e8ff" vector-effect="non-scaling-stroke" d="
  M 116.83 130.40
  C 121.34 131.18 125.18 125.18 126.75 121.68
  Q 131.79 110.46 133.23 98.10"
/>
<path stroke="#b2e1fa" vector-effect="non-scaling-stroke" d="
  M 149.26 126.70
  L 140.51 126.71"
/>
<path stroke="#52b8f1" vector-effect="non-scaling-stroke" d="
  M 104.90 99.91
  Q 97.05 101.46 88.80 100.40"
/>
<path stroke="#d4f1ff" vector-effect="non-scaling-stroke" d="
  M 116.83 130.40
  Q 116.13 129.05 116.53 126.73"
/>
<path stroke="#66c2f5" vector-effect="non-scaling-stroke" d="
  M 110.76 102.60
  L 0.00 102.59"
/>
<path stroke="#9bdcff" vector-effect="non-scaling-stroke" d="
  M 111.38 105.98
  L 98.31 106.04"
/>
<path stroke="#66c2f5" vector-effect="non-scaling-stroke" d="
  M 93.98 106.53
  Q 92.99 106.04 92.50 106.04
  Q 73.64 106.00 54.75 106.01"
/>
<path stroke="#5dafdd" vector-effect="non-scaling-stroke" d="
  M 54.75 106.01
  Q 53.73 104.33 52.64 104.32
  Q 27.82 104.10 21.25 104.26
  Q 19.38 104.30 19.26 106.41"
/>
<path stroke="#5da5cb" vector-effect="non-scaling-stroke" d="
  M 19.26 106.41
  Q 19.19 106.16 19.12 105.92"
/>
<path stroke="#369bd4" vector-effect="non-scaling-stroke" d="
  M 54.75 106.01
  Q 54.52 106.71 54.75 107.15"
/>
<path stroke="#2d7eaa" vector-effect="non-scaling-stroke" d="
  M 54.75 107.15
  L 53.08 108.16
  Q 52.65 108.42 52.15 108.40
  Q 36.84 108.02 21.49 108.60
  Q 20.37 108.64 19.26 106.41"
/>
<path stroke="#9fd6f6" vector-effect="non-scaling-stroke" d="
  M 104.14 126.67
  Q 102.10 126.00 100.84 124.64
  C 96.62 120.07 94.31 113.38 93.02 107.12
  A 0.46 0.46 0.0 0 0 92.22 106.91
  L 82.90 117.72"
/>
<path stroke="#52b8f1" vector-effect="non-scaling-stroke" d="
  M 82.90 117.72
  Q 82.60 118.44 82.11 118.02
  Q 81.65 117.63 81.04 117.63
  L 44.67 117.60
  A 0.82 0.82 0.0 0 0 43.85 118.45
  Q 43.98 123.30 43.73 128.02
  Q 43.71 128.38 43.39 128.55
  Q 43.04 128.72 42.48 128.44"
/>
<path stroke="#9fd6f6" vector-effect="non-scaling-stroke" d="
  M 42.48 128.44
  L 42.49 117.97
  Q 42.49 117.47 42.16 117.09
  L 37.05 111.13"
/>
<path stroke="#3691c2" vector-effect="non-scaling-stroke" d="
  M 37.05 111.13
  Q 38.18 110.32 39.00 110.35
  Q 49.49 110.72 52.49 110.27
  Q 54.95 109.91 54.75 107.15"
/>
<path stroke="#96bacc" vector-effect="non-scaling-stroke" d="
  M 37.05 111.13
  Q 36.74 111.89 37.00 111.81"
/>
<path stroke="#1a6993" vector-effect="non-scaling-stroke" d="
  M 37.00 111.81
  Q 36.75 110.37 36.00 110.41
  Q 33.17 110.55 30.47 110.51"
/>
<path stroke="#a4a3aa" vector-effect="non-scaling-stroke" d="
  M 116.78 131.27
  L 83.41 131.28"
/>
<path stroke="#829cac" vector-effect="non-scaling-stroke" d="
  M 83.41 131.28
  Q 83.22 131.38 82.94 131.32"
/>
<path stroke="#b2e1fa" vector-effect="non-scaling-stroke" d="
  M 82.94 131.32
  L 82.90 117.72"
/>
<path stroke="#83afc7" vector-effect="non-scaling-stroke" d="
  M 37.00 111.81
  L 32.87 125.77"
/>
<path stroke="#054c74" vector-effect="non-scaling-stroke" d="
  M 32.87 125.77
  Q 30.96 126.31 28.64 125.69"
/>
<path stroke="#b2e1fa" vector-effect="non-scaling-stroke" d="
  M 42.48 128.44
  Q 42.24 129.67 42.54 131.30"
/>
<path stroke="#829cac" vector-effect="non-scaling-stroke" d="
  M 42.54 131.30
  L 33.11 131.22
  A 0.52 0.52 0.0 0 1 32.60 130.67
  L 32.87 125.77"
/>
<path stroke="#347ea7" vector-effect="non-scaling-stroke" d="
  M 82.94 131.32
  L 42.54 131.30"
/>
<path stroke="#264057" vector-effect="non-scaling-stroke" d="
  M 83.41 131.28
  L 86.32 131.95"
/>
<path stroke="#264057" vector-effect="non-scaling-stroke" d="
  M 33.07 132.00
  Q 30.54 130.28 26.77 131.12
  A 0.72 0.71 81.5 0 1 25.91 130.48
  L 25.85 129.65"
/>
<path stroke="#a4a3aa" vector-effect="non-scaling-stroke" d="
  M 149.29 131.22
  L 136.70 131.22"
/>
</g>
<path fill="#ffffff" d="
  M 0.00 0.00
  L 200.00 0.00
  L 200.00 150.00
  L 0.00 150.00
  L 0.00 105.95
  L 19.12 105.92
  Q 18.57 110.57 21.25 110.55
  Q 25.80 110.51 30.47 110.51
  L 28.64 125.69
  Q 27.71 127.95 25.85 129.65
  Q 25.91 130.39 25.47 130.80
  Q 25.13 131.11 24.66 131.12
  Q 12.45 131.38 0.49 131.21
  Q 0.21 131.20 0.21 131.48
  L 0.21 131.77
  A 0.23 0.23 0.0 0 0 0.44 132.00
  L 33.07 132.00
  L 86.32 131.95
  L 193.04 132.04
  Q 193.20 132.04 193.20 131.89
  L 193.22 131.56
  Q 193.24 131.28 192.96 131.28
  L 174.71 131.14
  L 169.51 131.03
  Q 169.01 131.02 169.35 130.65
  L 172.92 126.75
  C 182.63 127.22 186.73 103.04 187.23 96.25
  Q 190.93 96.60 191.68 92.23
  Q 202.70 74.15 198.19 53.50
  C 195.13 39.52 184.75 27.34 171.05 23.66
  C 163.88 21.73 154.78 22.11 147.37 23.63
  C 133.75 26.44 119.90 30.80 105.55 32.76
  C 93.34 34.43 82.11 32.99 71.01 28.36
  C 47.21 18.45 19.32 24.64 6.60 47.59
  C 0.23 59.07 0.24 72.57 6.20 84.50
  Q 9.51 91.14 12.30 93.20
  Q 14.07 94.50 16.33 95.97
  Q 8.61 98.95 1.23 99.89
  Q 0.71 99.52 0.00 99.93
  L 0.00 0.00
  Z"
/>
<path fill="#d9f0fe" d="
  M 191.68 92.23
  Q 190.88 87.48 191.22 80.75
  Q 191.42 76.62 187.67 77.21
  Q 187.20 67.01 184.72 57.74
  C 183.29 52.38 180.86 45.72 176.24 42.41
  Q 174.64 41.27 171.89 41.26
  Q 149.76 41.15 134.09 41.34
  C 129.27 41.40 124.49 41.17 119.67 41.32
  C 114.78 41.47 109.78 40.93 104.98 41.45
  C 96.72 42.35 92.80 60.28 92.04 66.74
  Q 91.98 67.29 91.44 67.22
  L 88.13 66.84
  Q 87.69 65.69 88.04 63.98
  A 1.27 1.27 0.0 0 0 87.00 62.46
  Q 79.49 61.30 72.04 62.42
  Q 71.53 62.50 71.10 62.79
  Q 70.00 63.56 70.70 63.75
  L 70.63 74.50
  Q 70.30 75.29 70.68 75.79
  Q 70.95 76.16 71.40 76.19
  Q 79.30 76.87 87.00 76.34
  Q 87.55 76.30 87.80 75.80
  Q 88.36 74.68 88.12 73.34
  Q 88.00 72.71 88.62 72.89
  Q 89.08 73.03 89.31 73.48
  Q 89.35 73.55 89.36 73.63
  Q 89.36 73.82 89.25 73.91
  Q 88.87 74.19 89.10 74.59
  L 90.31 76.73
  L 90.46 80.33
  Q 82.57 80.11 74.75 80.06
  Q 73.27 80.05 70.49 81.94
  Q 69.82 82.39 69.14 82.59
  Q 68.43 82.80 67.66 83.00
  Q 66.24 83.38 66.83 85.08
  Q 65.08 85.41 64.12 86.70
  Q 64.07 87.22 62.95 87.22
  Q 62.14 86.22 61.25 86.25
  Q 60.46 86.27 60.07 87.37
  L 51.19 89.08
  L 49.37 83.40
  Q 50.57 80.34 50.54 77.81
  L 48.30 77.39
  Q 48.77 77.39 49.14 77.18
  Q 49.63 76.91 49.62 76.34
  L 49.57 73.99
  Q 49.52 71.20 50.43 73.83
  Q 50.75 74.74 51.05 75.65
  C 52.91 81.24 61.07 73.25 63.02 71.68
  C 63.92 70.95 63.79 69.86 63.42 68.86
  L 67.08 68.28
  Q 67.74 68.17 67.69 67.51
  L 67.53 65.63
  Q 67.47 64.98 67.94 64.52
  L 68.89 63.58
  Q 69.55 62.93 68.64 63.13
  Q 67.81 63.32 67.31 64.04
  Q 66.97 64.52 66.39 64.53
  L 65.16 64.56
  A 0.89 0.89 0.0 0 0 64.38 65.05
  L 63.33 67.15
  L 55.08 71.57
  A 0.64 0.63 -29.6 0 1 54.24 71.34
  C 51.98 67.57 50.13 63.65 45.73 61.87
  Q 45.46 61.76 45.18 61.85
  Q 44.87 61.95 44.63 62.21
  Q 44.41 62.20 43.95 61.84
  Q 43.68 61.23 44.08 60.74
  Q 46.36 59.33 46.17 56.53
  Q 47.17 54.60 46.63 52.09
  Q 48.23 51.43 48.18 50.42
  Q 48.15 49.70 47.45 49.90
  Q 47.31 49.94 47.17 49.93
  Q 46.45 49.89 46.64 49.20
  Q 46.91 48.18 46.19 47.61
  Q 45.77 47.28 45.39 47.65
  C 42.92 50.07 40.39 46.17 38.41 50.64
  Q 37.43 52.85 38.26 54.57
  Q 37.52 55.68 38.38 56.93
  Q 38.66 57.34 38.58 57.83
  L 37.87 62.04
  L 37.17 62.78
  Q 36.95 61.49 36.21 61.69
  Q 32.46 62.74 30.93 65.32
  C 28.97 68.63 25.30 75.92 26.68 79.43
  Q 26.91 80.02 27.51 80.19
  L 38.24 83.27
  L 37.92 86.30
  L 33.37 83.97
  A 0.82 0.82 0.0 0 0 32.20 84.47
  L 29.57 93.57
  Q 26.63 92.21 25.25 92.75
  Q 20.48 94.60 16.33 95.97
  Q 14.07 94.50 12.30 93.20
  Q 9.51 91.14 6.20 84.50
  C 0.24 72.57 0.23 59.07 6.60 47.59
  C 19.32 24.64 47.21 18.45 71.01 28.36
  C 82.11 32.99 93.34 34.43 105.55 32.76
  C 119.90 30.80 133.75 26.44 147.37 23.63
  C 154.78 22.11 163.88 21.73 171.05 23.66
  C 184.75 27.34 195.13 39.52 198.19 53.50
  Q 202.70 74.15 191.68 92.23
  Z"
/>
<path fill="#64c2f5" d="
  M 187.67 77.21
  L 135.09 77.24
  Q 134.50 74.36 131.30 75.16
  A 0.75 0.74 80.0 0 1 130.38 74.51
  Q 129.59 66.54 128.06 59.48
  Q 127.96 59.00 128.01 58.50
  Q 128.08 57.87 127.51 57.48
  A 1.20 1.19 11.1 0 1 127.01 56.74
  C 126.21 53.17 122.80 43.92 119.04 42.53
  Q 118.02 42.15 118.86 42.85
  C 123.32 46.50 124.97 51.39 126.54 56.78
  Q 126.61 57.02 126.49 57.24
  L 126.32 57.55
  A 0.60 0.60 0.0 0 0 126.64 58.39
  Q 126.78 58.44 126.89 58.54
  Q 127.16 58.77 127.23 59.13
  Q 128.39 64.79 129.35 70.49
  Q 129.67 72.45 129.58 74.27
  A 0.83 0.83 0.0 0 1 128.77 75.06
  L 125.32 75.13
  A 1.60 1.60 0.0 0 0 123.75 76.72
  Q 123.66 86.68 123.59 95.33
  Q 123.56 98.30 126.51 97.70
  Q 127.50 97.51 129.46 97.85
  L 128.40 103.77
  Q 128.31 104.27 127.80 104.24
  Q 123.46 104.02 119.41 104.13
  Q 119.19 104.14 119.19 104.37
  L 119.19 104.38
  Q 119.19 104.60 119.41 104.61
  Q 123.77 104.73 127.73 104.50
  Q 128.27 104.47 128.18 105.00
  C 126.73 113.25 123.68 123.40 116.53 126.73
  L 104.14 126.67
  Q 104.92 126.27 105.91 126.32
  Q 106.50 126.35 106.00 126.03
  Q 105.39 125.62 104.23 125.56
  Q 107.25 125.63 108.69 124.43
  C 113.44 120.49 115.93 112.18 117.07 106.19
  Q 121.44 83.11 116.97 61.56
  Q 115.88 56.29 113.54 50.71
  C 111.65 46.21 107.13 39.80 101.85 44.28
  C 96.52 48.81 94.13 59.51 93.23 66.62
  Q 93.20 66.86 93.07 67.06
  Q 92.94 67.27 92.82 67.50
  Q 92.62 67.86 92.63 68.26
  Q 92.66 70.95 92.14 75.63
  Q 91.68 79.84 91.92 87.52
  Q 91.23 88.09 90.29 88.44
  L 90.46 80.33
  L 90.31 76.73
  Q 90.93 75.45 90.92 74.04
  L 91.39 69.64
  Q 91.44 69.11 90.97 68.88
  Q 90.15 68.47 88.86 68.43
  Q 86.81 67.61 88.13 66.84
  L 91.44 67.22
  Q 91.98 67.29 92.04 66.74
  C 92.80 60.28 96.72 42.35 104.98 41.45
  C 109.78 40.93 114.78 41.47 119.67 41.32
  C 124.49 41.17 129.27 41.40 134.09 41.34
  Q 149.76 41.15 171.89 41.26
  Q 174.64 41.27 176.24 42.41
  C 180.86 45.72 183.29 52.38 184.72 57.74
  Q 187.20 67.01 187.67 77.21
  Z"
/>
<path fill="#8cd6fe" d="
  M 135.09 77.24
  L 135.05 96.16
  Q 134.68 97.39 133.23 98.10
  Q 131.50 97.36 129.46 97.85
  Q 127.50 97.51 126.51 97.70
  Q 123.56 98.30 123.59 95.33
  Q 123.66 86.68 123.75 76.72
  A 1.60 1.60 0.0 0 1 125.32 75.13
  L 128.77 75.06
  A 0.83 0.83 0.0 0 0 129.58 74.27
  Q 129.67 72.45 129.35 70.49
  Q 128.39 64.79 127.23 59.13
  Q 127.16 58.77 126.89 58.54
  Q 126.78 58.44 126.64 58.39
  A 0.60 0.60 0.0 0 1 126.32 57.55
  L 126.49 57.24
  Q 126.61 57.02 126.54 56.78
  C 124.97 51.39 123.32 46.50 118.86 42.85
  Q 118.02 42.15 119.04 42.53
  C 122.80 43.92 126.21 53.17 127.01 56.74
  A 1.20 1.19 11.1 0 0 127.51 57.48
  Q 128.08 57.87 128.01 58.50
  Q 127.96 59.00 128.06 59.48
  Q 129.59 66.54 130.38 74.51
  A 0.75 0.74 80.0 0 0 131.30 75.16
  Q 134.50 74.36 135.09 77.24
  Z
  M 133.5274 78.6728
  A 0.37 0.37 0.0 0 0 133.1567 78.3034
  L 125.5968 78.3166
  A 0.37 0.37 0.0 0 0 125.2274 78.6872
  L 125.2326 81.6672
  A 0.37 0.37 0.0 0 0 125.6033 82.0366
  L 133.1632 82.0234
  A 0.37 0.37 0.0 0 0 133.5326 81.6528
  L 133.5274 78.6728
  Z
  M 126.57 85.49
  Q 127.76 84.60 126.41 84.09
  A 0.29 0.28 25.9 0 0 126.08 84.20
  Q 125.71 84.74 126.02 85.36
  A 0.37 0.36 -31.2 0 0 126.57 85.49
  Z
  M 126.92 87.74
  A 0.33 0.33 0.0 0 0 126.97 87.25
  L 126.79 87.04
  Q 126.29 86.48 125.90 87.12
  Q 125.72 87.42 125.88 87.66
  Q 126.27 88.24 126.92 87.74
  Z
  M 132.11 91.62
  Q 132.17 92.07 132.45 92.41
  Q 132.83 92.88 133.05 92.32
  Q 133.23 91.85 133.07 91.41
  Q 132.99 91.20 132.78 91.10
  Q 132.46 90.96 132.20 91.27
  A 0.48 0.45 -32.1 0 0 132.11 91.62
  Z
  M 125.93 91.48
  Q 125.78 91.87 126.11 92.23
  Q 126.57 92.73 126.92 92.16
  Q 127.31 91.51 126.65 91.20
  A 0.53 0.53 0.0 0 0 125.93 91.48
  Z
  M 126.90 94.76
  A 0.36 0.36 0.0 0 0 126.98 94.28
  L 126.75 93.94
  Q 126.28 93.24 125.94 94.01
  Q 125.78 94.37 125.98 94.71
  Q 126.09 94.90 126.31 94.92
  Q 126.64 94.95 126.90 94.76
  Z"
/>
<path fill="#c8edff" d="
  M 104.23 125.56
  Q 99.79 123.31 97.52 117.96
  Q 95.18 112.45 93.98 106.53
  Q 94.16 105.57 95.46 105.85
  Q 95.85 105.93 96.39 106.70
  C 97.33 110.52 99.68 116.75 103.56 118.37
  C 109.14 120.71 112.79 108.69 113.57 105.24
  Q 117.93 85.79 114.23 65.95
  C 113.31 61.04 111.79 54.71 108.16 51.03
  C 102.72 45.51 98.26 55.20 97.08 59.07
  Q 92.98 72.48 93.76 86.77
  L 91.92 87.52
  Q 91.68 79.84 92.14 75.63
  Q 92.66 70.95 92.63 68.26
  Q 92.62 67.86 92.82 67.50
  Q 92.94 67.27 93.07 67.06
  Q 93.20 66.86 93.23 66.62
  C 94.13 59.51 96.52 48.81 101.85 44.28
  C 107.13 39.80 111.65 46.21 113.54 50.71
  Q 115.88 56.29 116.97 61.56
  Q 121.44 83.11 117.07 106.19
  C 115.93 112.18 113.44 120.49 108.69 124.43
  Q 107.25 125.63 104.23 125.56
  Z"
/>
<path fill="#030303" d="
  M 46.63 52.09
  Q 45.08 52.41 41.23 52.15
  Q 39.25 52.01 39.54 54.10
  Q 39.61 54.61 39.10 54.70
  Q 38.66 54.78 38.26 54.57
  Q 37.43 52.85 38.41 50.64
  C 40.39 46.17 42.92 50.07 45.39 47.65
  Q 45.77 47.28 46.19 47.61
  Q 46.91 48.18 46.64 49.20
  Q 46.45 49.89 47.17 49.93
  Q 47.31 49.94 47.45 49.90
  Q 48.15 49.70 48.18 50.42
  Q 48.23 51.43 46.63 52.09
  Z"
/>
<path fill="#2d88bb" d="
  M 96.39 106.70
  Q 96.27 105.77 98.31 106.04
  C 99.05 108.59 101.79 116.42 105.30 115.44
  C 108.43 114.56 110.66 109.08 111.38 105.98
  L 111.89 104.13
  Q 116.81 81.33 110.29 59.25
  Q 109.43 57.36 107.65 54.85
  C 106.60 53.38 104.61 52.58 103.05 53.88
  C 100.13 56.31 98.67 60.83 97.85 64.51
  Q 95.40 75.46 95.65 86.74
  Q 94.84 87.42 93.76 86.77
  Q 92.98 72.48 97.08 59.07
  C 98.26 55.20 102.72 45.51 108.16 51.03
  C 111.79 54.71 113.31 61.04 114.23 65.95
  Q 117.93 85.79 113.57 105.24
  C 112.79 108.69 109.14 120.71 103.56 118.37
  C 99.68 116.75 97.33 110.52 96.39 106.70
  Z"
/>
<path fill="#fd9475" d="
  M 46.63 52.09
  Q 47.17 54.60 46.17 56.53
  L 40.64 56.48
  Q 40.12 56.47 39.77 56.84
  Q 39.24 57.39 39.36 58.09
  Q 39.48 58.79 40.33 59.34
  Q 41.90 60.34 44.08 60.74
  Q 43.68 61.23 43.95 61.84
  Q 42.79 63.00 42.70 64.97
  A 0.51 0.51 0.0 0 1 41.86 65.34
  L 37.87 62.04
  L 38.58 57.83
  Q 38.66 57.34 38.38 56.93
  Q 37.52 55.68 38.26 54.57
  Q 38.66 54.78 39.10 54.70
  Q 39.61 54.61 39.54 54.10
  Q 39.25 52.01 41.23 52.15
  Q 45.08 52.41 46.63 52.09
  Z"
/>
<path fill="#a9e2ff" d="
  M 110.29 59.25
  Q 104.13 79.34 108.09 99.97
  Q 106.72 99.58 104.90 99.91
  L 102.97 99.33
  Q 102.52 99.20 102.46 98.73
  L 102.18 96.52
  Q 102.86 93.30 101.35 93.68
  C 102.40 90.28 100.68 85.96 96.49 87.20
  Q 96.22 86.87 95.65 86.74
  Q 95.40 75.46 97.85 64.51
  C 98.67 60.83 100.13 56.31 103.05 53.88
  C 104.61 52.58 106.60 53.38 107.65 54.85
  Q 109.43 57.36 110.29 59.25
  Z"
/>
<path fill="#ffffff" d="
  M 46.17 56.53
  Q 46.36 59.33 44.08 60.74
  Q 41.90 60.34 40.33 59.34
  Q 39.48 58.79 39.36 58.09
  Q 39.24 57.39 39.77 56.84
  Q 40.12 56.47 40.64 56.48
  L 46.17 56.53
  Z"
/>
<path fill="#ffffff" d="
  M 110.29 59.25
  Q 116.81 81.33 111.89 104.13
  Q 110.81 104.17 110.76 102.60
  Q 111.69 101.37 111.18 100.31
  Q 110.55 99.03 108.09 99.97
  Q 104.13 79.34 110.29 59.25
  Z"
/>
<path fill="#ffffff" d="
  M 37.17 62.78
  L 37.77 77.04
  Q 37.81 77.95 38.61 78.39
  L 42.38 80.44
  Q 41.30 80.42 41.61 83.05
  Q 41.28 83.78 40.52 83.64
  Q 39.37 83.43 38.24 83.27
  L 27.51 80.19
  Q 26.91 80.02 26.68 79.43
  C 25.30 75.92 28.97 68.63 30.93 65.32
  Q 32.46 62.74 36.21 61.69
  Q 36.95 61.49 37.17 62.78
  Z"
/>
<path fill="#ffffff" d="
  M 63.33 67.15
  L 63.42 68.86
  C 63.79 69.86 63.92 70.95 63.02 71.68
  C 61.07 73.25 52.91 81.24 51.05 75.65
  Q 50.75 74.74 50.43 73.83
  Q 49.52 71.20 49.57 73.99
  L 49.62 76.34
  Q 49.63 76.91 49.14 77.18
  Q 48.77 77.39 48.30 77.39
  L 45.99 77.78
  L 44.63 62.21
  Q 44.87 61.95 45.18 61.85
  Q 45.46 61.76 45.73 61.87
  C 50.13 63.65 51.98 67.57 54.24 71.34
  A 0.64 0.63 -29.6 0 0 55.08 71.57
  L 63.33 67.15
  Z"
/>
<path fill="#8cd6fe" d="
  M 88.13 66.84
  Q 86.81 67.61 88.86 68.43
  Q 87.23 68.99 88.19 71.42
  Q 88.39 71.91 88.88 72.08
  Q 90.08 72.49 90.05 73.73
  Q 90.04 74.19 90.49 74.27
  Q 90.81 74.33 90.92 74.04
  Q 90.93 75.45 90.31 76.73
  L 89.10 74.59
  Q 88.87 74.19 89.25 73.91
  Q 89.36 73.82 89.36 73.63
  Q 89.35 73.55 89.31 73.48
  Q 89.08 73.03 88.62 72.89
  Q 88.00 72.71 88.12 73.34
  Q 88.36 74.68 87.80 75.80
  Q 87.55 76.30 87.00 76.34
  Q 79.30 76.87 71.40 76.19
  Q 70.95 76.16 70.68 75.79
  Q 70.30 75.29 70.63 74.50
  L 85.42 74.44
  A 0.83 0.82 -0.3 0 0 86.25 73.61
  L 86.21 64.22
  Q 86.21 63.73 85.72 63.73
  L 70.70 63.75
  Q 70.00 63.56 71.10 62.79
  Q 71.53 62.50 72.04 62.42
  Q 79.49 61.30 87.00 62.46
  A 1.27 1.27 0.0 0 1 88.04 63.98
  Q 87.69 65.69 88.13 66.84
  Z"
/>
<path fill="#8cd6fe" d="
  M 37.87 62.04
  L 41.86 65.34
  A 0.51 0.51 0.0 0 0 42.70 64.97
  Q 42.79 63.00 43.95 61.84
  Q 44.41 62.20 44.63 62.21
  L 45.99 77.78
  Q 45.71 78.41 44.82 78.41
  Q 43.36 78.97 42.72 80.68
  Q 42.55 80.56 42.38 80.44
  L 38.61 78.39
  Q 37.81 77.95 37.77 77.04
  L 37.17 62.78
  L 37.87 62.04
  Z"
/>
<path fill="#fd9475" d="
  M 63.42 68.86
  L 63.33 67.15
  L 64.38 65.05
  A 0.89 0.89 0.0 0 1 65.16 64.56
  L 66.39 64.53
  Q 66.97 64.52 67.31 64.04
  Q 67.81 63.32 68.64 63.13
  Q 69.55 62.93 68.89 63.58
  L 67.94 64.52
  Q 67.47 64.98 67.53 65.63
  L 67.69 67.51
  Q 67.74 68.17 67.08 68.28
  L 63.42 68.86
  Z"
/>
<path fill="#3fadec" d="
  M 70.63 74.50
  L 70.70 63.75
  L 85.72 63.73
  Q 86.21 63.73 86.21 64.22
  L 86.25 73.61
  A 0.83 0.82 -0.3 0 1 85.42 74.44
  L 70.63 74.50
  Z
  M 83.6500 68.9689
  A 5.11 4.18 0.1 0 0 78.5473 64.7800
  A 5.11 4.18 0.1 0 0 73.4300 68.9511
  A 5.11 4.18 0.1 0 0 78.5327 73.1400
  A 5.11 4.18 0.1 0 0 83.6500 68.9689
  Z"
/>
<path fill="#64c2f5" d="
  M 83.6500 68.9689
  A 5.11 4.18 0.1 0 1 78.5327 73.1400
  A 5.11 4.18 0.1 0 1 73.4300 68.9511
  A 5.11 4.18 0.1 0 1 78.5473 64.7800
  A 5.11 4.18 0.1 0 1 83.6500 68.9689
  Z
  M 77.82 67.93
  Q 77.75 68.50 77.98 68.97
  A 0.41 0.41 0.0 0 0 78.57 69.13
  Q 79.07 68.81 78.99 68.18
  Q 78.94 67.83 78.62 67.69
  Q 78.48 67.63 78.34 67.59
  A 0.41 0.40 11.4 0 0 77.82 67.93
  Z"
/>
<path fill="#2d88bb" d="
  M 77.82 67.93
  A 0.41 0.40 11.4 0 1 78.34 67.59
  Q 78.48 67.63 78.62 67.69
  Q 78.94 67.83 78.99 68.18
  Q 79.07 68.81 78.57 69.13
  A 0.41 0.41 0.0 0 1 77.98 68.97
  Q 77.75 68.50 77.82 67.93
  Z"
/>
<path fill="#d9f0fe" d="
  M 88.86 68.43
  Q 90.15 68.47 90.97 68.88
  Q 91.44 69.11 91.39 69.64
  L 90.92 74.04
  Q 90.81 74.33 90.49 74.27
  Q 90.04 74.19 90.05 73.73
  Q 90.08 72.49 88.88 72.08
  Q 88.39 71.91 88.19 71.42
  Q 87.23 68.99 88.86 68.43
  Z"
/>
<path fill="#a9e2ff" d="
  M 187.67 77.21
  Q 191.42 76.62 191.22 80.75
  Q 190.88 87.48 191.68 92.23
  Q 190.93 96.60 187.23 96.25
  L 181.41 96.01
  L 166.74 96.02
  Q 166.24 96.02 166.18 96.51
  Q 165.27 104.45 163.16 111.59
  C 161.16 118.32 158.59 125.50 153.54 129.73
  Q 152.11 130.92 149.22 130.28
  L 149.26 126.70
  C 155.26 123.99 158.11 116.49 159.81 109.82
  Q 161.47 103.29 162.30 96.82
  Q 162.40 96.03 161.61 96.03
  Q 155.57 96.06 149.22 96.08
  Q 148.95 96.08 148.79 96.30
  Q 148.61 96.54 148.54 97.00
  Q 148.60 96.79 148.51 96.58
  Q 148.30 96.11 147.79 96.11
  L 135.05 96.16
  L 135.09 77.24
  L 187.67 77.21
  Z"
/>
<path fill="#484755" d="
  M 48.30 77.39
  L 50.54 77.81
  Q 47.17 79.27 44.82 78.41
  Q 45.71 78.41 45.99 77.78
  L 48.30 77.39
  Z"
/>
<path fill="#f16160" d="
  M 50.54 77.81
  Q 50.57 80.34 49.37 83.40
  L 48.35 86.57
  Q 48.19 87.06 47.68 87.16
  L 45.98 87.48
  L 41.86 87.86
  Q 41.30 87.91 41.45 87.37
  L 42.38 83.89
  Q 45.04 83.87 46.14 81.86
  A 0.81 0.80 -82.7 0 0 45.24 80.69
  Q 43.86 81.04 42.72 80.68
  Q 43.36 78.97 44.82 78.41
  Q 47.17 79.27 50.54 77.81
  Z"
/>
<rect fill="#2d7498" x="-4.15" y="-1.86" transform="translate(129.38,80.17) rotate(-0.1)" width="8.30" height="3.72" rx="0.37"/>
<path fill="#a9e2ff" d="
  M 90.46 80.33
  L 90.29 88.44
  L 89.97 89.39
  Q 89.81 89.87 89.29 89.85
  Q 88.61 89.81 87.91 89.51
  L 87.34 88.84
  Q 87.54 87.04 86.83 85.26
  Q 86.64 84.78 86.13 84.83
  L 78.69 85.53
  L 78.22 85.44
  C 73.81 83.76 70.90 84.44 66.83 85.08
  Q 66.24 83.38 67.66 83.00
  Q 68.43 82.80 69.14 82.59
  Q 69.82 82.39 70.49 81.94
  Q 73.27 80.05 74.75 80.06
  Q 82.57 80.11 90.46 80.33
  Z"
/>
<path fill="#fd9475" d="
  M 42.38 80.44
  Q 42.55 80.56 42.72 80.68
  Q 43.86 81.04 45.24 80.69
  A 0.81 0.80 -82.7 0 1 46.14 81.86
  Q 45.04 83.87 42.38 83.89
  Q 42.24 83.50 41.61 83.05
  Q 41.30 80.42 42.38 80.44
  Z"
/>
<path fill="#8cd6fe" d="
  M 41.61 83.05
  Q 42.24 83.50 42.38 83.89
  L 41.45 87.37
  Q 41.30 87.91 41.86 87.86
  L 45.98 87.48
  Q 45.81 88.25 45.91 89.07
  L 37.77 89.43
  L 37.92 86.30
  L 38.24 83.27
  Q 39.37 83.43 40.52 83.64
  Q 41.28 83.78 41.61 83.05
  Z"
/>
<path fill="#ffffff" d="
  M 37.92 86.30
  L 37.77 89.43
  L 37.63 91.51
  Q 37.56 91.92 37.34 92.29
  Q 37.15 92.62 36.73 92.78
  Q 32.88 94.23 29.57 93.57
  L 32.20 84.47
  A 0.82 0.82 0.0 0 1 33.37 83.97
  L 37.92 86.30
  Z"
/>
<path fill="#ffffff" d="
  M 49.37 83.40
  L 51.19 89.08
  L 47.32 90.05
  Q 46.78 90.18 46.50 89.71
  L 46.26 89.28
  L 45.91 89.07
  Q 45.81 88.25 45.98 87.48
  L 47.68 87.16
  Q 48.19 87.06 48.35 86.57
  L 49.37 83.40
  Z"
/>
<path fill="#fd9475" d="
  M 78.22 85.44
  Q 77.54 85.52 77.42 85.86
  Q 75.50 85.08 71.62 85.38
  Q 67.71 85.68 66.36 86.49
  Q 66.17 87.99 64.41 87.34
  Q 64.06 87.21 64.12 86.70
  Q 65.08 85.41 66.83 85.08
  C 70.90 84.44 73.81 83.76 78.22 85.44
  Z"
/>
<path fill="#2d88bb" d="
  M 126.57 85.49
  A 0.37 0.36 -31.2 0 1 126.02 85.36
  Q 125.71 84.74 126.08 84.20
  A 0.29 0.28 25.9 0 1 126.41 84.09
  Q 127.76 84.60 126.57 85.49
  Z"
/>
<path fill="#d9f0fe" d="
  M 87.34 88.84
  C 85.21 86.77 81.54 86.19 78.69 85.53
  L 86.13 84.83
  Q 86.64 84.78 86.83 85.26
  Q 87.54 87.04 87.34 88.84
  Z"
/>
<path fill="#a9e2ff" d="
  M 77.42 85.86
  Q 79.28 89.27 79.85 92.94
  Q 79.94 93.46 79.42 93.49
  L 76.08 93.69
  Q 74.41 93.20 72.67 92.78
  C 70.85 92.35 69.93 91.62 68.42 90.64
  Q 68.69 88.28 66.36 86.49
  Q 67.71 85.68 71.62 85.38
  Q 75.50 85.08 77.42 85.86
  Z"
/>
<path fill="#f16160" d="
  M 78.22 85.44
  L 78.69 85.53
  C 81.54 86.19 85.21 86.77 87.34 88.84
  L 87.91 89.51
  Q 87.48 90.10 86.52 89.95
  A 0.73 0.73 0.0 0 0 85.73 90.95
  Q 87.04 94.13 88.99 94.75
  Q 89.93 96.02 89.30 97.25
  Q 88.86 98.11 87.00 99.76
  Q 81.87 101.31 76.40 100.18
  L 75.49 98.45
  L 76.08 93.69
  L 79.42 93.49
  Q 79.94 93.46 79.85 92.94
  Q 79.28 89.27 77.42 85.86
  Q 77.54 85.52 78.22 85.44
  Z"
/>
<path fill="#fd9475" d="
  M 62.95 87.22
  C 63.31 89.21 66.84 89.97 68.42 90.64
  C 69.93 91.62 70.85 92.35 72.67 92.78
  Q 74.41 93.20 76.08 93.69
  L 75.49 98.45
  L 70.01 95.96
  L 67.65 94.57
  L 60.07 87.37
  Q 60.46 86.27 61.25 86.25
  Q 62.14 86.22 62.95 87.22
  Z"
/>
<path fill="#8cd6fe" d="
  M 64.12 86.70
  Q 64.06 87.21 64.41 87.34
  Q 66.17 87.99 66.36 86.49
  Q 68.69 88.28 68.42 90.64
  C 66.84 89.97 63.31 89.21 62.95 87.22
  Q 64.07 87.22 64.12 86.70
  Z"
/>
<path fill="#fd9475" d="
  M 93.76 86.77
  Q 94.84 87.42 95.65 86.74
  Q 96.22 86.87 96.49 87.20
  Q 97.51 90.02 96.35 93.44
  Q 93.16 93.53 89.75 93.58
  Q 89.13 93.59 88.99 94.75
  Q 87.04 94.13 85.73 90.95
  A 0.73 0.73 0.0 0 1 86.52 89.95
  Q 87.48 90.10 87.91 89.51
  Q 88.61 89.81 89.29 89.85
  Q 89.81 89.87 89.97 89.39
  L 90.29 88.44
  Q 91.23 88.09 91.92 87.52
  L 93.76 86.77
  Z"
/>
<path fill="#2d7498" d="
  M 126.92 87.74
  Q 126.27 88.24 125.88 87.66
  Q 125.72 87.42 125.90 87.12
  Q 126.29 86.48 126.79 87.04
  L 126.97 87.25
  A 0.33 0.33 0.0 0 1 126.92 87.74
  Z"
/>
<path fill="#ffffff" d="
  M 101.35 93.68
  L 96.35 93.44
  Q 97.51 90.02 96.49 87.20
  C 100.68 85.96 102.40 90.28 101.35 93.68
  Z"
/>
<path fill="#8cd6fe" d="
  M 60.07 87.37
  L 67.65 94.57
  Q 65.82 95.95 61.75 96.61
  Q 46.83 99.04 40.75 99.76
  Q 34.87 100.47 27.22 100.28
  L 6.06 100.68
  A 1.99 1.83 56.4 0 1 5.12 100.45
  Q 3.92 99.82 2.25 100.11
  Q 1.69 100.21 1.23 99.89
  Q 8.61 98.95 16.33 95.97
  Q 20.48 94.60 25.25 92.75
  Q 26.63 92.21 29.57 93.57
  Q 32.88 94.23 36.73 92.78
  Q 37.15 92.62 37.34 92.29
  Q 37.56 91.92 37.63 91.51
  Q 37.62 91.76 37.71 91.94
  A 0.68 0.66 -21.6 0 0 38.48 92.26
  Q 41.95 91.25 45.50 90.56
  Q 46.62 90.34 46.26 89.28
  L 46.50 89.71
  Q 46.78 90.18 47.32 90.05
  L 51.19 89.08
  L 60.07 87.37
  Z"
/>
<path fill="#065e8e" d="
  M 45.91 89.07
  L 46.26 89.28
  Q 46.62 90.34 45.50 90.56
  Q 41.95 91.25 38.48 92.26
  A 0.68 0.66 -21.6 0 1 37.71 91.94
  Q 37.62 91.76 37.63 91.51
  L 37.77 89.43
  L 45.91 89.07
  Z"
/>
<path fill="#2d88bb" d="
  M 132.11 91.62
  A 0.48 0.45 -32.1 0 1 132.20 91.27
  Q 132.46 90.96 132.78 91.10
  Q 132.99 91.20 133.07 91.41
  Q 133.23 91.85 133.05 92.32
  Q 132.83 92.88 132.45 92.41
  Q 132.17 92.07 132.11 91.62
  Z"
/>
<path fill="#2d7498" d="
  M 125.93 91.48
  A 0.53 0.53 0.0 0 1 126.65 91.20
  Q 127.31 91.51 126.92 92.16
  Q 126.57 92.73 126.11 92.23
  Q 125.78 91.87 125.93 91.48
  Z"
/>
<path fill="#8cd6fe" d="
  M 96.35 93.44
  L 101.35 93.68
  Q 102.86 93.30 102.18 96.52
  Q 97.18 98.21 91.57 96.91
  A 1.11 1.11 0.0 0 0 90.22 97.83
  Q 90.01 99.24 88.80 100.40
  Q 87.33 100.33 87.00 99.76
  Q 88.86 98.11 89.30 97.25
  Q 89.93 96.02 88.99 94.75
  Q 89.13 93.59 89.75 93.58
  Q 93.16 93.53 96.35 93.44
  Z"
/>
<path fill="#2d7498" d="
  M 126.90 94.76
  Q 126.64 94.95 126.31 94.92
  Q 126.09 94.90 125.98 94.71
  Q 125.78 94.37 125.94 94.01
  Q 126.28 93.24 126.75 93.94
  L 126.98 94.28
  A 0.36 0.36 0.0 0 1 126.90 94.76
  Z"
/>
<path fill="#64c2f5" d="
  M 67.65 94.57
  L 70.01 95.96
  Q 69.17 98.28 70.71 100.49
  L 27.22 100.28
  Q 34.87 100.47 40.75 99.76
  Q 46.83 99.04 61.75 96.61
  Q 65.82 95.95 67.65 94.57
  Z"
/>
<path fill="#c8edff" d="
  M 181.41 96.01
  Q 180.90 102.58 179.71 108.49
  Q 177.77 118.15 172.92 126.75
  L 169.35 130.65
  Q 169.01 131.02 169.51 131.03
  L 174.71 131.14
  L 149.29 131.22
  Q 149.51 130.66 149.22 130.28
  Q 152.11 130.92 153.54 129.73
  C 158.59 125.50 161.16 118.32 163.16 111.59
  Q 165.27 104.45 166.18 96.51
  Q 166.24 96.02 166.74 96.02
  L 181.41 96.01
  Z"
/>
<path fill="#a9e2ff" d="
  M 70.01 95.96
  L 75.49 98.45
  L 76.40 100.18
  L 70.71 100.49
  Q 69.17 98.28 70.01 95.96
  Z"
/>
<path fill="#c8edff" d="
  M 148.54 97.00
  Q 147.81 112.69 140.43 126.26
  Q 140.38 126.36 140.43 126.46
  Q 140.49 126.58 140.51 126.71
  Q 139.96 126.81 139.58 127.31
  Q 138.25 129.09 136.70 131.22
  L 116.78 131.27
  Q 117.19 130.31 116.83 130.40
  C 121.34 131.18 125.18 125.18 126.75 121.68
  Q 131.79 110.46 133.23 98.10
  Q 134.68 97.39 135.05 96.16
  L 147.79 96.11
  Q 148.30 96.11 148.51 96.58
  Q 148.60 96.79 148.54 97.00
  Z"
/>
<path fill="#64c2f5" d="
  M 149.26 126.70
  L 140.51 126.71
  Q 140.49 126.58 140.43 126.46
  Q 140.38 126.36 140.43 126.26
  Q 147.81 112.69 148.54 97.00
  Q 148.61 96.54 148.79 96.30
  Q 148.95 96.08 149.22 96.08
  Q 155.57 96.06 161.61 96.03
  Q 162.40 96.03 162.30 96.82
  Q 161.47 103.29 159.81 109.82
  C 158.11 116.49 155.26 123.99 149.26 126.70
  Z"
/>
<path fill="#64c2f5" d="
  M 187.23 96.25
  C 186.73 103.04 182.63 127.22 172.92 126.75
  Q 177.77 118.15 179.71 108.49
  Q 180.90 102.58 181.41 96.01
  L 187.23 96.25
  Z"
/>
<path fill="#64c2f5" d="
  M 102.18 96.52
  L 102.46 98.73
  Q 102.52 99.20 102.97 99.33
  L 104.90 99.91
  Q 97.05 101.46 88.80 100.40
  Q 90.01 99.24 90.22 97.83
  A 1.11 1.11 0.0 0 1 91.57 96.91
  Q 97.18 98.21 102.18 96.52
  Z"
/>
<path fill="#a9e2ff" d="
  M 133.23 98.10
  Q 131.79 110.46 126.75 121.68
  C 125.18 125.18 121.34 131.18 116.83 130.40
  Q 116.13 129.05 116.53 126.73
  C 123.68 123.40 126.73 113.25 128.18 105.00
  Q 128.27 104.47 127.73 104.50
  Q 123.77 104.73 119.41 104.61
  Q 119.19 104.60 119.19 104.38
  L 119.19 104.37
  Q 119.19 104.14 119.41 104.13
  Q 123.46 104.02 127.80 104.24
  Q 128.31 104.27 128.40 103.77
  L 129.46 97.85
  Q 131.50 97.36 133.23 98.10
  Z"
/>
<path fill="#3fadec" d="
  M 1.23 99.89
  Q 1.69 100.21 2.25 100.11
  Q 3.92 99.82 5.12 100.45
  A 1.99 1.83 56.4 0 0 6.06 100.68
  L 27.22 100.28
  L 70.71 100.49
  L 76.40 100.18
  Q 81.87 101.31 87.00 99.76
  Q 87.33 100.33 88.80 100.40
  Q 97.05 101.46 104.90 99.91
  Q 106.72 99.58 108.09 99.97
  Q 110.55 99.03 111.18 100.31
  Q 111.69 101.37 110.76 102.60
  L 0.00 102.59
  L 0.00 99.93
  Q 0.71 99.52 1.23 99.89
  Z"
/>
<path fill="#8cd6fe" d="
  M 110.76 102.60
  Q 110.81 104.17 111.89 104.13
  L 111.38 105.98
  L 98.31 106.04
  Q 96.27 105.77 96.39 106.70
  Q 95.85 105.93 95.46 105.85
  Q 94.16 105.57 93.98 106.53
  Q 92.99 106.04 92.50 106.04
  Q 73.64 106.00 54.75 106.01
  Q 53.73 104.33 52.64 104.32
  Q 27.82 104.10 21.25 104.26
  Q 19.38 104.30 19.26 106.41
  Q 19.19 106.16 19.12 105.92
  L 0.00 105.95
  L 0.00 102.59
  L 110.76 102.60
  Z"
/>
<path fill="#2d88bb" d="
  M 54.75 106.01
  Q 54.52 106.71 54.75 107.15
  L 53.08 108.16
  Q 52.65 108.42 52.15 108.40
  Q 36.84 108.02 21.49 108.60
  Q 20.37 108.64 19.26 106.41
  Q 19.38 104.30 21.25 104.26
  Q 27.82 104.10 52.64 104.32
  Q 53.73 104.33 54.75 106.01
  Z"
/>
<path fill="#a9e2ff" d="
  M 111.38 105.98
  C 110.66 109.08 108.43 114.56 105.30 115.44
  C 101.79 116.42 99.05 108.59 98.31 106.04
  L 111.38 105.98
  Z"
/>
<path fill="#3fadec" d="
  M 54.75 106.01
  Q 73.64 106.00 92.50 106.04
  Q 92.99 106.04 93.98 106.53
  Q 95.18 112.45 97.52 117.96
  Q 99.79 123.31 104.23 125.56
  Q 105.39 125.62 106.00 126.03
  Q 106.50 126.35 105.91 126.32
  Q 104.92 126.27 104.14 126.67
  Q 102.10 126.00 100.84 124.64
  C 96.62 120.07 94.31 113.38 93.02 107.12
  A 0.46 0.46 0.0 0 0 92.22 106.91
  L 82.90 117.72
  Q 82.60 118.44 82.11 118.02
  Q 81.65 117.63 81.04 117.63
  L 44.67 117.60
  A 0.82 0.82 0.0 0 0 43.85 118.45
  Q 43.98 123.30 43.73 128.02
  Q 43.71 128.38 43.39 128.55
  Q 43.04 128.72 42.48 128.44
  L 42.49 117.97
  Q 42.49 117.47 42.16 117.09
  L 37.05 111.13
  Q 38.18 110.32 39.00 110.35
  Q 49.49 110.72 52.49 110.27
  Q 54.95 109.91 54.75 107.15
  Q 54.52 106.71 54.75 106.01
  Z"
/>
<path fill="#2d7498" d="
  M 19.12 105.92
  Q 19.19 106.16 19.26 106.41
  Q 20.37 108.64 21.49 108.60
  Q 36.84 108.02 52.15 108.40
  Q 52.65 108.42 53.08 108.16
  L 54.75 107.15
  Q 54.95 109.91 52.49 110.27
  Q 49.49 110.72 39.00 110.35
  Q 38.18 110.32 37.05 111.13
  Q 36.74 111.89 37.00 111.81
  Q 36.75 110.37 36.00 110.41
  Q 33.17 110.55 30.47 110.51
  Q 25.80 110.51 21.25 110.55
  Q 18.57 110.57 19.12 105.92
  Z"
/>
<path fill="#ffffff" d="
  M 104.14 126.67
  L 116.53 126.73
  Q 116.13 129.05 116.83 130.40
  Q 117.19 130.31 116.78 131.27
  L 83.41 131.28
  Q 83.22 131.38 82.94 131.32
  L 82.90 117.72
  L 92.22 106.91
  A 0.46 0.46 0.0 0 1 93.02 107.12
  C 94.31 113.38 96.62 120.07 100.84 124.64
  Q 102.10 126.00 104.14 126.67
  Z"
/>
<path fill="#065e8e" d="
  M 37.00 111.81
  L 32.87 125.77
  Q 30.96 126.31 28.64 125.69
  L 30.47 110.51
  Q 33.17 110.55 36.00 110.41
  Q 36.75 110.37 37.00 111.81
  Z"
/>
<path fill="#ffffff" d="
  M 37.05 111.13
  L 42.16 117.09
  Q 42.49 117.47 42.49 117.97
  L 42.48 128.44
  Q 42.24 129.67 42.54 131.30
  L 33.11 131.22
  A 0.52 0.52 0.0 0 1 32.60 130.67
  L 32.87 125.77
  L 37.00 111.81
  Q 36.74 111.89 37.05 111.13
  Z"
/>
<path fill="#64c2f5" d="
  M 82.90 117.72
  L 82.94 131.32
  L 42.54 131.30
  Q 42.24 129.67 42.48 128.44
  Q 43.04 128.72 43.39 128.55
  Q 43.71 128.38 43.73 128.02
  Q 43.98 123.30 43.85 118.45
  A 0.82 0.82 0.0 0 1 44.67 117.60
  L 81.04 117.63
  Q 81.65 117.63 82.11 118.02
  Q 82.60 118.44 82.90 117.72
  Z"
/>
<path fill="#043959" d="
  M 28.64 125.69
  Q 30.96 126.31 32.87 125.77
  L 32.60 130.67
  A 0.52 0.52 0.0 0 0 33.11 131.22
  L 42.54 131.30
  L 82.94 131.32
  Q 83.22 131.38 83.41 131.28
  L 86.32 131.95
  L 33.07 132.00
  Q 30.54 130.28 26.77 131.12
  A 0.72 0.71 81.5 0 1 25.91 130.48
  L 25.85 129.65
  Q 27.71 127.95 28.64 125.69
  Z"
/>
<path fill="#ffffff" d="
  M 140.51 126.71
  L 149.26 126.70
  L 149.22 130.28
  Q 149.51 130.66 149.29 131.22
  L 136.70 131.22
  Q 138.25 129.09 139.58 127.31
  Q 139.96 126.81 140.51 126.71
  Z"
/>
<path fill="#484755" d="
  M 25.85 129.65
  L 25.91 130.48
  A 0.72 0.71 81.5 0 0 26.77 131.12
  Q 30.54 130.28 33.07 132.00
  L 0.44 132.00
  A 0.23 0.23 0.0 0 1 0.21 131.77
  L 0.21 131.48
  Q 0.21 131.20 0.49 131.21
  Q 12.45 131.38 24.66 131.12
  Q 25.13 131.11 25.47 130.80
  Q 25.91 130.39 25.85 129.65
  Z"
/>
<path fill="#484755" d="
  M 83.41 131.28
  L 116.78 131.27
  L 136.70 131.22
  L 149.29 131.22
  L 174.71 131.14
  L 192.96 131.28
  Q 193.24 131.28 193.22 131.56
  L 193.20 131.89
  Q 193.20 132.04 193.04 132.04
  L 86.32 131.95
  L 83.41 131.28
  Z"
/>
</svg>
